<svg id="Calque_1" data-name="Calque 1" xmlns="http://www.w3.org/2000/svg" xmlns:xlink="http://www.w3.org/1999/xlink" viewBox="0 0 497.8 472.89"><defs><style>.cls-1,.cls-12,.cls-23,.cls-25{fill:none;}.cls-2{fill:#f9b014;}.cls-2,.cls-3{opacity:0.33;}.cls-3{fill:#da6d42;}.cls-13,.cls-4{fill:#575756;}.cls-5{fill:#7a4420;}.cls-18,.cls-5{fill-rule:evenodd;}.cls-6{fill:#969696;}.cls-7{fill:#ddd;opacity:0.63;}.cls-8{fill:#3d3d3d;stroke:#3d3d3d;}.cls-13,.cls-8{stroke-linecap:round;stroke-linejoin:round;stroke-width:3px;}.cls-9{fill:#95a2c9;}.cls-10{fill:#7a7a7a;}.cls-11,.cls-14{fill:#434449;}.cls-12,.cls-14{stroke:#7e8baa;}.cls-12,.cls-14,.cls-23,.cls-25{stroke-miterlimit:10;}.cls-12{stroke-width:5px;}.cls-13{stroke:#575856;}.cls-15{fill:#ffd3bd;}.cls-16{fill:#ff3b3b;}.cls-17{fill:#f4bda6;}.cls-18{fill:#d8807d;}.cls-19{fill:#28160a;}.cls-20{fill:#603211;}.cls-21{fill:#4f5156;}.cls-22{fill:#fff;}.cls-23{stroke:#070707;stroke-width:0.75px;}.cls-24{fill:#f33;}.cls-25{stroke:#000;}.cls-26{fill:#070707;}.cls-27{clip-path:url(#clip-path);}.cls-28{clip-path:url(#clip-path-2);}.cls-29{clip-path:url(#clip-path-3);}</style><clipPath id="clip-path" transform="translate(-266.25 -76.98)"><rect class="cls-1" x="602" y="234.7" width="62.02" height="43.76"/></clipPath><clipPath id="clip-path-2" transform="translate(-266.25 -76.98)"><rect class="cls-1" x="701.37" y="120.91" width="42.36" height="42.36"/></clipPath><clipPath id="clip-path-3" transform="translate(-266.25 -76.98)"><rect class="cls-1" x="673.1" y="334.16" width="25.49" height="59.23"/></clipPath></defs><title>ill 4</title><path class="cls-2" d="M394.25,258.61c53.44,2.86,100.69-12.7,141.71,28.2s114.27,75.76,70,125.77-84.37,4.83-79.32,98.11S371,504.3,364.86,482.19s-110.22-49.59-97.42-95.12S344.82,256,394.25,258.61Z" transform="translate(-266.25 -76.98)"/><path class="cls-3" d="M687.59,379.32C621.67,411.72,575.52,462,499,440.53S311.35,426.4,330.78,336.87,428.59,274.55,360,166.22,550.8,69.48,572.91,91.87s165.25-14.5,180.44,48.61S748.56,349.35,687.59,379.32Z" transform="translate(-266.25 -76.98)"/><circle class="cls-4" cx="165.78" cy="279.99" r="1.78"/><path class="cls-5" d="M462.41,262.93H379.75a1.61,1.61,0,0,1-1.61-1.61V221.19c0-.89,0-9.77.9-9.77l83.88-.37c.89,0,1.1,9.25,1.1,10.14v40.13A1.61,1.61,0,0,1,462.41,262.93Z" transform="translate(-266.25 -76.98)"/><path class="cls-5" d="M421.51,262.93c-61.61,0-53.5-113.45-.34-96.27C471.92,146.28,485.55,262.93,421.51,262.93Z" transform="translate(-266.25 -76.98)"/><circle class="cls-6" cx="126.25" cy="230.76" r="8.88"/><circle class="cls-6" cx="181.74" cy="231.39" r="8.88"/><path class="cls-7" d="M266.53,390.72s-.48,6.21-.18,7.73c0,0-1.32,6.83,10.83,20.45,12.5,14,40.29,29.49,40.29,29.49,15.66,1,32.87-.83,50.11-.83,93.13,0,168.62-15.17,168.62-33.89s-75.49-33.88-168.62-33.88c-37.41,0-72,2.45-99.94,6.59" transform="translate(-266.25 -76.98)"/><path class="cls-6" d="M383.61,385.72l6.09-33.35c0-.1,0,.1,0,0l-8.39-88.2,7.21-2,14.58-4.06h0c1.31,0,13.88-3.3,17.59-3.33a42.64,42.64,0,0,1,11,1.52l7.38,2.06,21,5.81-9.3,88.62,6.94,30.82" transform="translate(-266.25 -76.98)"/><rect class="cls-8" x="155.57" y="242.91" width="20.55" height="39.43" rx="3.97" ry="3.97"/><polygon class="cls-9" points="121.4 284.01 187.05 284.01 191.57 310.04 188.79 329.5 127.42 331.17 118.92 323.91 117.36 308.75 121.4 284.01"/><path class="cls-10" d="M391,311s29.58,16.26,58.94,0C450,311,421.86,322.51,391,311Z" transform="translate(-266.25 -76.98)"/><polygon class="cls-11" points="121.4 284.01 120.47 288.11 187.99 288.11 187.05 284.01 121.4 284.01"/><line class="cls-12" x1="154.39" y1="334.47" x2="155.04" y2="288.11"/><rect class="cls-13" x="157.61" y="247.07" width="16.35" height="28.97" rx="0.2" ry="0.2"/><rect class="cls-14" x="149.98" y="284.01" width="10.13" height="4.1"/><path class="cls-15" d="M410.44,340.08a70,70,0,0,0,8.56-2.69c3.63-1.5,6.23.05,9.46-.75s2.67,3.53-.7,4-4.9,0-5.07.78,7.71,3.86,10,4.42,8.11.6,8.94,1.69-2.62,3.17-8.58,1.8-5.88-.79-5.88-.79,2.28.89,4.75,1.83a23.84,23.84,0,0,0,7.25,1.3c1.73,0,2.43,2.15,1.46,2.65s-7,.86-9.32-.18-6.22-2.43-6.22-2.43,5.18,3.21,6.54,3.8,6.72.37,7.58,1.87c.36.62-.32,2.42-7.85,1.35a37.75,37.75,0,0,1-5.86-2.16,13.07,13.07,0,0,0,3.84,2.53,33.56,33.56,0,0,0,6.09,1.78c2,.41,1.6,2.43-2,2.07s-7.53-1.46-9.36-2.83-12.93-4.2-16.78-8.08Z" transform="translate(-266.25 -76.98)"/><path class="cls-15" d="M527.27,305.09a87.56,87.56,0,0,0,3.86-9.22c1.36-4.12,4.36-5.49,6-8.84s4.58-.23,2.64,3.06-3.41,4.35-2.92,5,8.34-4.49,10.36-6.18,6.09-6.84,7.51-6.91.64,4.24-4.56,8.7-4.7,4.73-4.7,4.73l4.72-3.1a30.45,30.45,0,0,0,6-5.64c1.23-1.51,3.34-.85,3.06.31s-4.22,6.75-6.61,8.14-6.2,4.06-6.2,4.06,6.08-2.66,7.48-3.5,5-5.74,6.71-5.59c.73.05,1.65,1.75-4.41,7.78a47,47,0,0,1-5.74,3.89,15,15,0,0,0,4.62-1.88,41.6,41.6,0,0,0,5.61-4.32c1.73-1.55,3,.05.21,3s-6.36,5.79-8.69,6.59-12.22,8.92-17.9,10Z" transform="translate(-266.25 -76.98)"/><path class="cls-6" d="M359.89,348.92c7.14,1.69,23,3.13,34.91,4,8.35.63,14.72,1,14.72,1,3.47-5.44.8-13.47.8-13.47q-8.79-2.75-15.84-4.82c-23.28-6.85-33-8.6-33-8.6Z" transform="translate(-266.25 -76.98)"/><path class="cls-16" d="M321.5,304.73" transform="translate(-266.25 -76.98)"/><path class="cls-6" d="M483,350.24c14-7.54,53-36,53-36,.22-7-7.31-11.09-7.31-11.09C487,322.66,471.39,332,471.39,332Z" transform="translate(-266.25 -76.98)"/><path class="cls-16" d="M417.65,346.81" transform="translate(-266.25 -76.98)"/><path class="cls-6" d="M352.57,337.38s22.74-64.86,29.91-73.08c0,0,10.48,4.63,11.09,18.88,0,0-11.33,44.84-20.08,60.2C373.49,343.38,355.85,361.21,352.57,337.38Z" transform="translate(-266.25 -76.98)"/><path class="cls-6" d="M337.78,415.27" transform="translate(-266.25 -76.98)"/><path class="cls-6" d="M490,337.38s-22.73-64.86-29.91-73.08c0,0-10.47,4.63-11.09,18.88,0,0,11.33,44.84,20.09,60.2C469.06,343.38,486.69,361.21,490,337.38Z" transform="translate(-266.25 -76.98)"/><path class="cls-16" d="M504.76,415.27" transform="translate(-266.25 -76.98)"/><path class="cls-15" d="M434,237.26l-.43,9.42-.54,11.8s-2,4.45-11.09,4.45-10.95-3-10.95-3l-.36-5.24-1.22-17.39Z" transform="translate(-266.25 -76.98)"/><rect class="cls-4" x="161.53" y="243.9" width="8.5" height="1" rx="0.5" ry="0.5"/><path class="cls-17" d="M434,237.26l-.43,8.08c-3.79,2.84-12.76,8.42-22.94,6.85l-1.22-14.93Z" transform="translate(-266.25 -76.98)"/><path class="cls-15" d="M395.67,207.39s-4.9-6.56-8.82-2.28c-4.63,5.06.21,23.28,8.42,21.35Z" transform="translate(-266.25 -76.98)"/><path class="cls-17" d="M392.81,221.93a1,1,0,0,1-.78-1c-.53-9-4.36-10.52-4.53-10.58a1.21,1.21,0,0,1-.57-1.36c.12-.59.55-.95,1-.79.2.07,5.1,1.93,5.73,12.55a1.06,1.06,0,0,1-.75,1.19Z" transform="translate(-266.25 -76.98)"/><path class="cls-17" d="M388.22,217.36a.71.71,0,0,1-.53-.31,1.42,1.42,0,0,1,0-1.57A3.93,3.93,0,0,1,392,214a1.19,1.19,0,0,1,.58,1.35c-.11.6-.55,1-1,.8a2.49,2.49,0,0,0-2.8.89A.73.73,0,0,1,388.22,217.36Z" transform="translate(-266.25 -76.98)"/><path class="cls-15" d="M445.35,207.39s4.9-6.56,8.82-2.28c4.62,5.06-.21,23.28-8.42,21.35Z" transform="translate(-266.25 -76.98)"/><path class="cls-17" d="M448.21,221.93a1,1,0,0,0,.78-1c.53-9,4.36-10.52,4.53-10.58a1.21,1.21,0,0,0,.57-1.36c-.12-.59-.56-.95-1-.79-.21.07-5.1,1.93-5.73,12.55a1.06,1.06,0,0,0,.75,1.19Z" transform="translate(-266.25 -76.98)"/><path class="cls-17" d="M452.8,217.36a.71.71,0,0,0,.53-.31,1.42,1.42,0,0,0,0-1.57A3.93,3.93,0,0,0,449,214a1.18,1.18,0,0,0-.58,1.35c.11.6.55,1,1,.8a2.49,2.49,0,0,1,2.8.89A.73.73,0,0,0,452.8,217.36Z" transform="translate(-266.25 -76.98)"/><path class="cls-15" d="M420.84,248c-22.47,0-29.4-26.69-31.47-46.23a30.84,30.84,0,0,1,30.19-34.1h1.62a30.85,30.85,0,0,1,30.28,33.51C449.74,220.94,443.29,248,420.84,248Z" transform="translate(-266.25 -76.98)"/><path class="cls-17" d="M421.56,222.75a1.39,1.39,0,0,1-1-.55,1,1,0,0,1,.4-1.56l2.89-1.55a.37.37,0,0,0-.09-.69h0a4.37,4.37,0,0,1-3.08-3.64l-.46-5.42c-.05-.62.66-.36,1.37-.38s1.16-.34,1.21.29l.63,6a2.15,2.15,0,0,0,.61.85l1.26.47a1.82,1.82,0,0,1,1.29,2c-.22,1.26-.45,1.08-1.37,1.74l-2.87,2.29A1.42,1.42,0,0,1,421.56,222.75Z" transform="translate(-266.25 -76.98)"/><path class="cls-5" d="M389.57,203.5s40.64-16.64,31.6-36.11c0,0-35-5.73-33.73,32.6C387.46,200.58,389.45,202.91,389.57,203.5Z" transform="translate(-266.25 -76.98)"/><path class="cls-5" d="M451.22,203.66s-40.87-15.19-31.66-36c0,0,33.56-4.08,32.33,34.26C451.87,202.47,451.34,203.07,451.22,203.66Z" transform="translate(-266.25 -76.98)"/><path class="cls-18" d="M413.21,232.79c4.56-1.28,11.71-1,16.31-.48C426.39,234.1,417.14,234.3,413.21,232.79Z" transform="translate(-266.25 -76.98)"/><path class="cls-18" d="M413.21,232.79c4,5.07,13.35,3.7,16.31-.48C426.59,240.07,416.27,240.68,413.21,232.79Z" transform="translate(-266.25 -76.98)"/><path d="M406.06,205a5,5,0,0,1-2.7-2.26" transform="translate(-266.25 -76.98)"/><path d="M405.76,205.43a5,5,0,0,1-2.69-2.27" transform="translate(-266.25 -76.98)"/><path d="M406.57,204.66a5,5,0,0,1-2.69-2.27" transform="translate(-266.25 -76.98)"/><path d="M404.6,206.15a4.9,4.9,0,0,1-2.69-2.26" transform="translate(-266.25 -76.98)"/><path d="M404.3,206.55a5,5,0,0,1-2.69-2.27" transform="translate(-266.25 -76.98)"/><path d="M405.12,205.78a5,5,0,0,1-2.7-2.27" transform="translate(-266.25 -76.98)"/><path class="cls-19" d="M410.35,207.23c0,2.31-1.24,4.19-2.77,4.19s-2.89-1.36-4.2-3.41c-2.38-3.69,3.19-3.85,4.73-3.85S410.35,204.91,410.35,207.23Z" transform="translate(-266.25 -76.98)"/><path d="M437.12,206.14a5,5,0,0,0,2.69-2.26" transform="translate(-266.25 -76.98)"/><path d="M437.42,206.54a5,5,0,0,0,2.69-2.27" transform="translate(-266.25 -76.98)"/><path d="M436.6,205.77a5,5,0,0,0,2.7-2.27" transform="translate(-266.25 -76.98)"/><path d="M435.77,205a5,5,0,0,0,2.69-2.26" transform="translate(-266.25 -76.98)"/><path d="M436.07,205.42a5,5,0,0,0,2.69-2.27" transform="translate(-266.25 -76.98)"/><path d="M435.26,204.65a5,5,0,0,0,2.69-2.27" transform="translate(-266.25 -76.98)"/><path class="cls-19" d="M431.42,206.85c0,2.32,1.24,4.2,2.78,4.2s2.88-1.37,4.2-3.41c2.37-3.7-3.2-3.85-4.73-3.85S431.42,204.54,431.42,206.85Z" transform="translate(-266.25 -76.98)"/><path class="cls-20" d="M413.58,201.33c-.25.48-.45,1.3-1,1-2-1.08-6.42-3.08-10-1.73-2,.74-4.08,3.32-4.08,3.32a7.64,7.64,0,0,1,7.06-5.13c2.87-.12,6.73,1.57,7.64,2.08C413.41,201,413.7,201.09,413.58,201.33Z" transform="translate(-266.25 -76.98)"/><path class="cls-20" d="M427.64,201.33c.25.48.45,1.3,1,1,2-1.08,6.42-3.08,10-1.73,2,.74,4.08,3.32,4.08,3.32a7.64,7.64,0,0,0-7.06-5.13c-2.87-.12-6.73,1.57-7.64,2.08C427.81,201,427.52,201.09,427.64,201.33Z" transform="translate(-266.25 -76.98)"/><line class="cls-9" x1="117.36" y1="316.72" x2="120.47" y2="288.11"/><path class="cls-9" d="M380.14,370.62c-1.43-1.81-7.74-6.17-34.63-14.27,0,0-20.51-.79-14.85,17.12,0,0,2.75,10.58,8.68,17.16a24.1,24.1,0,0,0,9.55,6.42l14.45,5.34,24.2,4.08,22.95-7.54-7.23-12.26-19.59-12.93A14.82,14.82,0,0,1,380.14,370.62Z" transform="translate(-266.25 -76.98)"/><path class="cls-9" d="M504.76,388.76C479,403.4,416.34,418,373.86,436.23L365.48,424l83.28-42" transform="translate(-266.25 -76.98)"/><polygon class="cls-15" points="116.4 338.22 108.42 341.75 114.57 356.5 124.49 352.74 116.4 338.22"/><path class="cls-21" d="M372.14,418.45c4.21-1.82,9.11,1.89,10.91,7.46s-3.83,9.34-3.83,9.34-.51,8.14-6.61,13.25c-.14.12-.27.23-.42.34-1.15.91-3,.33-4.15-1.28a115.71,115.71,0,0,1-14.15-25.29c-.74-1.85-.24-3.68,1.14-4.16l.16-.06c3.32-1.13,9.49-3.08,14.39.88Z" transform="translate(-266.25 -76.98)"/><path class="cls-22" d="M368.64,423l.48-.85c.26.26,6.53,6.23,7,12.88l-1-.23C374.69,428.72,368.7,423,368.64,423Z" transform="translate(-266.25 -76.98)"/><path class="cls-22" d="M369.24,423.8a1.43,1.43,0,0,1-1.52-1c-.3-.72-.09-1.43.46-1.59a1.42,1.42,0,0,1,1.52,1C370,422.93,369.79,423.64,369.24,423.8Z" transform="translate(-266.25 -76.98)"/><path class="cls-22" d="M376.37,436.1a1.43,1.43,0,0,1-1.52-1c-.3-.71-.09-1.42.46-1.58a1.44,1.44,0,0,1,1.53,1C377.13,435.23,376.92,435.94,376.37,436.1Z" transform="translate(-266.25 -76.98)"/><path class="cls-22" d="M371,421.83l.48-.85c.27.25,6.53,6.23,7,12.88l-1-.23C377,427.6,371,421.88,371,421.83Z" transform="translate(-266.25 -76.98)"/><path class="cls-22" d="M371.56,422.67a1.43,1.43,0,0,1-1.53-1c-.29-.72-.09-1.43.46-1.59a1.46,1.46,0,0,1,1.53,1C372.31,421.8,372.1,422.52,371.56,422.67Z" transform="translate(-266.25 -76.98)"/><path class="cls-22" d="M378.69,435a1.43,1.43,0,0,1-1.53-1c-.29-.72-.09-1.43.46-1.59a1.44,1.44,0,0,1,1.53,1C379.44,434.1,379.24,434.81,378.69,435Z" transform="translate(-266.25 -76.98)"/><path class="cls-22" d="M366.4,424.2l.48-.85c.27.25,6.53,6.23,7,12.88l-1-.23C372.46,430,366.46,424.25,366.4,424.2Z" transform="translate(-266.25 -76.98)"/><path class="cls-22" d="M367,425a1.43,1.43,0,0,1-1.53-1c-.29-.72-.09-1.43.46-1.59a1.45,1.45,0,0,1,1.53,1C367.76,424.17,367.56,424.89,367,425Z" transform="translate(-266.25 -76.98)"/><path class="cls-22" d="M374.14,437.34a1.43,1.43,0,0,1-1.53-1c-.29-.72-.09-1.43.46-1.59a1.44,1.44,0,0,1,1.53,1C374.89,436.47,374.69,437.18,374.14,437.34Z" transform="translate(-266.25 -76.98)"/><path class="cls-22" d="M380.88,428.05a15.63,15.63,0,0,0-4-6.77,2.23,2.23,0,0,0-1.83,1,39.54,39.54,0,0,1,4,6.91A2.38,2.38,0,0,0,380.88,428.05Z" transform="translate(-266.25 -76.98)"/><path class="cls-22" d="M368,447.56a115.71,115.71,0,0,1-14.15-25.29c-.74-1.85-.24-3.68,1.14-4.16l.16-.06a86.52,86.52,0,0,0,17.42,30.45c-.14.12-.27.23-.42.34C371,449.75,369.2,449.17,368,447.56Z" transform="translate(-266.25 -76.98)"/><path class="cls-9" d="M390.33,382.85l88.75,43.65-6.37,12.7c-42.94-17.1-107.21-34.6-133.37-48.57" transform="translate(-266.25 -76.98)"/><polygon class="cls-15" points="197.45 341.92 205.81 344.69 200.03 359.59 190.03 356.09 197.45 341.92"/><path class="cls-21" d="M465.17,437.36c-3.83-2.51-3.42-8.65.26-13.21s9.91-1.91,9.91-1.91,7.09-4,14.71-1.73l.51.15c1.39.47,1.91,2.33,1.21,4.19a116.19,116.19,0,0,1-13.4,25.69c-1.14,1.63-2.94,2.22-4.11,1.32l-.13-.1c-2.77-2.16-7.78-6.24-7.15-12.51Z" transform="translate(-266.25 -76.98)"/><path class="cls-22" d="M470.86,437.83l-1,.06c.07-.36,1.63-8.88,6.95-12.89l.36,1C472.37,429.6,470.87,437.75,470.86,437.83Z" transform="translate(-266.25 -76.98)"/><path class="cls-22" d="M471.23,436.86a1.42,1.42,0,0,1,0,1.83c-.44.64-1.14.86-1.58.48a1.44,1.44,0,0,1,0-1.83C470.09,436.7,470.8,436.49,471.23,436.86Z" transform="translate(-266.25 -76.98)"/><path class="cls-22" d="M477.61,424.15a1.42,1.42,0,0,1,0,1.83c-.44.64-1.15.86-1.58.49a1.44,1.44,0,0,1,0-1.83C476.47,424,477.18,423.78,477.61,424.15Z" transform="translate(-266.25 -76.98)"/><path class="cls-22" d="M468.65,436.51l-1,.06c.06-.36,1.63-8.88,6.94-12.89l.36,1C470.16,428.28,468.66,436.43,468.65,436.51Z" transform="translate(-266.25 -76.98)"/><path class="cls-22" d="M469,435.54a1.44,1.44,0,0,1,0,1.83c-.44.64-1.15.86-1.59.48a1.44,1.44,0,0,1,0-1.83C467.88,435.38,468.59,435.17,469,435.54Z" transform="translate(-266.25 -76.98)"/><path class="cls-22" d="M475.4,422.83a1.44,1.44,0,0,1,0,1.84c-.44.64-1.14.85-1.58.48a1.44,1.44,0,0,1,0-1.83C474.26,422.68,475,422.46,475.4,422.83Z" transform="translate(-266.25 -76.98)"/><path class="cls-22" d="M473.12,439l-1,.06c.07-.36,1.63-8.88,7-12.9l.36,1C474.63,430.79,473.14,438.94,473.12,439Z" transform="translate(-266.25 -76.98)"/><path class="cls-22" d="M473.5,438.05a1.42,1.42,0,0,1,0,1.83c-.44.64-1.15.85-1.58.48a1.44,1.44,0,0,1,0-1.83C472.36,437.89,473.07,437.67,473.5,438.05Z" transform="translate(-266.25 -76.98)"/><path class="cls-22" d="M479.88,425.34a1.44,1.44,0,0,1,0,1.83c-.44.64-1.15.86-1.58.49a1.44,1.44,0,0,1,0-1.84C478.74,425.19,479.44,425,479.88,425.34Z" transform="translate(-266.25 -76.98)"/><path class="cls-22" d="M468.41,424.79a15.63,15.63,0,0,0-3.45,7.08,2.19,2.19,0,0,0,1.85,1,40.06,40.06,0,0,1,3.59-7.12A2.4,2.4,0,0,0,468.41,424.79Z" transform="translate(-266.25 -76.98)"/><path class="cls-22" d="M491.77,424.85a116.19,116.19,0,0,1-13.4,25.69c-1.14,1.63-2.94,2.22-4.11,1.32l-.13-.1a86.6,86.6,0,0,0,15.92-31.25l.51.15C492,421.13,492.47,423,491.77,424.85Z" transform="translate(-266.25 -76.98)"/><path class="cls-9" d="M462.45,370.62c1.42-1.81,7.74-6.17,34.63-14.27,0,0,20.5-.79,14.85,17.12,0,0-2.75,10.58-8.69,17.16a24,24,0,0,1-9.54,6.42l-14.46,5.34L455,406.47l-22.94-7.54,7.23-12.26,19.58-12.93A14.87,14.87,0,0,0,462.45,370.62Z" transform="translate(-266.25 -76.98)"/><polyline class="cls-9" points="124.77 308.75 125.69 290.65 88.06 293.36"/><polyline class="cls-9" points="188.36 309.82 187.44 291.73 225.07 294.43"/><rect class="cls-23" x="248.23" y="32.8" width="96.47" height="101.65" rx="12" ry="12"/><line class="cls-23" x1="262.34" y1="32.8" x2="262.34" y2="134.45"/><line class="cls-23" x1="277.6" y1="32.8" x2="277.6" y2="134.45"/><line class="cls-23" x1="290.56" y1="32.8" x2="290.56" y2="134.45"/><line class="cls-23" x1="303.81" y1="32.8" x2="303.81" y2="134.45"/><line class="cls-23" x1="317.05" y1="32.8" x2="317.05" y2="134.45"/><line class="cls-23" x1="329.43" y1="32.8" x2="329.43" y2="134.45"/><line class="cls-23" x1="248.23" y1="52.09" x2="344.7" y2="52.09"/><line class="cls-23" x1="247.94" y1="72.82" x2="344.41" y2="72.82"/><line class="cls-23" x1="248.23" y1="93.55" x2="344.7" y2="93.55"/><line class="cls-23" x1="248.23" y1="114.58" x2="344.7" y2="114.58"/><rect class="cls-22" x="264.64" y="74.26" width="63.35" height="41.18"/><rect class="cls-24" x="264.64" y="74.26" width="63.35" height="6.91"/><line class="cls-25" x1="273.28" y1="81.17" x2="273.28" y2="115.44"/><line class="cls-25" x1="282.93" y1="81.03" x2="282.93" y2="115.3"/><line class="cls-25" x1="292.43" y1="81.03" x2="292.43" y2="115.3"/><line class="cls-25" x1="301.36" y1="81.03" x2="301.36" y2="115.3"/><line class="cls-25" x1="309.71" y1="81.03" x2="309.71" y2="115.3"/><line class="cls-25" x1="318.92" y1="81.03" x2="318.92" y2="115.3"/><line class="cls-25" x1="264.5" y1="87.65" x2="327.85" y2="87.65"/><line class="cls-25" x1="264.5" y1="93.99" x2="327.85" y2="93.99"/><line class="cls-25" x1="264.5" y1="100.32" x2="327.85" y2="100.32"/><line class="cls-25" x1="264.5" y1="106.94" x2="327.85" y2="106.94"/><circle class="cls-2" cx="366.76" cy="180.03" r="43.49"/><rect class="cls-26" x="296.03" y="69.65" width="1.44" height="6.05"/><g class="cls-27"><path class="cls-22" d="M636.85,234.7c-6,0-12.08.11-18.12.29-3,.09-6,.39-8.92.75a7.63,7.63,0,0,0-6.66,6.12A55.39,55.39,0,0,0,602,253c-.06,3.19,0,6.38.12,9.55a74,74,0,0,0,.84,7.86c.64,4,2.89,6.32,6.84,6.92a88,88,0,0,0,9.17.81c4.66.2,9.33.25,13.38.34,3.81-.07,7-.12,10.2-.19a120.81,120.81,0,0,0,13.17-.85,7.69,7.69,0,0,0,6.67-5,17.17,17.17,0,0,0,.87-3.83,86.14,86.14,0,0,0,.73-12.32c0-2.47-.11-4.93-.3-7.39a60.31,60.31,0,0,0-.87-6.84,7.38,7.38,0,0,0-6.35-6.24,52.3,52.3,0,0,0-6.5-.71c-4.25-.21-8.51-.41-12.77-.41h-.38M626.8,265.89V247.17l16.09,9.36-16.09,9.36" transform="translate(-266.25 -76.98)"/></g><circle class="cls-2" cx="419.59" cy="288.11" r="43.49"/><circle class="cls-2" cx="454.31" cy="65.12" r="43.49"/><g class="cls-28"><path class="cls-22" d="M714.34,124.08a9.82,9.82,0,0,0-9.8,9.8v16.43a9.81,9.81,0,0,0,9.8,9.79h16.43a9.81,9.81,0,0,0,9.8-9.79V133.88a9.82,9.82,0,0,0-9.8-9.8Zm16.43,39.2H714.34a13,13,0,0,1-13-13V133.88a13,13,0,0,1,13-13h16.43a13,13,0,0,1,13,13v16.43a13,13,0,0,1-13,13" transform="translate(-266.25 -76.98)"/><path class="cls-22" d="M722.55,134.63a7.47,7.47,0,1,0,7.47,7.46,7.47,7.47,0,0,0-7.47-7.46m0,18.18a10.72,10.72,0,1,1,10.72-10.72,10.73,10.73,0,0,1-10.72,10.72" transform="translate(-266.25 -76.98)"/><path class="cls-22" d="M737.23,130.21a2.79,2.79,0,1,1-2.79-2.79,2.79,2.79,0,0,1,2.79,2.79" transform="translate(-266.25 -76.98)"/></g><g class="cls-29"><path class="cls-22" d="M698.08,353.55c-2.3,0-4.59,0-6.88,0-1.11,0-1.13,0-1.12-1.15,0-1.91,0-3.83.13-5.75a1.87,1.87,0,0,1,1.21-1.83,8.38,8.38,0,0,1,2.22-.42c1.46-.06,2.93,0,4.39,0,.41,0,.56-.14.56-.56,0-3,0-6.09,0-9.14,0-.4-.13-.54-.53-.54q-3.57,0-7.16,0a17,17,0,0,0-4.8.62,9,9,0,0,0-5.35,3.88,14.81,14.81,0,0,0-2,7.61c-.07,2.26,0,4.53,0,6.79,0,.4-.13.5-.5.5-1.54,0-3.09,0-4.63,0-.38,0-.52.09-.52.51,0,3.05,0,6.09,0,9.14,0,.46.11.62.58.61,1.48,0,3,0,4.44,0,.62,0,.62,0,.62.64v28.28c0,.67,0,.68.65.68h10c.66,0,.66,0,.66-.66V364.45c0-.65,0-.65.61-.65,2.13,0,4.26,0,6.4,0,.39,0,.53-.14.56-.51,0-.55.1-1.1.16-1.65.1-.92.21-1.83.3-2.75.15-1.59.26-3.18.45-4.75.06-.49,0-.6-.48-.6" transform="translate(-266.25 -76.98)"/></g></svg>