<svg id="Calque_1" data-name="Calque 1" xmlns="http://www.w3.org/2000/svg" viewBox="0 0 546.96 473.27"><defs><style>.cls-1{fill:#f9b014;}.cls-1,.cls-2{opacity:0.33;}.cls-2{fill:#da6d42;}.cls-12,.cls-3{fill:#fff;}.cls-13,.cls-4{fill:none;}.cls-4{stroke:#000;}.cls-11,.cls-13,.cls-4{stroke-miterlimit:10;}.cls-11,.cls-12,.cls-13,.cls-4{stroke-width:0.25px;}.cls-11,.cls-5{fill:#6d6d6d;}.cls-6{fill:#e2e2e2;}.cls-7{fill:#125f59;}.cls-8{fill:#d3d1d1;}.cls-9{fill:#ececec;}.cls-10{fill:#375a64;}.cls-11,.cls-13{stroke:#6d6d6d;}.cls-12{stroke:#f7f7f7;stroke-linecap:round;stroke-linejoin:round;}.cls-14{fill:#ea8b00;}.cls-15{fill:#cb9566;}.cls-16{fill:#b6845b;}.cls-17{fill:#7f1d14;}.cls-18{fill:#2b2c35;}.cls-19{fill:#2d292b;}.cls-20{fill:#31323f;}.cls-21{fill:#8d2113;}.cls-22{fill:#1e1e1e;}.cls-23{fill:#32314b;}</style></defs><title>ill1</title><path class="cls-1" d="M643.51,317.55c-53.33-4.54-101,9.52-140.75-32.67s-111.82-79.33-66-127.92,84.48-2.15,82.38-95.54S674.56,72.73,680,95s108.6,53.05,94.37,98.16S692.83,321.76,643.51,317.55Z" transform="translate(-228.7 -23.28)"/><path class="cls-2" d="M354.13,187.63c66.91-30.3,114.63-79.12,190.45-55.22s187.09,20.06,164.83,108.93S609.69,300.54,674.8,411,481,501.64,459.65,478.56s-165.62,9.26-178.8-54.3S292.25,215.65,354.13,187.63Z" transform="translate(-228.7 -23.28)"/><rect class="cls-3" x="140.95" y="140.76" width="325.18" height="196.08"/><rect class="cls-4" x="140.57" y="137.98" width="325.18" height="198.86"/><rect class="cls-5" x="297.17" y="336.84" width="6.29" height="100.75"/><polygon class="cls-5" points="347.26 436.32 341.12 436.16 297.17 392.21 300.16 389.22 347.26 436.32"/><polygon class="cls-5" points="253.63 436.32 259.52 436.16 303.47 392.21 300.6 389.35 253.63 436.32"/><path class="cls-6" d="M416.49,205.26l29.86,7.07s-3.51,18.14-9.23,29.36c0,0-21.8-10.43-29.71-8.47A204,204,0,0,0,416.49,205.26Z" transform="translate(-228.7 -23.28)"/><path class="cls-7" d="M416.49,201.21l29.86,7.07s-3.51,18.14-9.23,29.36c0,0-21.8-10.44-29.71-8.47A204,204,0,0,0,416.49,201.21Z" transform="translate(-228.7 -23.28)"/><polygon class="cls-8" points="129.59 137.98 465.75 137.98 465.75 146.95 129.59 137.98"/><rect class="cls-5" x="135.28" y="133.02" width="336.17" height="7.74"/><path class="cls-6" d="M416.49,303.26l29.86,7.07s-3.51,18.14-9.23,29.36c0,0-21.8-10.43-29.71-8.47A204,204,0,0,0,416.49,303.26Z" transform="translate(-228.7 -23.28)"/><path class="cls-9" d="M426.88,181.2" transform="translate(-228.7 -23.28)"/><path class="cls-10" d="M426.61,177.19" transform="translate(-228.7 -23.28)"/><path class="cls-7" d="M416.49,299.21l29.86,7.07s-3.51,18.14-9.23,29.36c0,0-21.8-10.44-29.71-8.47A204,204,0,0,0,416.49,299.21Z" transform="translate(-228.7 -23.28)"/><path class="cls-6" d="M575.1,204.06l20.38,4.83s-2.4,12.37-6.3,20c0,0-14.87-7.11-20.27-5.78A138,138,0,0,0,575.1,204.06Z" transform="translate(-228.7 -23.28)"/><path class="cls-7" d="M575.1,201.3l20.38,4.82s-2.4,12.38-6.3,20c0,0-14.87-7.12-20.27-5.78A138,138,0,0,0,575.1,201.3Z" transform="translate(-228.7 -23.28)"/><path class="cls-6" d="M641.89,255.82l29.87,7.07s-3.52,18.14-9.24,29.36c0,0-21.79-10.44-29.71-8.48A202,202,0,0,0,641.89,255.82Z" transform="translate(-228.7 -23.28)"/><path class="cls-7" d="M641.89,251.77l29.87,7.07s-3.52,18.14-9.24,29.36c0,0-21.79-10.44-29.71-8.48A202.59,202.59,0,0,0,641.89,251.77Z" transform="translate(-228.7 -23.28)"/><path class="cls-6" d="M472,235l29.86,7.07s-3.51,18.14-9.23,29.36c0,0-21.8-10.44-29.71-8.48A203.6,203.6,0,0,0,472,235Z" transform="translate(-228.7 -23.28)"/><path class="cls-7" d="M472,231,501.81,238s-3.51,18.14-9.23,29.36c0,0-21.8-10.44-29.71-8.48A204.16,204.16,0,0,0,472,231Z" transform="translate(-228.7 -23.28)"/><line class="cls-11" x1="300.32" y1="160.85" x2="300.32" y2="322.62"/><rect class="cls-4" x="322.92" y="264.92" width="83.85" height="51.27"/><line class="cls-11" x1="364.84" y1="274.88" x2="364.84" y2="308.41"/><path class="cls-12" d="M420.36,209.55c2.12.59,4.2.72,5.73,1.62,2.45,1.45,5.37,1.72,7.45,2.17,6,1.32,6.52,2,6.52,2" transform="translate(-228.7 -23.28)"/><path class="cls-12" d="M418.47,214.32c2.12.59,4.21.72,5.73,1.62,2.45,1.45,5.37,1.72,7.45,2.17,6,1.32,6.53,2,6.53,2" transform="translate(-228.7 -23.28)"/><path class="cls-12" d="M475.14,237.64c2.12.6,4.21.72,5.74,1.63,2.44,1.44,5.36,1.71,7.44,2.17,6,1.31,6.53,2,6.53,2" transform="translate(-228.7 -23.28)"/><path class="cls-12" d="M473.43,241.69c2.12.6,4.2.72,5.73,1.63,2.45,1.44,5.37,1.71,7.45,2.17,6,1.31,6.52,2,6.52,2" transform="translate(-228.7 -23.28)"/><path class="cls-12" d="M471.54,246.46c2.12.6,4.21.72,5.73,1.63,2.45,1.44,5.37,1.71,7.45,2.17,6,1.31,6.53,2,6.53,2" transform="translate(-228.7 -23.28)"/><path class="cls-12" d="M419.73,305.46c2.12.6,4.2.72,5.73,1.63,2.45,1.44,5.37,1.71,7.45,2.17,6,1.31,6.52,2,6.52,2" transform="translate(-228.7 -23.28)"/><path class="cls-12" d="M418,309.51c2.12.6,4.2.72,5.73,1.63,2.44,1.44,5.36,1.71,7.44,2.17,6,1.31,6.53,2,6.53,2" transform="translate(-228.7 -23.28)"/><path class="cls-12" d="M416.13,314.28c2.12.6,4.2.73,5.73,1.63,2.44,1.44,5.37,1.71,7.45,2.17,6,1.31,6.52,2,6.52,2" transform="translate(-228.7 -23.28)"/><path class="cls-12" d="M645.55,257.69c2.12.59,4.21.72,5.73,1.62,2.45,1.45,5.37,1.72,7.45,2.17,6,1.32,6.52,2,6.52,2" transform="translate(-228.7 -23.28)"/><path class="cls-12" d="M643.84,261.74c2.12.6,4.2.72,5.73,1.63,2.45,1.44,5.37,1.71,7.45,2.17,6,1.31,6.52,2,6.52,2" transform="translate(-228.7 -23.28)"/><path class="cls-12" d="M642,266.51c2.12.6,4.2.72,5.73,1.63,2.45,1.44,5.37,1.71,7.45,2.17,6,1.31,6.52,2,6.52,2" transform="translate(-228.7 -23.28)"/><path class="cls-12" d="M577.78,205.43a18.25,18.25,0,0,1,3.91,1.11,16.06,16.06,0,0,0,5.08,1.48c4.09.9,4.45,1.39,4.45,1.39" transform="translate(-228.7 -23.28)"/><path class="cls-12" d="M575.32,211.45c1.45.41,2.87.49,3.91,1.11a16.06,16.06,0,0,0,5.08,1.48c4.1.9,4.45,1.39,4.45,1.39" transform="translate(-228.7 -23.28)"/><path class="cls-5" d="M561.65,321.66c2.2,0,4.24-.43,6,0,2.74.73,5.63.21,7.75.09,6.14-.35,6.84.2,6.84.2" transform="translate(-228.7 -23.28)"/><path class="cls-5" d="M561.09,326c2.2,0,4.24-.43,6,0,2.74.73,5.63.21,7.75.09,6.14-.35,6.83.2,6.83.2" transform="translate(-228.7 -23.28)"/><path class="cls-5" d="M560.55,331.12c2.21,0,4.25-.43,6,0,2.74.74,5.63.21,7.75.09,6.14-.35,6.84.21,6.84.21" transform="translate(-228.7 -23.28)"/><path class="cls-5" d="M605.28,295.5c2.2,0,4.24-.44,6,0,2.74.74,5.63.21,7.76.09,6.13-.35,6.83.21,6.83.21" transform="translate(-228.7 -23.28)"/><path class="cls-5" d="M604.71,297.68c2.21,0,4.25-.44,6,0,2.74.74,5.63.21,7.76.09,6.13-.35,6.83.21,6.83.21" transform="translate(-228.7 -23.28)"/><path class="cls-5" d="M604.18,300.23c2.2,0,4.24-.44,6,0,2.75.74,5.63.21,7.76.09,6.13-.34,6.83.21,6.83.21" transform="translate(-228.7 -23.28)"/><path class="cls-5" d="M604.73,302.78c2.2,0,4.24-.43,5.95,0,2.74.73,5.63.21,7.76.09,6.13-.35,6.83.2,6.83.2" transform="translate(-228.7 -23.28)"/><path class="cls-5" d="M604.17,305c2.2,0,4.24-.43,6,0,2.74.73,5.63.21,7.76.09,6.13-.35,6.83.2,6.83.2" transform="translate(-228.7 -23.28)"/><path class="cls-5" d="M603.63,307.51c2.2,0,4.24-.43,6,0,2.74.73,5.62.21,7.75.09,6.14-.35,6.83.2,6.83.2" transform="translate(-228.7 -23.28)"/><rect class="cls-13" x="329.85" y="272.33" width="28.72" height="20.25"/><line class="cls-13" x1="358.57" y1="292.58" x2="329.85" y2="272.33"/><line class="cls-13" x1="329.85" y1="292.58" x2="358.57" y2="272.33"/><rect class="cls-13" x="597.15" y="320.7" width="16.26" height="11.46" transform="translate(693.55 -307.12) rotate(89.11)"/><line class="cls-13" x1="370.97" y1="311.37" x2="382.17" y2="294.94"/><line class="cls-13" x1="370.71" y1="295.12" x2="382.43" y2="311.2"/><rect class="cls-13" x="614.25" y="320.7" width="16.26" height="11.46" transform="translate(710.39 -324.23) rotate(89.11)"/><line class="cls-13" x1="388.07" y1="311.37" x2="399.28" y2="294.94"/><line class="cls-13" x1="387.82" y1="295.12" x2="399.53" y2="311.2"/><path class="cls-6" d="M632.57,298.34l-17.32,4.11s2,10.52,5.35,17c0,0,12.65-6.06,17.24-4.92A118,118,0,0,1,632.57,298.34Z" transform="translate(-228.7 -23.28)"/><path class="cls-9" d="M626.54,227.53" transform="translate(-228.7 -23.28)"/><path class="cls-10" d="M626.7,225.21" transform="translate(-228.7 -23.28)"/><path class="cls-14" d="M632.57,296l-17.32,4.11s2,10.52,5.35,17c0,0,12.65-6.06,17.24-4.92A118,118,0,0,1,632.57,296Z" transform="translate(-228.7 -23.28)"/><path class="cls-12" d="M630.45,299.43a15,15,0,0,0-3.33.94,13.6,13.6,0,0,1-4.32,1.26c-3.48.76-3.78,1.18-3.78,1.18" transform="translate(-228.7 -23.28)"/><path class="cls-12" d="M631.44,301.78a14.77,14.77,0,0,0-3.32.94A13.67,13.67,0,0,1,623.8,304c-3.49.76-3.79,1.18-3.79,1.18" transform="translate(-228.7 -23.28)"/><path class="cls-12" d="M632.54,304.54a15,15,0,0,0-3.33.95,13.86,13.86,0,0,1-4.32,1.26c-3.48.76-3.78,1.18-3.78,1.18" transform="translate(-228.7 -23.28)"/><rect class="cls-4" x="159.69" y="217.71" width="38.02" height="51.27"/><path class="cls-5" d="M396.09,277.06c2.2,0,4.25-.42,6,.05,2.74.75,5.63.23,7.75.12,6.14-.32,6.83.24,6.83.24" transform="translate(-228.7 -23.28)"/><path class="cls-5" d="M395.51,281.42c2.21,0,4.25-.42,6,.05,2.74.75,5.63.23,7.75.12,6.14-.32,6.84.24,6.84.24" transform="translate(-228.7 -23.28)"/><path class="cls-5" d="M395,286.52c2.21,0,4.25-.42,6,.05,2.74.75,5.63.23,7.75.12,6.14-.32,6.84.24,6.84.24" transform="translate(-228.7 -23.28)"/><rect class="cls-13" x="393.08" y="246.27" width="28.72" height="25.03" transform="translate(-227.56 -25.06) rotate(0.25)"/><line class="cls-13" x1="193.1" y1="248.02" x2="164.38" y2="222.99"/><line class="cls-13" x1="164.38" y1="248.02" x2="193.1" y2="222.99"/><path class="cls-6" d="M419.87,262.33l-9.29,2.2a42.72,42.72,0,0,0,2.87,9.13s6.78-3.25,9.24-2.64A62.82,62.82,0,0,1,419.87,262.33Z" transform="translate(-228.7 -23.28)"/><path class="cls-9" d="M416.63,224.36" transform="translate(-228.7 -23.28)"/><path class="cls-10" d="M416.72,223.11" transform="translate(-228.7 -23.28)"/><path class="cls-14" d="M419.87,261.07l-9.29,2.2a42.72,42.72,0,0,0,2.87,9.13s6.78-3.25,9.24-2.64A62.82,62.82,0,0,1,419.87,261.07Z" transform="translate(-228.7 -23.28)"/><path class="cls-12" d="M418.73,262.91a7.71,7.71,0,0,0-1.78.5,7.33,7.33,0,0,1-2.32.68c-1.87.41-2,.63-2,.63" transform="translate(-228.7 -23.28)"/><path class="cls-12" d="M419.26,264.17a7.71,7.71,0,0,0-1.78.5,7.33,7.33,0,0,1-2.32.68c-1.86.41-2,.63-2,.63" transform="translate(-228.7 -23.28)"/><path class="cls-12" d="M419.85,265.65a8.22,8.22,0,0,0-1.78.51,7.3,7.3,0,0,1-2.32.67c-1.87.41-2,.64-2,.64" transform="translate(-228.7 -23.28)"/><polygon class="cls-13" points="438.42 201.45 401.93 201.32 402.07 176.29 438.56 176.42 438.42 201.45"/><line class="cls-13" x1="438.49" y1="201.38" x2="402" y2="176.35"/><line class="cls-13" x1="402" y1="201.38" x2="438.49" y2="176.35"/><rect class="cls-13" x="458.7" y="183.65" width="25.63" height="18.07" transform="translate(428.13 -305.05) rotate(89.11)"/><line class="cls-13" x1="233.97" y1="182.36" x2="251.64" y2="156.45"/><line class="cls-13" x1="233.58" y1="156.73" x2="252.04" y2="182.08"/><rect class="cls-13" x="485.66" y="183.65" width="25.63" height="18.07" transform="translate(454.68 -332.01) rotate(89.11)"/><line class="cls-13" x1="260.94" y1="182.36" x2="278.61" y2="156.45"/><line class="cls-13" x1="260.54" y1="156.73" x2="279.01" y2="182.08"/><path class="cls-5" d="M469.53,210c3.35,0,6.42-.8,9.07-.13,4.22,1.07,8.58.17,11.8-.09,9.32-.72,10.42.13,10.42.13" transform="translate(-228.7 -23.28)"/><path class="cls-5" d="M468.88,213.48c3.35,0,6.43-.8,9.07-.13,4.23,1.07,8.58.17,11.81-.09,9.31-.72,10.41.13,10.41.13" transform="translate(-228.7 -23.28)"/><path class="cls-5" d="M469.93,218.89c3.35-.06,6.43-.8,9.07-.13,4.23,1.07,8.58.16,11.81-.09,9.31-.72,10.41.13,10.41.13" transform="translate(-228.7 -23.28)"/><path class="cls-5" d="M631.42,186.65c3.35-.05,6.42-.8,9.07-.13,4.22,1.07,8.58.17,11.8-.08,9.32-.73,10.42.12,10.42.12" transform="translate(-228.7 -23.28)"/><path class="cls-5" d="M630.77,190.09c3.35-.05,6.43-.8,9.07-.13,4.23,1.07,8.58.17,11.81-.08,9.31-.73,10.41.12,10.41.12" transform="translate(-228.7 -23.28)"/><path class="cls-5" d="M631.82,195.5c3.35-.05,6.43-.8,9.07-.13,4.23,1.07,8.58.17,11.81-.08,9.31-.73,10.41.12,10.41.12" transform="translate(-228.7 -23.28)"/><rect class="cls-14" x="630.41" y="197.17" width="2.83" height="10.45" transform="translate(34.68 -372.62) rotate(38.5)"/><rect class="cls-14" x="663.84" y="218.1" width="2.83" height="10.45" transform="translate(54.98 -388.88) rotate(38.5)"/><rect class="cls-14" x="470.1" y="174.56" width="2.83" height="10.45" transform="translate(422.59 -315.01) rotate(90)"/><rect class="cls-5" x="356.32" y="242.21" width="1.68" height="100.75" transform="translate(60.62 -187.38) rotate(42.23)"/><rect class="cls-14" x="496.67" y="174.56" width="2.83" height="10.45" transform="translate(449.16 -341.58) rotate(90)"/><path class="cls-15" d="M323.18,314.29a31.76,31.76,0,0,1,5.44,1.59c2.44,1,5.36,2.33,6.85,3,1.8.78.24,2.24-2.3,1.28S330,319,330,319s-3.37-2.46,2.48,1.89c1.79,1.33,3.74,4.39-.73,2.71,0,0,1.69.82.9,2.25-1.19,2.16-2.93.2-2.93.2s.33,1.28-.68,1.75a3.25,3.25,0,0,1-2.57-.3s-.07,1.89-.86,2c-1.58.18-7.44-6.07-7.74-11.88C317.9,317.57,321.64,314.29,323.18,314.29Z" transform="translate(-228.7 -23.28)"/><path class="cls-15" d="M331.49,321.92a12.6,12.6,0,0,1-7.48,4.4S328.5,327.63,331.49,321.92Z" transform="translate(-228.7 -23.28)"/><path class="cls-16" d="M326.4,322s-5.41-2-3.34-6.36C323.06,315.6,319,319.79,326.4,322Z" transform="translate(-228.7 -23.28)"/><path class="cls-17" d="M304.29,282c-4.13-32.6-12.16-45.65-12.16-45.65-7.28,27.3-1.6,42.14.84,49.26s24.93,32.78,24.93,32.78a12,12,0,0,1,6.28-3.93s-7.12-11.52-9.64-15.84S304.29,282,304.29,282Z" transform="translate(-228.7 -23.28)"/><path class="cls-18" d="M302.6,389.46l-5.71,63.23H286.84c-2.32-24.64-6.08-46.23-1.85-63.23-4.26-19.16-7.43-62.65-7.43-62.65,7.67-3.23,20-6.16,20-6.16C301.61,341.91,302.6,389.46,302.6,389.46Z" transform="translate(-228.7 -23.28)"/><path class="cls-19" d="M285.75,451c.36-1.46,4-4.19,6.9-4.6,3.18-.45,5.61,1.56,6.08,3.13" transform="translate(-228.7 -23.28)"/><path class="cls-19" d="M298.73,449.51l1.26,1.31.6.64,1.27,1.32.57.58c.46.46.91.9,1.36,1.31.2.18.4.36.61.53a10.07,10.07,0,0,0,5.42,2.65c3.57.39,4.18-.38,7,3.84.06.09.68,1.27.72,1.36.41,1-.43,2.13-1.83,2.13H287.36a2.91,2.91,0,0,1-3-2.13,2.25,2.25,0,0,1,0-.52l.64-6.69s-.28-5.58,1.63-5.95" transform="translate(-228.7 -23.28)"/><path class="cls-3" d="M315.7,465.18H287.36a2.91,2.91,0,0,1-3-2.13h33.19C317.94,464.07,317.1,465.18,315.7,465.18Z" transform="translate(-228.7 -23.28)"/><path class="cls-3" d="M300.59,451.46a5.77,5.77,0,0,1-2.72,1.5c-.26.09-.55.17-.87.26l-.28-.69.85-.25c1.79-.59,2.28-1.16,2.42-1.46Z" transform="translate(-228.7 -23.28)"/><path class="cls-3" d="M302.43,453.36a6.62,6.62,0,0,1-2.25,1.14c-.31.11-.66.22-1,.32l-.29-.7c.36-.09.68-.19,1-.28a5.48,5.48,0,0,0,2-1.06Z" transform="translate(-228.7 -23.28)"/><path class="cls-3" d="M304.4,455.2a7.17,7.17,0,0,1-2.18,1.1c-.32.11-.67.21-1.06.32l-.28-.7c.36-.09.68-.19,1-.29a6,6,0,0,0,1.94-1C304,454.85,304.19,455,304.4,455.2Z" transform="translate(-228.7 -23.28)"/><path class="cls-20" d="M272.15,326.81s-.26,25.1-4.14,62.65c-2.53,20.47-5.34,46.14-8.47,63.23H249.47l-1.42-63.23s-2.3-38.91,2.71-65.72Z" transform="translate(-228.7 -23.28)"/><path class="cls-19" d="M268.36,465.49c-.29,5.31-18.4,3.48-21.3,1.89a3.65,3.65,0,0,1-1.67-3.24,23.53,23.53,0,0,1,1.39-7.53c1.16-3.74,1-3.68,1.8-6.24,0,0-.23-1.78,5.71-3.36s8.13,6.39,9.14,8.38c.93,1.83,4.53,4.32,4.91,8.82A10.83,10.83,0,0,1,268.36,465.49Z" transform="translate(-228.7 -23.28)"/><path class="cls-3" d="M251.09,453.74l-.48-.67c.22-.13,5.46-3.21,10-1.38l-.35.73C256.15,450.76,251.14,453.71,251.09,453.74Z" transform="translate(-228.7 -23.28)"/><path class="cls-3" d="M251.6,458.36l-.47-.66c.22-.14,5.46-3.22,10-1.38l-.35.73C256.66,455.38,251.65,458.33,251.6,458.36Z" transform="translate(-228.7 -23.28)"/><path class="cls-3" d="M251.35,456.05l-.48-.67c.22-.13,5.46-3.21,10-1.38l-.35.73C256.4,453.07,251.4,456,251.35,456.05Z" transform="translate(-228.7 -23.28)"/><path class="cls-3" d="M268.36,465.49c-.29,5.31-18.4,3.48-21.3,1.89a3.65,3.65,0,0,1-1.67-3.24,22.94,22.94,0,0,0,10.26,2.32c6.14.1,10.57-1,12.69-2.25A10.83,10.83,0,0,1,268.36,465.49Z" transform="translate(-228.7 -23.28)"/><path class="cls-20" d="M252.18,317.16s-3.41,11.07-3.38,20.93c0,0,16.69,6.7,37.91-.71,8.68-3,13.09-11.9,10-19.93l-.11-.29S269.44,316.14,252.18,317.16Z" transform="translate(-228.7 -23.28)"/><path class="cls-21" d="M244.91,323.74c18.81,10.65,40.62,7.13,57.69-.19l-10.47-87.16-11-1.35-.89-.11-2.51-.31-15.42-1.89-2.59.82-3.28,1-.78.25-14.58,4.58,9.75,52.23Z" transform="translate(-228.7 -23.28)"/><path class="cls-22" d="M289.16,193.26s5,4.4,3.67,10.62-4,6.89-4,6.89S283.64,194.88,289.16,193.26Z" transform="translate(-228.7 -23.28)"/><path class="cls-15" d="M275.66,225l-.74,7.84-.34,3.6c-5,3.22-12.91-1.62-12.91-1.62l-.3-12.33c2.33-1.35,8,.64,11.5,1.64C274.52,224.55,275.66,225,275.66,225Z" transform="translate(-228.7 -23.28)"/><path class="cls-15" d="M292,204.73c0,.19,0,.39,0,.59v.26c0,.18,0,.37,0,.56-.08,2.43-.34,5.12-.7,7.82-.07.56-.15,1.13-.24,1.69s-.14,1-.22,1.44c-.16,1-.32,2-.49,2.94-.11.66-.23,1.31-.35,1.94a9,9,0,0,1-.34,1.29,9.26,9.26,0,0,1-2.16,3.42,10.74,10.74,0,0,1-9.54,2.87c-3-.55-6.26-1.23-9.34-2l-.45-.11a51.56,51.56,0,0,1-6.63-2.11c-.25-.32-.48-.64-.71-1A26.06,26.06,0,0,1,257,214.9c-.27-1.34-.48-2.69-.62-4.05a1.55,1.55,0,0,0-.06-.31c0-1.25,0-2.49,0-3.69.18-8.86,8.3-15.82,17.94-15.37,7.61.36,14.87,3.07,16.71,6.67A15.67,15.67,0,0,1,292,204.73Z" transform="translate(-228.7 -23.28)"/><path class="cls-22" d="M260.84,224.34a25.84,25.84,0,0,1-3.82-9.45,11.92,11.92,0,0,1,4.33,1.1A29.44,29.44,0,0,1,260.84,224.34Z" transform="translate(-228.7 -23.28)"/><path class="cls-22" d="M278.6,209.8c0,1-.51,1.88-1.13,1.88s-1.13-.84-1.13-1.88.5-1.89,1.13-1.89S278.6,208.75,278.6,209.8Z" transform="translate(-228.7 -23.28)"/><path class="cls-22" d="M289.88,209.79c0,1.05-.5,1.89-1.12,1.89s-1.13-.84-1.13-1.89.5-1.88,1.12-1.88S289.88,208.75,289.88,209.79Z" transform="translate(-228.7 -23.28)"/><path class="cls-22" d="M270.5,206.81s.92-2.47,2.62-2.91,6.19.25,6.88.59c.3.15,0,.49-.14.78h0c-.15.35-.32,1-.69.85C278,205.62,273.3,204.57,270.5,206.81Z" transform="translate(-228.7 -23.28)"/><path class="cls-22" d="M292,204.73c0,.19,0,.39,0,.59v.26a4.86,4.86,0,0,0-4.24-.09,8.93,8.93,0,0,1-1,.33c-.28,0-.54-.31-.64-.57s-.49-.73-.19-.89a7.59,7.59,0,0,1,4.95-.46C291.53,204.09,291.71,204.44,292,204.73Z" transform="translate(-228.7 -23.28)"/><path class="cls-15" d="M263,209.4s-3.63-4-6.67-1.7c-3.35,2.58-.78,11.32,6,11.12Z" transform="translate(-228.7 -23.28)"/><path class="cls-16" d="M262.55,216.93a.58.58,0,0,1-.59-.49c-.56-4.42-3.42-5.1-3.54-5.13a.56.56,0,0,1-.45-.66.61.61,0,0,1,.72-.41c.15,0,3.8.84,4.46,6.07a.56.56,0,0,1-.53.61Z" transform="translate(-228.7 -23.28)"/><path class="cls-16" d="M258.73,214.13a.63.63,0,0,1-.4-.14.52.52,0,0,1-.05-.78,3.59,3.59,0,0,1,3.2-.85.55.55,0,0,1,.45.66.61.61,0,0,1-.71.42,2.31,2.31,0,0,0-2.05.5A.61.61,0,0,1,258.73,214.13Z" transform="translate(-228.7 -23.28)"/><path class="cls-16" d="M281.17,225.68a6,6,0,0,1-3.84-1.27.52.52,0,0,1,0-.78.64.64,0,0,1,.85,0,5.25,5.25,0,0,0,5,.65.61.61,0,0,1,.76.34.54.54,0,0,1-.37.7A7.75,7.75,0,0,1,281.17,225.68Z" transform="translate(-228.7 -23.28)"/><path class="cls-22" d="M288.2,216.75a16.63,16.63,0,0,1-9.18-.47,10.76,10.76,0,0,0-3.88-.75,14.84,14.84,0,0,0-6.57,1.84,23.76,23.76,0,0,1-3.17-8H263s.28,7.63,2.5,13.23a15.74,15.74,0,0,0,3.11,4.91,16.52,16.52,0,0,0,6.15,4.18,10.56,10.56,0,0,0,4.39.86c3.69-.26,10.83-6.53,10.83-10.61h0c-1.4,2.64-3.56,5-6.7,5.23-4.25.37-7.83-1.88-10.78-4.9-1.66-1.7-.12-4.27,2.53-4.13h.06a26.17,26.17,0,0,1,5.93,1.59c2,.62,2.92,0,4.57-.43,3.09-.76,4.18.11,4.74.69a3.33,3.33,0,0,0,.82-1.49,3.54,3.54,0,0,0,0-1.65C290.78,216.27,289.67,216.48,288.2,216.75Z" transform="translate(-228.7 -23.28)"/><path class="cls-16" d="M284,215.86a.59.59,0,0,1-.47-.22.52.52,0,0,1,.11-.77l1.6-1.11-1.39-.33a.58.58,0,0,1-.44-.45l-.61-3.5a.56.56,0,0,1,.5-.63.59.59,0,0,1,.68.46l.55,3.14,2.2.52a.6.6,0,0,1,.44.43.53.53,0,0,1-.23.54l-2.57,1.81A.7.7,0,0,1,284,215.86Z" transform="translate(-228.7 -23.28)"/><path class="cls-16" d="M283.11,223.1a11,11,0,0,1-7.53-2.74.52.52,0,0,1,0-.77.63.63,0,0,1,.84,0c4.24,3.84,10.19,1.94,10.25,1.92a.61.61,0,0,1,.76.33.53.53,0,0,1-.36.7A13.39,13.39,0,0,1,283.11,223.1Z" transform="translate(-228.7 -23.28)"/><path class="cls-23" d="M290.31,199" transform="translate(-228.7 -23.28)"/><path class="cls-22" d="M290.4,195.37s-1.6-7.84-20.69-6.34h0a17.39,17.39,0,0,0-4.44,1.52c-8.26,4.25-10.64,9.54-8.91,17.15,0,0,3.62-2.16,6.67,1.7h2.37a44.48,44.48,0,0,1,1-6.9c.76-2.55,1.32-2.75,2.09-5.36,0,0,17.26,4.45,21.89-1.77" transform="translate(-228.7 -23.28)"/><path class="cls-15" d="M248.23,319.94a20.14,20.14,0,0,1,5,2.84c2,1.67,3.94,3.5,5.13,4.55,1.43,1.27-.32,1.94-2,1.24a7.25,7.25,0,0,1-3.23-2.2s6.07,8,6.66,10.61c.54,2.35-3-1.93-6.23-5.32,0,0,4.4,8.7,3.43,10.07-1.26,1.8-6.56-8.75-6.56-8.75s2.65,8.31,1.52,8.46-5.1-8-5.1-8,1.27,5.85.48,5.71c-1.55-.29-6.94-12-5.24-17.6C242.08,321.52,246.76,319.49,248.23,319.94Z" transform="translate(-228.7 -23.28)"/><path class="cls-21" d="M228.71,282.79c-.27-12.41,12.36-43.38,12.36-43.38,8.62-.93,11,10.08,11,10.08-5.93,18-11.87,34.47-12,34.72.42,1.73,2,8.21,4.14,17,2.5,10.27,4.56,18.91,4.56,18.91-1.48,2.32-4.2,3-6.93,3.66a125,125,0,0,1-13.21-40.95" transform="translate(-228.7 -23.28)"/></svg>