<svg id="Calque_1" data-name="Calque 1" xmlns="http://www.w3.org/2000/svg" viewBox="0 0 498.27 485.77"><defs><style>.cls-1{fill:#f9b014;}.cls-1,.cls-2{opacity:0.33;}.cls-2{fill:#da6d42;}.cls-3{fill:#ffaf82;}.cls-4{fill:#f2e9d3;}.cls-5,.cls-56{fill:#fff;}.cls-6{fill:#ff3b3b;}.cls-7,.cls-8{fill:#4c2606;}.cls-16,.cls-8{fill-rule:evenodd;}.cls-9{fill:#878381;}.cls-10{fill:#666361;}.cls-11{fill:#edd7cc;}.cls-12{fill:#880ed8;}.cls-13{fill:#f88968;}.cls-14{fill:#ffa378;}.cls-15{fill:#6d3b15;}.cls-16{fill:#ce6f67;}.cls-17{fill:#f7f7f7;}.cls-18{fill:#494746;}.cls-19{fill:#f8b46b;}.cls-20{fill:#b1d7b2;}.cls-21{fill:#a0d8ef;}.cls-22{fill:#7c88c3;}.cls-23,.cls-26{fill:none;}.cls-23{stroke:#6d6b6a;}.cls-23,.cls-26,.cls-56{stroke-miterlimit:10;stroke-width:0.25px;}.cls-24{font-size:12px;}.cls-24,.cls-27{font-family:Roboto-Thin, Roboto;}.cls-25{letter-spacing:-0.01em;}.cls-26,.cls-56{stroke:#6e6c6b;}.cls-27{font-size:2px;}.cls-28{letter-spacing:-0.01em;}.cls-29{letter-spacing:0.03em;}.cls-30{letter-spacing:0.03em;}.cls-31{letter-spacing:0.03em;}.cls-32{letter-spacing:0.07em;}.cls-33{letter-spacing:0.07em;}.cls-34{letter-spacing:0.07em;}.cls-35{letter-spacing:-0.01em;}.cls-36{letter-spacing:0em;}.cls-37{letter-spacing:0.03em;}.cls-38{letter-spacing:0.03em;}.cls-39{letter-spacing:0.03em;}.cls-40{letter-spacing:0.08em;}.cls-41{letter-spacing:0.08em;}.cls-42{letter-spacing:0.08em;}.cls-43{letter-spacing:-0.01em;}.cls-44{letter-spacing:-0.01em;}.cls-45{letter-spacing:-0.01em;}.cls-46{letter-spacing:-0.01em;}.cls-47{letter-spacing:0.01em;}.cls-48{letter-spacing:0.02em;}.cls-49{letter-spacing:0.02em;}.cls-50{letter-spacing:0.02em;}.cls-51{letter-spacing:0em;}.cls-52{letter-spacing:-0.01em;}.cls-53{letter-spacing:-0.03em;}.cls-54{letter-spacing:-0.03em;}.cls-55{letter-spacing:-0.03em;}.cls-57{fill:#da99c4;}.cls-58{fill:#c1a9d2;}.cls-59{fill:#7979b8;}.cls-60{fill:#84a4d6;}.cls-61{fill:#ef796d;}.cls-62{fill:#f49f81;}.cls-63{fill:#f5a46c;}.cls-64{fill:#ffea80;}.cls-65,.cls-67{opacity:0.42;}.cls-66,.cls-67{fill:#fdeee9;}</style></defs><title>ill2</title><path class="cls-1" d="M535.51,370.55c-53.33-4.54-101.05,9.52-140.75-32.67s-111.82-79.33-66-127.92,84.48-2.15,82.38-95.54S566.56,125.73,572,148s108.6,53,94.37,98.16S584.83,374.76,535.51,370.55Z" transform="translate(-169.39 -76.28)"/><path class="cls-2" d="M246.13,240.63c66.91-30.3,114.63-79.12,190.45-55.22s187.09,20.06,164.83,108.93S501.69,353.54,566.8,464,373,554.64,351.65,531.56s-165.62,9.26-178.8-54.3S184.25,268.65,246.13,240.63Z" transform="translate(-169.39 -76.28)"/><path class="cls-3" d="M233.36,476.52l14.69-66.33a111.1,111.1,0,0,0-31.47-5.25s-5.77,56.89-5.09,71.09" transform="translate(-169.39 -76.28)"/><line class="cls-3" x1="36.92" y1="474.33" x2="54.07" y2="473.59"/><path class="cls-3" d="M211.56,475.79l-5.18,78.34,17.14-.77c3.73-35.89,10.1-53.9,9.91-77.05" transform="translate(-169.39 -76.28)"/><path class="cls-3" d="M275.44,476.52l-14.68-66.33a111,111,0,0,1,31.47-5.25S298,461.83,297.32,476" transform="translate(-169.39 -76.28)"/><line class="cls-3" x1="133.11" y1="474.33" x2="115.96" y2="473.59"/><path class="cls-3" d="M297.25,475.79l5.18,78.34-17.15-.77c-3.72-35.89-10.09-53.9-9.9-77.05" transform="translate(-169.39 -76.28)"/><path class="cls-4" d="M286.66,547.3c.35-3.56,4.75-5.5,9.23-4.61s4.92,6.16,4.92,6.16,5.35,3.45,6.52,9.55c0,.13.06.27.08.41.18,1.13-.92,2.16-2.46,2.35a90.61,90.61,0,0,1-22.62,0c-1.54-.2-2.6-1.23-2.4-2.36,0,0,0-.08,0-.13.49-2.69,1.5-7.64,6.06-9.48Z" transform="translate(-169.39 -76.28)"/><path class="cls-5" d="M288.4,551.4l-.4-.65c.28-.08,6.73-2.09,11.44.14l-.54.59C294.64,549.47,288.46,551.38,288.4,551.4Z" transform="translate(-169.39 -76.28)"/><path class="cls-5" d="M289.21,551.31a1.12,1.12,0,0,1-1.27.66c-.61-.08-1-.49-.91-.92a1.12,1.12,0,0,1,1.27-.66C288.9,550.46,289.31,550.88,289.21,551.31Z" transform="translate(-169.39 -76.28)"/><path class="cls-5" d="M300.3,551.12a1.13,1.13,0,0,1-1.27.66c-.6-.08-1-.49-.91-.92a1.12,1.12,0,0,1,1.27-.66C300,550.27,300.4,550.68,300.3,551.12Z" transform="translate(-169.39 -76.28)"/><path class="cls-5" d="M288.51,549.4l-.4-.65c.28-.09,6.73-2.09,11.44.13l-.54.59C294.75,547.46,288.57,549.38,288.51,549.4Z" transform="translate(-169.39 -76.28)"/><path class="cls-5" d="M289.32,549.31a1.12,1.12,0,0,1-1.27.65c-.6-.07-1-.48-.91-.92a1.11,1.11,0,0,1,1.27-.65C289,548.46,289.42,548.87,289.32,549.31Z" transform="translate(-169.39 -76.28)"/><path class="cls-5" d="M300.41,549.11a1.11,1.11,0,0,1-1.27.66c-.6-.07-1-.48-.9-.92a1.13,1.13,0,0,1,1.27-.66C300.11,548.27,300.51,548.68,300.41,549.11Z" transform="translate(-169.39 -76.28)"/><path class="cls-5" d="M288.4,553.4l-.4-.65c.28-.09,6.73-2.09,11.44.13l-.54.6C294.64,551.46,288.46,553.38,288.4,553.4Z" transform="translate(-169.39 -76.28)"/><path class="cls-5" d="M289.21,553.31a1.13,1.13,0,0,1-1.27.66c-.61-.08-1-.49-.91-.92a1.12,1.12,0,0,1,1.27-.66C288.9,552.46,289.31,552.87,289.21,553.31Z" transform="translate(-169.39 -76.28)"/><path class="cls-5" d="M300.3,553.12a1.11,1.11,0,0,1-1.27.65c-.6-.07-1-.48-.91-.92a1.12,1.12,0,0,1,1.27-.65C300,552.27,300.4,552.68,300.3,553.12Z" transform="translate(-169.39 -76.28)"/><path class="cls-5" d="M296.53,545a12.25,12.25,0,0,0-6.15.17,1.73,1.73,0,0,0,0,1.64,31.36,31.36,0,0,1,6.23-.1A1.87,1.87,0,0,0,296.53,545Z" transform="translate(-169.39 -76.28)"/><path class="cls-5" d="M305,561.16a90.61,90.61,0,0,1-22.62,0c-1.54-.2-2.6-1.23-2.4-2.36,0,0,0-.08,0-.13a67.39,67.39,0,0,0,27.38-.31c0,.13.06.27.08.41C307.59,559.94,306.49,561,305,561.16Z" transform="translate(-169.39 -76.28)"/><path class="cls-4" d="M208.31,547.45c.35-3.56,4.74-5.5,9.23-4.61s4.91,6.17,4.91,6.17,5.36,3.44,6.53,9.54c0,.14.06.27.08.41.17,1.14-.92,2.17-2.46,2.35a90.69,90.69,0,0,1-22.63,0c-1.53-.19-2.59-1.23-2.4-2.36,0,0,0-.08,0-.13.49-2.69,1.51-7.64,6.07-9.47Z" transform="translate(-169.39 -76.28)"/><path class="cls-5" d="M210,551.55l-.39-.65c.27-.08,6.73-2.08,11.43.14l-.53.59C216.28,549.62,210.1,551.53,210,551.55Z" transform="translate(-169.39 -76.28)"/><path class="cls-5" d="M210.85,551.46a1.12,1.12,0,0,1-1.27.66c-.6-.07-1-.48-.91-.92a1.13,1.13,0,0,1,1.27-.66C210.55,550.62,211,551,210.85,551.46Z" transform="translate(-169.39 -76.28)"/><path class="cls-5" d="M222,551.27a1.12,1.12,0,0,1-1.27.66c-.6-.07-1-.49-.91-.92a1.12,1.12,0,0,1,1.27-.66C221.64,550.42,222.05,550.84,222,551.27Z" transform="translate(-169.39 -76.28)"/><path class="cls-5" d="M210.16,549.55l-.4-.65c.27-.09,6.73-2.09,11.44.13l-.54.6C216.39,547.61,210.22,549.53,210.16,549.55Z" transform="translate(-169.39 -76.28)"/><path class="cls-5" d="M211,549.46a1.11,1.11,0,0,1-1.27.65c-.6-.07-1-.48-.9-.91a1.12,1.12,0,0,1,1.27-.66C210.66,548.61,211.06,549,211,549.46Z" transform="translate(-169.39 -76.28)"/><path class="cls-5" d="M222.06,549.27a1.11,1.11,0,0,1-1.27.65c-.6-.07-1-.48-.91-.92a1.11,1.11,0,0,1,1.27-.65C221.76,548.42,222.16,548.83,222.06,549.27Z" transform="translate(-169.39 -76.28)"/><path class="cls-5" d="M210,553.55l-.39-.65c.27-.08,6.73-2.09,11.43.14l-.53.59C216.28,551.62,210.1,553.53,210,553.55Z" transform="translate(-169.39 -76.28)"/><path class="cls-5" d="M210.85,553.46a1.12,1.12,0,0,1-1.27.66c-.6-.07-1-.49-.91-.92a1.12,1.12,0,0,1,1.27-.66C210.55,552.62,211,553,210.85,553.46Z" transform="translate(-169.39 -76.28)"/><path class="cls-5" d="M222,553.27a1.13,1.13,0,0,1-1.27.66c-.6-.08-1-.49-.91-.92a1.12,1.12,0,0,1,1.27-.66C221.64,552.42,222.05,552.83,222,553.27Z" transform="translate(-169.39 -76.28)"/><path class="cls-5" d="M218.17,545.14a12.14,12.14,0,0,0-6.14.18,1.71,1.71,0,0,0,0,1.63,31.28,31.28,0,0,1,6.22-.1A1.84,1.84,0,0,0,218.17,545.14Z" transform="translate(-169.39 -76.28)"/><path class="cls-5" d="M226.6,561.31a90.69,90.69,0,0,1-22.63,0c-1.53-.19-2.59-1.23-2.4-2.36,0,0,0-.08,0-.13a67.43,67.43,0,0,0,27.39-.31c0,.14.06.27.08.41C229.23,560.1,228.14,561.13,226.6,561.31Z" transform="translate(-169.39 -76.28)"/><path class="cls-6" d="M222.68,349.84s-20.51,54.68-22.07,62.31c-.46,2.24,20,6.75,22.12,7.08,13.48,2.1,53.21,7.74,84.77-5.36a3.42,3.42,0,0,0,1.94-3.87c-1.56-7.62-7.06-30.43-22.22-62.82Z" transform="translate(-169.39 -76.28)"/><rect class="cls-7" x="52.16" y="127.84" width="67.05" height="42.66" rx="2.58" ry="2.58"/><path class="cls-8" d="M255.41,248.09c-48.09,0-41.77-88.57-.26-75.17C294.77,157,305.41,248.09,255.41,248.09Z" transform="translate(-169.39 -76.28)"/><path class="cls-6" d="M293.83,374.52c-7.64,3.9-15.44,19.38-22.54,21.1A65.72,65.72,0,0,1,255,397.55a63.71,63.71,0,0,1-14.31-1.5c-7.59-1.66-15.07-15.89-23.37-20.13l10.24-52.8h0l-7.44-73.56,6.39-1.68,12.92-3.38,5.81-1.51a38.47,38.47,0,0,1,19.53,0l6.54,1.72,18.58,4.85-8.24,73.91Z" transform="translate(-169.39 -76.28)"/><path class="cls-3" d="M239.41,244.5l7.7-1.95s2.32,4.84,17.26-.28h0l4.39,1.54,2.53.9c-.22,3.35-1.45,8.06-3.28,13.68-2.27,6.93-5.78,14-10.76,14.72C257.25,273.11,243.7,275.56,239.41,244.5Z" transform="translate(-169.39 -76.28)"/><polygon class="cls-9" points="101.85 306.69 101.91 312.22 97.28 309.18 70.45 260.09 75.02 257.59 101.85 306.69"/><rect class="cls-10" x="240.51" y="338.67" width="7.54" height="1.02" rx="0.2" ry="0.2" transform="translate(-302.13 82.42) rotate(-28.66)"/><rect class="cls-10" x="240.02" y="337.77" width="7.54" height="1.02" rx="0.2" ry="0.2" transform="translate(-301.76 82.08) rotate(-28.66)"/><rect class="cls-10" x="239.53" y="336.87" width="7.54" height="1.02" rx="0.2" ry="0.2" transform="translate(-301.39 81.73) rotate(-28.66)"/><rect class="cls-10" x="239.04" y="335.98" width="7.54" height="1.02" rx="0.2" ry="0.2" transform="translate(-301.02 81.39) rotate(-28.66)"/><rect class="cls-10" x="238.55" y="335.08" width="7.54" height="1.02" rx="0.2" ry="0.2" transform="translate(-300.65 81.04) rotate(-28.66)"/><path class="cls-11" d="M235.19,321.21s2.35,3.56,1.46,10.38,5.21,3.67,5.21,3.67,5.74-3.06.85-6.81C238.1,324.92,239,325.74,235.19,321.21Z" transform="translate(-169.39 -76.28)"/><path class="cls-12" d="M236.84,327.87c.46,1.42,1.19,2.72,1.88,1.13s.66.69,1.27.19,0-1,.5-1.32,0-1.08,0-1.08a28.82,28.82,0,0,1-5.35-5.58S236.25,326.09,236.84,327.87Z" transform="translate(-169.39 -76.28)"/><ellipse class="cls-6" cx="66.47" cy="213.8" rx="14.57" ry="16.92"/><ellipse class="cls-6" cx="103.83" cy="213.8" rx="14.57" ry="16.92"/><path class="cls-3" d="M195.65,369.92a63.65,63.65,0,0,0,3.15,7.31c1.65,3.08.52,5.46,1.51,8.23s-2.9,2.58-3.65-.34-.43-4.29-1.14-4.39-2.74,7-3,9,.19,7.15-.7,8-3-2.08-2.37-7.4.19-5.2.19-5.2-.59,2.06-1.21,4.29a20.66,20.66,0,0,0-.51,6.44c.12,1.51-1.69,2.26-2.22,1.45s-1.38-6.1-.67-8.17,1.6-5.62,1.6-5.62-2.38,4.76-2.79,6,.27,5.91-1,6.77c-.52.35-2.18-.12-1.9-6.8a31.92,31.92,0,0,1,1.4-5.27,11.16,11.16,0,0,0-1.91,3.53,28.71,28.71,0,0,0-1,5.46c-.18,1.8-2,1.56-2-1.62s.63-6.7,1.67-8.39,2.58-11.61,5.68-15.24Z" transform="translate(-169.39 -76.28)"/><path class="cls-3" d="M195.65,369.92s-2.53-14.79-10.93-2" transform="translate(-169.39 -76.28)"/><path class="cls-3" d="M260.17,338a62.72,62.72,0,0,1-8,.3c-3.49-.18-5.15,1.87-8.09,2.16s-1.08,3.72,1.88,3.15,4.06-1.45,4.45-.85-2.81,3.64-4.53,4.78-.91.5-1.64,1.46c-.89,1.16-.24,3.94,4.27,1s.47-.05.47-.05.55-.47-1.19,1-2,1.66-2.15,2.9c-.21,1.5.75,1.34,1.72,1.47s1.07-.4,2.63-1.93,1.73-1.45,1.73-1.45a35.87,35.87,0,0,1-2.72,3.38c-.94.9-1.72.56-1.82,2.07-.06,1,.59,2.84,4.85-.41l.9-.89s.3-.06-.89,1.69L251,359.37c-1,1.5-.66,3.42,1.87,1.48a9.14,9.14,0,0,0,2.4-2.2c1.34-1.47,9.38-7.31,11.33-11.66Z" transform="translate(-169.39 -76.28)"/><path class="cls-3" d="M260.17,338s14.44-4.05,6.46,9" transform="translate(-169.39 -76.28)"/><path class="cls-6" d="M195.26,307.13s18.65-51.2,24.91-57.8a17,17,0,0,1,10.62,14.44s-8.92,35.29-16.39,47.5C214.4,311.27,199.24,326.26,195.26,307.13Z" transform="translate(-169.39 -76.28)"/><path class="cls-6" d="M184.19,368.29" transform="translate(-169.39 -76.28)"/><path class="cls-6" d="M195.26,307.1c-4.17,14.82-11.07,61.16-11.07,61.16,4.36,4.84,11.82,2.3,11.82,2.3,14.28-42.15,18.39-59.32,18.39-59.32Z" transform="translate(-169.39 -76.28)"/><path class="cls-6" d="M230.79,263.74" transform="translate(-169.39 -76.28)"/><path class="cls-6" d="M214.4,311.24s-5-11.78-19.14-4.14" transform="translate(-169.39 -76.28)"/><path class="cls-6" d="M314.73,307.56s-18.65-51.2-24.91-57.8A17,17,0,0,0,279.2,264.2s8.92,35.29,16.39,47.5C295.59,311.7,311,326.07,314.73,307.56Z" transform="translate(-169.39 -76.28)"/><path class="cls-6" d="M325.8,368.72" transform="translate(-169.39 -76.28)"/><path class="cls-6" d="M316.4,327.35c-11.88,6.53-50.31,20.95-50.31,20.95-5-3.46-4.39-11.18-4.39-11.18C295,316.17,309,309.31,309,309.31Z" transform="translate(-169.39 -76.28)"/><path class="cls-6" d="M346.43,285.4" transform="translate(-169.39 -76.28)"/><path class="cls-3" d="M265.12,228l-.33,7.36-.42,9.22s-1.57,3.47-8.66,3.47-8.55-2.38-8.55-2.38l-.28-4.09-1-13.58Z" transform="translate(-169.39 -76.28)"/><path class="cls-13" d="M265.12,228l-.33,6.32c-3,2.21-10,6.56-17.91,5.34l-1-11.66Z" transform="translate(-169.39 -76.28)"/><path class="cls-14" d="M235.24,204.73s-3.83-5.13-6.89-1.78c-3.61,4,.17,18.17,6.58,16.66Z" transform="translate(-169.39 -76.28)"/><path class="cls-13" d="M233,216.07a.75.75,0,0,1-.6-.79c-.42-7-3.41-8.22-3.54-8.26a1,1,0,0,1-.44-1.06c.09-.47.43-.74.77-.62.16.06,4,1.51,4.47,9.8a.82.82,0,0,1-.58.93Z" transform="translate(-169.39 -76.28)"/><path class="cls-13" d="M229.42,212.51a.58.58,0,0,1-.41-.24,1.12,1.12,0,0,1,0-1.23,3,3,0,0,1,3.41-1.18.93.93,0,0,1,.46,1.06c-.09.46-.43.74-.77.62a1.93,1.93,0,0,0-2.18.7A.61.61,0,0,1,229.42,212.51Z" transform="translate(-169.39 -76.28)"/><path class="cls-14" d="M274,204.73s3.83-5.13,6.89-1.78c3.61,4-.17,18.17-6.57,16.66Z" transform="translate(-169.39 -76.28)"/><path class="cls-13" d="M276.26,216.07c.32,0,.58-.35.61-.79.41-7,3.4-8.22,3.53-8.26a.94.94,0,0,0,.45-1.06c-.09-.47-.43-.74-.77-.62-.16.06-4,1.51-4.48,9.8a.83.83,0,0,0,.59.93Z" transform="translate(-169.39 -76.28)"/><path class="cls-13" d="M279.84,212.51a.56.56,0,0,0,.41-.24,1.1,1.1,0,0,0,0-1.23,3.07,3.07,0,0,0-3.42-1.18.94.94,0,0,0-.46,1.06c.09.46.44.74.77.62a2,2,0,0,1,2.19.7A.59.59,0,0,0,279.84,212.51Z" transform="translate(-169.39 -76.28)"/><path class="cls-3" d="M254.89,236.4c-17.54,0-22.95-20.84-24.57-36.09a24.06,24.06,0,0,1,23.57-26.62h1.27a24.08,24.08,0,0,1,23.63,26.16C277.45,215.3,272.42,236.4,254.89,236.4Z" transform="translate(-169.39 -76.28)"/><path class="cls-13" d="M255.45,216.72a1.08,1.08,0,0,1-.76-.43.82.82,0,0,1,.31-1.22l2.26-1.21a.29.29,0,0,0-.07-.54h0a3.42,3.42,0,0,1-2.41-2.84l-.36-4.23c0-.49.51-.28,1.07-.3s.9-.27.94.22l.5,4.69a1.57,1.57,0,0,0,.48.66l1,.38a1.41,1.41,0,0,1,1,1.55c-.17,1-.35.84-1.07,1.36l-2.24,1.79A1.13,1.13,0,0,1,255.45,216.72Z" transform="translate(-169.39 -76.28)"/><path class="cls-8" d="M234.19,240.72c-30.76-26.1,18.51-47,20-58.74,1.52,11.72,50.79,32.64,20,58.74,17.7-11.21,17-22.78,10.26-33.43-9.15-14.4-.14-36.35-30.29-35-26.41-1.12-20.44,20.26-29.47,34.54C218,217.52,217.13,229.19,234.19,240.72Z" transform="translate(-169.39 -76.28)"/><path d="M267.6,203.75a3.86,3.86,0,0,0,2.1-1.77" transform="translate(-169.39 -76.28)"/><path d="M267.83,204.06a3.86,3.86,0,0,0,2.1-1.77" transform="translate(-169.39 -76.28)"/><path d="M267.2,203.46a3.86,3.86,0,0,0,2.1-1.77" transform="translate(-169.39 -76.28)"/><path d="M266.55,202.87a3.87,3.87,0,0,0,2.1-1.76" transform="translate(-169.39 -76.28)"/><path d="M266.78,203.18a3.86,3.86,0,0,0,2.1-1.77" transform="translate(-169.39 -76.28)"/><path d="M266.14,202.58a3.9,3.9,0,0,0,2.11-1.77" transform="translate(-169.39 -76.28)"/><path class="cls-15" d="M263.15,204.39c0,1.81.78,3.28,1.74,3.28s1.82-1.07,2.64-2.67c1.5-2.88-2-3-3-3S263.15,202.58,263.15,204.39Z" transform="translate(-169.39 -76.28)"/><path d="M243.35,202.88a3.86,3.86,0,0,1-2.1-1.77" transform="translate(-169.39 -76.28)"/><path d="M243.12,203.19a3.9,3.9,0,0,1-2.11-1.77" transform="translate(-169.39 -76.28)"/><path d="M243.75,202.59a3.86,3.86,0,0,1-2.1-1.77" transform="translate(-169.39 -76.28)"/><path d="M242.21,203.76a3.86,3.86,0,0,1-2.1-1.77" transform="translate(-169.39 -76.28)"/><path d="M242,204.07a3.86,3.86,0,0,1-2.1-1.77" transform="translate(-169.39 -76.28)"/><path d="M242.61,203.47a3.86,3.86,0,0,1-2.1-1.77" transform="translate(-169.39 -76.28)"/><path class="cls-15" d="M246.68,204.39c0,1.81-.78,3.28-1.74,3.28s-1.82-1.07-2.64-2.67c-1.5-2.88,2-3,3-3S246.68,202.58,246.68,204.39Z" transform="translate(-169.39 -76.28)"/><path class="cls-7" d="M271.4,201.11s-1.85-3.46-5.11-4.17a8,8,0,0,0-6.15.9,1.13,1.13,0,0,0-.41,1.38h0a1.05,1.05,0,0,0,1.49.54C263,198.8,266.89,197.47,271.4,201.11Z" transform="translate(-169.39 -76.28)"/><path class="cls-7" d="M237.72,201.11s1.86-3.46,5.12-4.17a8,8,0,0,1,6.15.9,1.13,1.13,0,0,1,.41,1.38h0a1.05,1.05,0,0,1-1.49.54C246.15,198.8,242.24,197.47,237.72,201.11Z" transform="translate(-169.39 -76.28)"/><path class="cls-16" d="M248.93,224.55c3.56-1,9.14-.8,12.74-.37C259.23,225.58,252,225.73,248.93,224.55Z" transform="translate(-169.39 -76.28)"/><path class="cls-16" d="M248.93,224.55c3.11,4,10.43,2.9,12.74-.37C259.38,230.24,251.32,230.71,248.93,224.55Z" transform="translate(-169.39 -76.28)"/><path class="cls-6" d="M363.41,319.88" transform="translate(-169.39 -76.28)"/><path class="cls-6" d="M315.9,327.26s9.13-1-1.42-20.16c-8.77-15.93-19.14,4.14-19.14,4.14l1.63,5.61" transform="translate(-169.39 -76.28)"/><rect class="cls-17" x="198.14" y="134.49" width="173.58" height="165.47"/><path class="cls-18" d="M282,70.72h.37a5.41,5.41,0,0,1,5.41,5.41v58.66a0,0,0,0,1,0,0H282a0,0,0,0,1,0,0V70.72A0,0,0,0,1,282,70.72Z"/><path class="cls-18" d="M256.56,295h59.87a5,5,0,0,1,5,5v0a0,0,0,0,1,0,0H251.55a0,0,0,0,1,0,0v0a5,5,0,0,1,5-5Z"/><polygon class="cls-18" points="243.69 438.8 238.78 438.06 259.74 298.76 267.73 297.46 243.69 438.8"/><polygon class="cls-18" points="339.64 437.06 334.76 437.93 307.73 299.96 314.78 297.46 339.64 437.06"/><rect class="cls-18" x="282.46" y="298.76" width="4.96" height="125.35"/><rect class="cls-19" x="329.87" y="151.77" width="30.37" height="18.74"/><rect class="cls-20" x="329.87" y="178.09" width="30.37" height="18.74"/><rect class="cls-21" x="329.87" y="204.42" width="30.37" height="18.74"/><rect class="cls-22" x="329.87" y="230.75" width="30.37" height="18.74"/><rect class="cls-23" x="217.46" y="149.17" width="99.07" height="138.84"/><rect class="cls-23" x="233.44" y="179.58" width="67.1" height="54.48"/><text class="cls-24" transform="translate(249.3 168.74)">T<tspan class="cls-25" x="7.17" y="0">I</tspan><tspan x="10.13" y="0">TIRE</tspan></text><line class="cls-26" x1="233.44" y1="179.58" x2="300.54" y2="234.06"/><line class="cls-26" x1="300.54" y1="179.58" x2="233.44" y2="234.06"/><text class="cls-27" transform="translate(225.87 244.53)">Lo<tspan class="cls-28" x="2.2" y="0">r</tspan><tspan x="2.85" y="0">em</tspan><tspan class="cls-29" x="5.66" y="0"> </tspan><tspan x="6.2" y="0">ipsum</tspan><tspan class="cls-30" x="11.59" y="0"> </tspan><tspan x="12.13" y="0">Lo</tspan><tspan class="cls-28" x="14.32" y="0">r</tspan><tspan x="14.98" y="0">em</tspan><tspan class="cls-29" x="17.78" y="0"> </tspan><tspan x="18.32" y="0">ipsum</tspan><tspan class="cls-30" x="23.71" y="0"> </tspan><tspan x="24.25" y="0">dolor</tspan><tspan class="cls-30" x="28.62" y="0"> </tspan><tspan x="29.16" y="0">sit</tspan><tspan class="cls-31" x="31.18" y="0"> </tspan><tspan x="31.73" y="0">amet,</tspan><tspan class="cls-30" x="36.58" y="0"> </tspan><tspan x="37.12" y="0">consectetuer</tspan><tspan class="cls-30" x="48.38" y="0"> </tspan><tspan x="48.92" y="0">adipiscing</tspan><tspan class="cls-30" x="57.6" y="0"> </tspan><tspan x="58.14" y="0">elit,</tspan><tspan class="cls-31" x="60.97" y="0"> </tspan><tspan x="61.51" y="0">sed</tspan><tspan class="cls-30" x="64.62" y="0"> </tspan><tspan x="65.16" y="0">diam</tspan><tspan class="cls-30" x="69.51" y="0"> </tspan><tspan x="70.05" y="0">nonummy</tspan><tspan class="cls-30" x="78.97" y="0"> </tspan><tspan x="79.51" y="0">nibh </tspan><tspan x="0" y="2.4">euismod</tspan><tspan class="cls-32" x="7.5" y="2.4"> </tspan><tspan x="8.12" y="2.4">tincidunt</tspan><tspan class="cls-32" x="15.57" y="2.4"> </tspan><tspan x="16.19" y="2.4">ut</tspan><tspan class="cls-33" x="17.91" y="2.4"> </tspan><tspan x="18.53" y="2.4">lao</tspan><tspan class="cls-28" x="21.09" y="2.4">r</tspan><tspan x="21.74" y="2.4">eet</tspan><tspan class="cls-32" x="24.39" y="2.4"> </tspan><tspan x="25.01" y="2.4">dolo</tspan><tspan class="cls-28" x="28.7" y="2.4">r</tspan><tspan x="29.35" y="2.4">e</tspan><tspan class="cls-34" x="30.37" y="2.4"> </tspan><tspan x="30.99" y="2.4">magna</tspan><tspan class="cls-32" x="37.08" y="2.4"> </tspan><tspan x="37.7" y="2.4">aliquam</tspan><tspan class="cls-32" x="44.62" y="2.4"> </tspan><tspan x="45.24" y="2.4">erat</tspan><tspan class="cls-32" x="48.6" y="2.4"> </tspan><tspan class="cls-35" x="49.22" y="2.4">v</tspan><tspan x="50.16" y="2.4">olutpat.</tspan><tspan class="cls-32" x="56.58" y="2.4"> </tspan><tspan x="57.2" y="2.4">Ut</tspan><tspan class="cls-32" x="59.15" y="2.4"> </tspan><tspan x="59.77" y="2.4">wisi</tspan><tspan class="cls-32" x="63.1" y="2.4"> </tspan><tspan x="63.72" y="2.4">enim</tspan><tspan class="cls-32" x="68.04" y="2.4"> </tspan><tspan x="68.66" y="2.4">ad</tspan><tspan class="cls-32" x="70.81" y="2.4"> </tspan><tspan x="71.43" y="2.4">minim</tspan><tspan class="cls-32" x="76.93" y="2.4"> </tspan><tspan x="77.55" y="2.4">Lo</tspan><tspan class="cls-28" x="79.75" y="2.4">r</tspan><tspan class="cls-36" x="80.4" y="2.4">em </tspan><tspan x="0" y="4.8">ipsum</tspan><tspan class="cls-37" x="5.39" y="4.8"> </tspan><tspan x="5.93" y="4.8">dolor</tspan><tspan class="cls-37" x="10.3" y="4.8"> </tspan><tspan x="10.84" y="4.8">sit</tspan><tspan class="cls-38" x="12.87" y="4.8"> </tspan><tspan x="13.41" y="4.8">amet,</tspan><tspan class="cls-37" x="18.27" y="4.8"> </tspan><tspan x="18.81" y="4.8">consectetuer</tspan><tspan class="cls-39" x="30.06" y="4.8"> </tspan><tspan x="30.61" y="4.8">adipiscing</tspan><tspan class="cls-37" x="39.29" y="4.8"> </tspan><tspan x="39.83" y="4.8">elit,</tspan><tspan class="cls-37" x="42.66" y="4.8"> </tspan><tspan x="43.21" y="4.8">sed</tspan><tspan class="cls-37" x="46.31" y="4.8"> </tspan><tspan x="46.85" y="4.8">diam</tspan><tspan class="cls-37" x="51.21" y="4.8"> </tspan><tspan x="51.75" y="4.8">nonummy</tspan><tspan class="cls-37" x="60.67" y="4.8"> </tspan><tspan x="61.22" y="4.8">nibh</tspan><tspan class="cls-37" x="64.91" y="4.8"> </tspan><tspan x="65.45" y="4.8">euismod</tspan><tspan class="cls-37" x="72.95" y="4.8"> </tspan><tspan x="73.5" y="4.8">tincidunt</tspan><tspan class="cls-37" x="80.95" y="4.8"> </tspan><tspan x="81.49" y="4.8">ut </tspan><tspan x="0" y="7.2">lao</tspan><tspan class="cls-28" x="2.56" y="7.2">r</tspan><tspan x="3.21" y="7.2">eet</tspan><tspan class="cls-40" x="5.86" y="7.2"> </tspan><tspan x="6.5" y="7.2">dolo</tspan><tspan class="cls-28" x="10.2" y="7.2">r</tspan><tspan x="10.85" y="7.2">e</tspan><tspan class="cls-41" x="11.87" y="7.2"> </tspan><tspan x="12.51" y="7.2">magna</tspan><tspan class="cls-40" x="18.6" y="7.2"> </tspan><tspan x="19.25" y="7.2">aliquam</tspan><tspan class="cls-40" x="26.17" y="7.2"> </tspan><tspan x="26.81" y="7.2">erat</tspan><tspan class="cls-42" x="30.17" y="7.2"> </tspan><tspan class="cls-35" x="30.81" y="7.2">v</tspan><tspan x="31.75" y="7.2">olutpat.</tspan><tspan class="cls-41" x="38.17" y="7.2"> </tspan><tspan x="38.81" y="7.2">Ut</tspan><tspan class="cls-41" x="40.76" y="7.2"> </tspan><tspan x="41.41" y="7.2">wisi</tspan><tspan class="cls-42" x="44.74" y="7.2"> </tspan><tspan x="45.39" y="7.2">enim</tspan><tspan class="cls-41" x="49.7" y="7.2"> </tspan><tspan x="50.34" y="7.2">ad</tspan><tspan class="cls-41" x="52.49" y="7.2"> </tspan><tspan x="53.14" y="7.2">minim</tspan><tspan class="cls-42" x="58.64" y="7.2"> </tspan><tspan class="cls-43" x="59.29" y="7.2">v</tspan><tspan x="60.23" y="7.2">eniam,</tspan><tspan class="cls-41" x="65.97" y="7.2"> </tspan><tspan x="66.62" y="7.2">quis</tspan><tspan class="cls-41" x="70.22" y="7.2"> </tspan><tspan x="70.86" y="7.2">nostrud</tspan><tspan class="cls-42" x="77.52" y="7.2"> </tspan><tspan x="78.16" y="7.2">e</tspan><tspan class="cls-44" x="79.18" y="7.2">x</tspan><tspan x="80.11" y="7.2">e</tspan><tspan class="cls-28" x="81.13" y="7.2">r</tspan><tspan x="81.78" y="7.2">ci </tspan><tspan x="0" y="9.6">tation</tspan><tspan class="cls-45" x="4.89" y="9.6"> </tspan><tspan x="5.36" y="9.6">ullamcorper</tspan><tspan class="cls-45" x="15.68" y="9.6"> </tspan><tspan x="16.15" y="9.6">suscipit</tspan><tspan class="cls-46" x="22.79" y="9.6"> </tspan><tspan x="23.25" y="9.6">lobo</tspan><tspan class="cls-47" x="26.95" y="9.6">r</tspan><tspan x="27.64" y="9.6">tis</tspan><tspan class="cls-43" x="29.66" y="9.6"> </tspan><tspan x="30.13" y="9.6">nisl</tspan><tspan class="cls-46" x="33.04" y="9.6"> </tspan><tspan x="33.51" y="9.6">ut</tspan><tspan class="cls-46" x="35.22" y="9.6"> </tspan><tspan x="35.69" y="9.6">aliquip</tspan><tspan class="cls-43" x="41.26" y="9.6"> </tspan><tspan x="41.73" y="9.6">ex</tspan><tspan class="cls-46" x="43.7" y="9.6"> </tspan><tspan x="44.17" y="9.6">ea</tspan><tspan class="cls-43" x="46.24" y="9.6"> </tspan><tspan x="46.7" y="9.6">commodo</tspan><tspan class="cls-46" x="55.68" y="9.6"> </tspan><tspan x="56.15" y="9.6">consequat.</tspan><tspan class="cls-46" x="65.65" y="9.6"> </tspan><tspan x="66.12" y="9.6">Duis</tspan><tspan class="cls-43" x="69.96" y="9.6"> </tspan><tspan x="70.43" y="9.6">autem</tspan><tspan class="cls-46" x="76" y="9.6" xml:space="preserve"> v</tspan><tspan x="77.41" y="9.6">el</tspan><tspan class="cls-46" x="78.84" y="9.6"> </tspan><tspan x="79.31" y="9.6">eum </tspan><tspan x="0" y="12">iriu</tspan><tspan class="cls-28" x="2.59" y="12">r</tspan><tspan x="3.24" y="12">e</tspan><tspan class="cls-48" x="4.25" y="12"> </tspan><tspan x="4.77" y="12">dolor</tspan><tspan class="cls-48" x="9.14" y="12"> </tspan><tspan x="9.66" y="12">in</tspan><tspan class="cls-48" x="11.17" y="12"> </tspan><tspan x="11.69" y="12">hend</tspan><tspan class="cls-28" x="15.98" y="12">r</tspan><tspan x="16.63" y="12">erit</tspan><tspan class="cls-48" x="19.35" y="12"> </tspan><tspan x="19.87" y="12">in</tspan><tspan class="cls-48" x="21.38" y="12"> </tspan><tspan x="21.9" y="12">vulputate</tspan><tspan class="cls-49" x="29.85" y="12"> </tspan><tspan class="cls-43" x="30.37" y="12">v</tspan><tspan x="31.31" y="12">elit</tspan><tspan class="cls-50" x="33.77" y="12"> </tspan><tspan class="cls-51" x="34.29" y="12">esse</tspan><tspan class="cls-49" x="38.31" y="12"> </tspan><tspan x="38.83" y="12">molestie</tspan><tspan class="cls-50" x="46.19" y="12"> </tspan><tspan class="cls-51" x="46.71" y="12">consequat,</tspan><tspan class="cls-49" x="56.16" y="12"> </tspan><tspan class="cls-43" x="56.68" y="12">v</tspan><tspan x="57.62" y="12">el</tspan><tspan class="cls-49" x="59.05" y="12"> </tspan><tspan x="59.57" y="12">illum</tspan><tspan class="cls-49" x="63.69" y="12"> </tspan><tspan x="64.21" y="12">dolo</tspan><tspan class="cls-28" x="67.91" y="12">r</tspan><tspan x="68.56" y="12">e</tspan><tspan class="cls-49" x="69.57" y="12"> </tspan><tspan class="cls-36" x="70.09" y="12">eu</tspan><tspan class="cls-50" x="72.2" y="12"> </tspan><tspan class="cls-52" x="72.72" y="12">f</tspan><tspan x="73.33" y="12">eugiat</tspan><tspan class="cls-50" x="78.62" y="12"> </tspan><tspan class="cls-51" x="79.14" y="12">nulla </tspan><tspan x="0" y="14.4">facilisis</tspan><tspan class="cls-53" x="6.34" y="14.4"> </tspan><tspan x="6.76" y="14.4">at</tspan><tspan class="cls-54" x="8.44" y="14.4"> </tspan><tspan class="cls-43" x="8.86" y="14.4">v</tspan><tspan x="9.8" y="14.4">e</tspan><tspan class="cls-44" x="10.82" y="14.4">r</tspan><tspan x="11.47" y="14.4">o</tspan><tspan class="cls-53" x="12.56" y="14.4"> </tspan><tspan x="12.98" y="14.4">e</tspan><tspan class="cls-44" x="14" y="14.4">r</tspan><tspan x="14.65" y="14.4">os</tspan><tspan class="cls-53" x="16.74" y="14.4"> </tspan><tspan x="17.16" y="14.4">et</tspan><tspan class="cls-54" x="18.8" y="14.4"> </tspan><tspan x="19.22" y="14.4">accumsan</tspan><tspan class="cls-53" x="28.34" y="14.4"> </tspan><tspan x="28.76" y="14.4">et</tspan><tspan class="cls-53" x="30.39" y="14.4"> </tspan><tspan x="30.82" y="14.4">iusto</tspan><tspan class="cls-53" x="35.03" y="14.4"> </tspan><tspan x="35.46" y="14.4">odio</tspan><tspan class="cls-55" x="39.15" y="14.4"> </tspan><tspan x="39.57" y="14.4">dignissim</tspan><tspan class="cls-53" x="47.88" y="14.4"> </tspan><tspan x="48.3" y="14.4">qui</tspan><tspan class="cls-53" x="50.9" y="14.4"> </tspan><tspan x="51.33" y="14.4">blandit</tspan><tspan class="cls-53" x="57.11" y="14.4"> </tspan><tspan x="57.53" y="14.4">praesent</tspan><tspan class="cls-53" x="65.09" y="14.4"> </tspan><tspan x="65.51" y="14.4">luptatum</tspan><tspan class="cls-53" x="73.3" y="14.4"> </tspan><tspan x="73.72" y="14.4">zzril</tspan><tspan class="cls-55" x="77.12" y="14.4"> </tspan><tspan x="77.55" y="14.4">delenit </tspan></text><circle class="cls-26" cx="240.4" cy="272.03" r="7.87"/><circle class="cls-26" cx="293.24" cy="272.03" r="7.87"/><circle class="cls-26" cx="266.53" cy="272.03" r="7.87"/><line class="cls-26" x1="339.64" y1="187.46" x2="293.24" y2="209.13"/><rect class="cls-56" x="567.11" y="67.87" width="24.63" height="128.8" transform="translate(149.2 590.03) rotate(-76.83)"/><line class="cls-26" x1="339.64" y1="243.01" x2="287.83" y2="171.81"/><rect class="cls-57" x="530.8" y="114.23" width="24.36" height="18.74" transform="translate(127.62 546.92) rotate(-76.61)"/><rect class="cls-58" x="555.14" y="120.02" width="24.36" height="18.74" transform="translate(140.68 575.05) rotate(-76.61)"/><rect class="cls-59" x="579.35" y="125.78" width="24.36" height="18.74" transform="translate(153.68 603.03) rotate(-76.61)"/><rect class="cls-60" x="603.69" y="131.58" width="24.36" height="18.74" transform="translate(166.75 631.16) rotate(-76.61)"/><line class="cls-26" x1="349.49" y1="213.79" x2="293.24" y2="272.03"/><rect class="cls-56" x="549.96" y="89.65" width="24.63" height="128.8" transform="translate(-75.9 424.36) rotate(-51.8)"/><rect class="cls-61" x="521.7" y="122.16" width="24.36" height="18.74" transform="translate(-69.04 393.45) rotate(-51.8)"/><rect class="cls-62" x="541.36" y="137.63" width="24.36" height="18.74" transform="translate(-73.7 414.8) rotate(-51.8)"/><rect class="cls-63" x="560.92" y="153.02" width="24.36" height="18.74" transform="translate(-78.33 436.05) rotate(-51.8)"/><rect class="cls-64" x="580.58" y="168.49" width="24.36" height="18.74" transform="translate(-82.99 457.4) rotate(-51.8)"/><circle class="cls-56" cx="349.19" cy="43.21" r="3.81"/><g class="cls-65"><path class="cls-66" d="M554,140.62l-.35.3-.64.53-.43-.52a1,1,0,0,0-.62-.36.72.72,0,0,0-.61.15.67.67,0,0,0-.22.33.84.84,0,0,0-1,0,.77.77,0,0,0-.26.59h0a.72.72,0,0,0-.61.15.77.77,0,0,0-.26.59.76.76,0,0,0-.62.15.89.89,0,0,0,0,1.25l.79.94-2,1.71h0l0,0h0v0h0l-.7,2a.28.28,0,0,0,.06.27.31.31,0,0,0,.25.1l2.11-.35h.08l0,0,1.24-1a2.07,2.07,0,0,0,.71.28L552,148a1.45,1.45,0,0,1,.88.51l.44.53-.17.15a.24.24,0,0,0,0,.35l2.45,2.92a.26.26,0,0,0,.35.06l3.52-3a.27.27,0,0,0,0-.36L557,146.24a.24.24,0,0,0-.35-.06l-.17.14-.49-.57a3,3,0,0,1-.49-.87,3.5,3.5,0,0,0-.62-1.17l-.15-.18.63-.53.35-.3a.76.76,0,0,0,0-1.07l-.7-.83A.77.77,0,0,0,554,140.62Zm-2.3,1a.38.38,0,0,1,0-.54.33.33,0,0,1,.26-.06.46.46,0,0,1,.26.15l.88,1.05a.38.38,0,0,1,0,.53.39.39,0,0,1-.53-.09Zm-.27,1.47-1-1.15a.37.37,0,0,1,0-.53.38.38,0,0,1,.52.09l.36.42.87,1a.37.37,0,0,1,0,.53.39.39,0,0,1-.53-.09Zm-1.84-.41a.37.37,0,0,1,0-.53.33.33,0,0,1,.26-.07.5.5,0,0,1,.27.16l.78.94-.52.44Zm-.88.74a.37.37,0,0,1,0-.53.39.39,0,0,1,.53.09l.78.94-.52.44Zm-.29,4.6-1.45.25.49-1.39A1.46,1.46,0,0,1,548.37,148.07Zm1.07-1.17.09.11.09.1-.82.69a2.13,2.13,0,0,0-1-1.25l1.19-1a2.44,2.44,0,0,0,0,.27A2.22,2.22,0,0,0,549.44,146.9Zm9.48,2.34-3.17,2.66-2.1-2.5.18-.14,2.81-2.37.18-.15ZM554.51,144a3.06,3.06,0,0,1,.52,1,3.07,3.07,0,0,0,.6,1.07l.49.58-2.47,2.07-.44-.52a2.06,2.06,0,0,0-1.22-.73l-1.23-.21a1.43,1.43,0,0,1-.63-.28,1.88,1.88,0,0,1-.25-.24l-.09-.1a1.67,1.67,0,0,1-.35-.78,1.13,1.13,0,0,1,.23-.87l.13-.13.7-.6.68-.57a1.14,1.14,0,0,1,.14.54.88.88,0,0,1-.29.66l-.53.44a.26.26,0,0,0,0,.34.28.28,0,0,0,.34.1,1.41,1.41,0,0,1,1.16-.06h0a1.91,1.91,0,0,1,.81.57l.34.39a.25.25,0,0,0,.35.06h0a.24.24,0,0,0,0-.35l-.34-.4a2.4,2.4,0,0,0-.64-.55l1.86-1.57Zm.31-1.27-2.88,2.43a2.87,2.87,0,0,0-.38-.08,1.34,1.34,0,0,0,.25-.8.69.69,0,0,0,0-.2,2.39,2.39,0,0,1,1.6-.86.89.89,0,0,0,0-1.25l-.09-.1.46-.39Zm.53-.8a.25.25,0,0,1,0,.36l-.18.14-1-1.25.18-.14a.24.24,0,0,1,.35.06Z" transform="translate(-169.39 -76.28)"/></g><g class="cls-65"><path class="cls-66" d="M615.54,134.6l-.35.3-.63.53-.44-.52a1,1,0,0,0-.61-.36.75.75,0,0,0-.62.15.77.77,0,0,0-.22.34.81.81,0,0,0-1,0,.73.73,0,0,0-.25.58h0a.76.76,0,0,0-.62.16.74.74,0,0,0-.25.58.75.75,0,0,0-.63.16.89.89,0,0,0,0,1.24l.79.94-2,1.72h0v0h0l-.7,2a.3.3,0,0,0,.05.27.28.28,0,0,0,.26.1l2.1-.35h.1l1.24-1.05a2,2,0,0,0,.72.28l1.22.21a1.52,1.52,0,0,1,.88.52l.44.52-.18.15a.24.24,0,0,0,0,.35l2.45,2.92a.26.26,0,0,0,.35.06l3.52-3a.25.25,0,0,0,0-.36l-2.45-2.91a.25.25,0,0,0-.35-.06l-.18.15-.48-.58a2.6,2.6,0,0,1-.49-.87,3.61,3.61,0,0,0-.63-1.17l-.15-.18.63-.53.36-.3a.75.75,0,0,0,0-1.06l-.7-.84A.78.78,0,0,0,615.54,134.6Zm-2.3,1.05a.39.39,0,0,1,0-.53.32.32,0,0,1,.27-.07.43.43,0,0,1,.26.16l.88,1a.35.35,0,1,1-.53.44Zm-.26,1.47L612,136a.4.4,0,0,1,0-.54.39.39,0,0,1,.53.09l.35.42.88,1a.35.35,0,1,1-.53.44Zm-1.85-.4a.4.4,0,0,1,0-.54.32.32,0,0,1,.27-.06.41.41,0,0,1,.26.15l.79.94-.53.44Zm-.88.74a.39.39,0,0,1,0-.54.38.38,0,0,1,.52.09l.79.94-.53.44Zm-.28,4.6-1.46.24.49-1.39A1.47,1.47,0,0,1,610,142.06Zm1.07-1.17.09.1.09.1-.83.69a2.13,2.13,0,0,0-1-1.25l1.19-1a2.45,2.45,0,0,0,0,.27A2.12,2.12,0,0,0,611,140.89Zm9.47,2.33-3.16,2.66-2.1-2.49.17-.15,2.82-2.37.17-.15Zm-4.4-5.23a2.81,2.81,0,0,1,.51,1,3.31,3.31,0,0,0,.61,1.08l.48.57-2.46,2.07-.44-.52a2.11,2.11,0,0,0-1.23-.73l-1.22-.2a1.48,1.48,0,0,1-.64-.29,2.61,2.61,0,0,1-.24-.23l-.09-.11a1.55,1.55,0,0,1-.35-.77,1.16,1.16,0,0,1,.22-.88,1.59,1.59,0,0,1,.13-.13l.71-.59.68-.58a1.16,1.16,0,0,1,.13.54.83.83,0,0,1-.29.66l-.53.44a.28.28,0,0,0,.32.44,1.47,1.47,0,0,1,1.17-.06h0a1.91,1.91,0,0,1,.81.57l.34.4a.26.26,0,0,0,.35.06h0a.27.27,0,0,0,0-.36l-.34-.4a2.83,2.83,0,0,0-.65-.55l1.87-1.57Zm.31-1.28-2.89,2.43a1.59,1.59,0,0,0-.38-.07,1.31,1.31,0,0,0,.26-.81,1.21,1.21,0,0,0,0-.19.8.8,0,0,0,.72-.13.76.76,0,0,0,.25-.59.78.78,0,0,0,.63-.15.9.9,0,0,0,0-1.25l-.09-.1.46-.39Zm.53-.8a.27.27,0,0,1,0,.36l-.18.15-1-1.25.17-.15a.26.26,0,0,1,.36.06Z" transform="translate(-169.39 -76.28)"/></g><path class="cls-67" d="M571.7,156.34l-5.9,7.57a1.16,1.16,0,0,0,.21,1.63l5.61,4.38a1.18,1.18,0,0,0,1.64-.2l2.23-2.87.84.66-.14.18a1.21,1.21,0,0,0-.24.86,1.19,1.19,0,0,0,.44.78.24.24,0,0,0,.33,0l2.86-3.67a.24.24,0,0,0,0-.33,1.16,1.16,0,0,0-1.63.2l-.14.19-.85-.66,2.23-2.87a1.15,1.15,0,0,0-.2-1.63l-5.62-4.38A1.17,1.17,0,0,0,571.7,156.34Zm-5.53,7.85,5.9-7.56a.69.69,0,0,1,1-.12l4.7,3.66-.66.85-4.22-3.3a.24.24,0,0,0-.33,0l-1.14,1.47a.23.23,0,0,0,0,.33l4.22,3.29-.72.92-.57-.42a14.12,14.12,0,0,0-1.58-1,1.17,1.17,0,0,0-1-1.19l-1.6-.22a.22.22,0,0,0-.21.09.21.21,0,0,0,0,.23l.61,1.49a1.17,1.17,0,0,0,1.31.71,16.45,16.45,0,0,0,1.39,1.33l.55.45-.72.92L570.33,164l-.1,0h0l-2-.41a.24.24,0,0,0-.23.09.26.26,0,0,0,0,.24l.9,1.88h0a.27.27,0,0,0,.07.08l2.75,2.15-.66.85-4.7-3.67A.7.7,0,0,1,566.17,164.19Zm9.77-1.71-4-3.14.85-1.11.37.29-.14.18a.24.24,0,1,0,.37.29l.14-.18.55.43-.14.18a.24.24,0,0,0,0,.33.23.23,0,0,0,.32,0l.15-.19.55.43-.15.18a.25.25,0,0,0,0,.33.24.24,0,0,0,.33,0l.14-.18.74.57-.14.18a.23.23,0,1,0,.36.29l.15-.18.36.28Zm-3.39.55a1.48,1.48,0,0,0,.13-.21,12.21,12.21,0,0,1,1.22.77l-.53.68a14.53,14.53,0,0,1-1.06-1A1.31,1.31,0,0,0,572.55,163Zm-.37-.28a.7.7,0,0,1-1.2-.17l-.45-1.12,1.19.16A.7.7,0,0,1,572.18,162.75Zm1.54,1.82.56-.71.38.28-.58.73Zm-1.21,2.32-2.57-2,.29-.37,2.57,2Zm-.57.73-2.57-2,.28-.37,2.57,2Zm-2.85-2.4-.54-1.12,1.22.25Zm10,.32-2.53,3.25a.63.63,0,0,1-.1-.29.65.65,0,0,1,.14-.52l1.72-2.2A.7.7,0,0,1,579.05,165.54Zm-1.57.5-.86,1.1-.84-.65.85-1.11Zm1.31-4.17-5.9,7.56a.7.7,0,0,1-1,.12l-.55-.43,6.75-8.66.56.43A.71.71,0,0,1,578.79,161.87Z" transform="translate(-169.39 -76.28)"/><path class="cls-67" d="M565.13,122.39l-5.9,7.57a1.16,1.16,0,0,0,.21,1.63l5.61,4.38a1.17,1.17,0,0,0,1.64-.2l2.23-2.86.84.65-.14.19a1.15,1.15,0,0,0-.24.86,1.19,1.19,0,0,0,.44.77.24.24,0,0,0,.33,0l2.86-3.67a.24.24,0,0,0,0-.33,1.17,1.17,0,0,0-1.63.2l-.15.19-.84-.66,2.23-2.86a1.16,1.16,0,0,0-.2-1.64l-5.62-4.38A1.17,1.17,0,0,0,565.13,122.39Zm-5.53,7.85,5.9-7.56a.7.7,0,0,1,1-.12l4.7,3.66-.66.85-4.22-3.29a.24.24,0,0,0-.33,0l-1.15,1.47a.23.23,0,0,0,0,.32l4.23,3.29-.72.92-.57-.42a14.12,14.12,0,0,0-1.58-1,1.15,1.15,0,0,0-1-1.18l-1.6-.23a.25.25,0,0,0-.22.09.24.24,0,0,0,0,.23l.61,1.5a1.16,1.16,0,0,0,1.31.7,16.45,16.45,0,0,0,1.39,1.33l.55.45-.72.92-2.75-2.15a.18.18,0,0,0-.1,0h0l-2-.41a.22.22,0,0,0-.23.08.21.21,0,0,0,0,.24l.9,1.88h0l.07.08,2.75,2.14-.66.85-4.7-3.67A.7.7,0,0,1,559.6,130.24Zm9.77-1.7-4-3.15.86-1.1.37.28-.14.19a.23.23,0,0,0,.36.28l.15-.18.55.43-.14.18a.23.23,0,0,0,0,.33.23.23,0,0,0,.32,0l.15-.19.55.43-.15.19a.22.22,0,0,0,0,.32.23.23,0,0,0,.33,0l.14-.18.74.57-.15.19a.23.23,0,0,0,.37.28l.14-.18.37.29Zm-3.4.54a.77.77,0,0,0,.14-.21c.24.14.67.39,1.22.77l-.53.68a14.53,14.53,0,0,1-1.06-1A.84.84,0,0,0,566,129.08Zm-.36-.28a.7.7,0,0,1-1.2-.17l-.46-1.12,1.2.17A.7.7,0,0,1,565.61,128.8Zm1.54,1.83.56-.72.37.28-.57.73Zm-1.21,2.31-2.57-2,.28-.37,2.57,2Zm-.57.74-2.57-2,.28-.36,2.57,2Zm-2.85-2.41-.54-1.12,1.22.25Zm10,.33L570,134.84a.79.79,0,0,1-.11-.29A.7.7,0,0,1,570,134l1.71-2.2A.71.71,0,0,1,572.48,131.6Zm-1.57.49-.86,1.11-.85-.66.86-1.1Zm1.31-4.17-5.9,7.56a.69.69,0,0,1-1,.12l-.55-.43,6.75-8.66.55.43A.7.7,0,0,1,572.22,127.92Z" transform="translate(-169.39 -76.28)"/><g class="cls-65"><path class="cls-66" d="M534.29,128l-1-2.06a.18.18,0,0,0-.16-.12.19.19,0,0,0-.17.12l-1,2.06a.58.58,0,0,0,0,.18v9.93c0,.62.35,1.14.78,1.14h.88c.42,0,.77-.52.77-1.14v-9.93A.39.39,0,0,0,534.29,128Zm-1.17-1.36.62,1.29h-1.25Zm-.8,1.9h1v7.88h-.36v-5.82c0-.16-.1-.3-.21-.3s-.21.14-.21.3v5.82h-.2V128.5Zm1.6,9.57c0,.29-.16.53-.36.53h-.88c-.2,0-.36-.24-.36-.53V137h1.6Zm0-1.69h-.21V128.5h.21Z" transform="translate(-169.39 -76.28)"/></g><g class="cls-65"><path class="cls-66" d="M591.78,130.36l-1-2.06a.17.17,0,0,0-.33,0l-1,2.06a.53.53,0,0,0,0,.18v9.92c0,.63.35,1.14.77,1.14h.89c.42,0,.77-.51.77-1.14v-9.92A.37.37,0,0,0,591.78,130.36ZM590.61,129l.62,1.28H590Zm-.8,1.89h1v7.88h-.36V133c0-.17-.1-.3-.21-.3s-.21.13-.21.3v5.81h-.2v-7.88Zm1.6,9.57c0,.3-.17.53-.36.53h-.89c-.19,0-.35-.23-.35-.53v-1.08h1.6Zm0-1.69h-.21v-7.88h.21Z" transform="translate(-169.39 -76.28)"/></g></svg>