<svg id="Calque_1" data-name="Calque 1" xmlns="http://www.w3.org/2000/svg" viewBox="0 0 498.27 488.32"><defs><style>.cls-1{fill:#f9b014;}.cls-1,.cls-2{opacity:0.33;}.cls-2{fill:#da6d42;}.cls-14,.cls-3,.cls-38,.cls-44,.cls-8{fill:none;}.cls-16,.cls-3,.cls-35,.cls-37,.cls-38,.cls-4,.cls-43{stroke:#000;}.cls-14,.cls-15,.cls-16,.cls-3,.cls-35,.cls-37,.cls-38,.cls-4,.cls-43,.cls-44,.cls-8{stroke-miterlimit:10;}.cls-3,.cls-35,.cls-4,.cls-44{stroke-width:2px;}.cls-5{fill:#fff;}.cls-6{fill:#a5a5a5;}.cls-7{fill:#b2b2b2;}.cls-8{stroke:#0c0c0c;stroke-width:0.75px;}.cls-9{fill:#ffaf82;}.cls-10,.cls-11{fill:#4c2606;}.cls-11,.cls-21{fill-rule:evenodd;}.cls-12{fill:#27326d;}.cls-13{fill:#1e1e1e;}.cls-14{stroke:#1b2654;stroke-width:5px;}.cls-15{stroke:gray;}.cls-17{fill:#d8d8d8;}.cls-18{fill:#ff3b3b;}.cls-19{fill:#eaeaea;}.cls-20{fill:#f9a073;}.cls-21{fill:#c62118;}.cls-22{fill:#28160a;}.cls-23{fill:#99c7e0;}.cls-24{fill:#6d6d6d;}.cls-25{fill:#76c6e5;}.cls-26{fill:#b4f460;}.cls-27{fill:#f4b831;}.cls-28{fill:#c739ea;}.cls-29{fill:#e48ff2;}.cls-30{fill:#6c4272;}.cls-31{fill:#7f7f7f;}.cls-32{fill:#8fdff7;}.cls-33{fill:#929293;}.cls-34{fill:#5a5a5b;}.cls-35{fill:#020202;}.cls-36,.cls-37{fill:#262626;}.cls-39{fill:#61acf7;}.cls-40{fill:#347f44;}.cls-41{fill:#774589;}.cls-42{fill:#5e5e5e;}.cls-43{fill:#070707;}.cls-44{stroke:#5089dd;}.cls-45{fill:#bfbfc1;}.cls-46{fill:#cc2121;}.cls-47{fill:#f2cd30;}.cls-48{fill:#53a022;}</style></defs><title>ill3</title><path class="cls-1" d="M549.79,337.64c-53.33-4.55-101,9.51-140.75-32.67s-111.82-79.34-66-127.92,84.48-2.15,82.38-95.55,155.46,11.32,160.85,33.6,108.6,53.06,94.37,98.16S599.11,341.85,549.79,337.64Z" transform="translate(-183.67 -43.36)"/><path class="cls-2" d="M260.41,207.72C327.32,177.42,375,128.6,450.86,152.5S638,172.56,615.69,261.43,516,320.63,581.08,431.07s-193.76,90.66-215.15,67.58-165.62,9.26-178.81-54.3S198.52,235.74,260.41,207.72Z" transform="translate(-183.67 -43.36)"/><rect x="439.09" y="355.95" width="102.52" height="61.61" transform="translate(797.03 730.16) rotate(-180)"/><rect x="541.61" y="361.38" width="9.37" height="50.28" transform="translate(908.92 729.66) rotate(-180)"/><polygon points="373.71 361.88 367.31 361.88 367.31 322.94 373.71 322.94 373.71 327.06 373.71 361.88"/><polygon points="400.18 313.33 373.71 334.46 373.71 353.22 400.18 370.88 400.18 313.33"/><line class="cls-3" x1="337.24" y1="374.2" x2="376.67" y2="487.08"/><line class="cls-3" x1="310.13" y1="488.06" x2="337.24" y2="374.2"/><line class="cls-3" x1="285.98" y1="374.2" x2="306.68" y2="487.57"/><line class="cls-3" x1="255.42" y1="488.06" x2="285.98" y2="374.2"/><rect class="cls-4" x="509.57" y="464.89" width="28.1" height="1.97" transform="translate(863.57 888.38) rotate(-180)"/><rect class="cls-4" x="456.34" y="465.87" width="22.67" height="1.97" transform="translate(751.68 890.35) rotate(-180)"/><circle class="cls-4" cx="333.54" cy="297.56" r="20.46"/><circle class="cls-4" cx="287.7" cy="290.66" r="25.38"/><circle class="cls-5" cx="303.56" cy="290.51" r="6.97"/><circle class="cls-5" cx="287.62" cy="275.24" r="6.97"/><circle class="cls-5" cx="287.62" cy="305.79" r="6.97"/><circle class="cls-5" cx="270.36" cy="290.51" r="6.97"/><circle class="cls-5" cx="333.77" cy="282.21" r="3.32"/><circle class="cls-5" cx="333.77" cy="312.76" r="3.32"/><circle class="cls-5" cx="318.5" cy="296.82" r="3.32"/><circle class="cls-5" cx="350.37" cy="297.49" r="3.32"/><circle class="cls-5" cx="323.15" cy="286.86" r="3.32"/><circle class="cls-5" cx="345.06" cy="287.52" r="3.32"/><circle class="cls-5" cx="345.06" cy="306.78" r="3.32"/><circle class="cls-5" cx="322.48" cy="308.11" r="3.32"/><circle class="cls-6" cx="333.77" cy="297.49" r="3.32"/><circle class="cls-6" cx="287.95" cy="290.18" r="3.32"/><rect class="cls-7" x="449.05" y="369.4" width="29.22" height="34.53" transform="translate(743.64 729.97) rotate(-180)"/><line class="cls-8" x1="289.61" y1="332.68" x2="289.61" y2="337.99"/><line class="cls-8" x1="271.02" y1="337.66" x2="289.61" y2="337.66"/><line class="cls-8" x1="271.02" y1="332.68" x2="271.02" y2="337.99"/><line class="cls-8" x1="289.61" y1="341.98" x2="289.61" y2="347.29"/><line class="cls-8" x1="271.02" y1="346.96" x2="289.61" y2="346.96"/><line class="cls-8" x1="271.02" y1="341.98" x2="271.02" y2="347.29"/><line class="cls-8" x1="289.61" y1="350.61" x2="289.61" y2="355.92"/><line class="cls-8" x1="271.02" y1="355.59" x2="289.61" y2="355.59"/><line class="cls-8" x1="271.02" y1="350.61" x2="271.02" y2="355.92"/><rect x="430.34" y="237.22" width="53.26" height="32.09" transform="translate(-239.74 111.12) rotate(-18.1)"/><path d="M477,230.38l9.66,29.55L437,276.16l-9.66-29.55L477,230.38m.64-1.27L426,246l10.28,31.46,51.57-16.86-10.28-31.46Z" transform="translate(-183.67 -43.36)"/><rect class="cls-5" x="427.08" y="244.58" width="54.26" height="0.5" transform="translate(-237.25 109.85) rotate(-18.1)"/><rect x="419.39" y="223.72" width="53.26" height="6.65" transform="translate(-232.57 258.12) rotate(-35.53)"/><path d="M465.65,209.56l3.28,4.6L426.4,244.53l-3.28-4.59,42.53-30.38m.23-1.39L421.72,239.7l4.45,6.23,44.15-31.54-4.44-6.22Z" transform="translate(-183.67 -43.36)"/><polygon class="cls-5" points="242.49 193.17 242.5 202.56 247.59 198.93 247.5 189.59 242.49 193.17"/><polygon class="cls-5" points="254.16 184.84 254.16 194.23 259.25 190.6 259.17 181.26 254.16 184.84"/><polygon class="cls-5" points="266.08 176.32 266.09 185.71 271.18 182.08 271.1 172.74 266.08 176.32"/><polygon class="cls-5" points="277.2 168.38 277.21 177.78 282.3 174.14 282.21 164.81 277.2 168.38"/><polygon class="cls-5" points="248.22 200.69 255.78 206.27 249.84 208.21 242.37 202.61 248.22 200.69"/><polygon class="cls-5" points="261.9 196.22 269.45 201.8 263.51 203.74 256.04 198.14 261.9 196.22"/><polygon class="cls-5" points="275.79 191.69 283.34 197.26 277.4 199.2 269.93 193.6 275.79 191.69"/><polygon class="cls-5" points="288.76 187.44 296.32 193.02 290.38 194.96 282.91 189.36 288.76 187.44"/><path class="cls-9" d="M419.68,263.21a62.79,62.79,0,0,0,4.25-5.71c1.65-2.62,1.29-.85,3-2.89s3.75,1.47,1.1,3.3c-2.25,1.55.69-1.05,0,0-.31.48,6.54-1.68,8.22-2.5s5.39-3.69,6.39-3.49-.29,3-4.65,5.24-4.06,2.47-4.06,2.47l3.79-1.34a21.71,21.71,0,0,0,5.15-2.87c1.11-.84,2.46,0,2.07.74s-4.08,3.95-6,4.5-5,1.75-5,1.75,4.67-.8,5.78-1.15,4.41-3.12,5.6-2.72c.49.17.84,1.5-4.39,4.63a33.28,33.28,0,0,1-4.63,1.71,10.89,10.89,0,0,0,3.52-.5,30.29,30.29,0,0,0,4.62-2c1.46-.77,2.06.55-.38,2.14s-5.39,2.92-7.14,3.07-10,4.08-14.09,3.85Z" transform="translate(-183.67 -43.36)"/><rect class="cls-10" x="123.19" y="148.41" width="65.34" height="54.31" rx="2.58" ry="2.58"/><path class="cls-11" d="M339.85,247.74c-46.87,0-40.7-112.75-.25-95.68C378.21,131.8,388.59,247.74,339.85,247.74Z" transform="translate(-183.67 -43.36)"/><path class="cls-12" d="M318.79,452.57l8.27-38.2s-7.89-31.32-24.15-31.56c0,0-5.46,55.44-4.82,69.29" transform="translate(-183.67 -43.36)"/><line class="cls-9" x1="109.52" y1="476.23" x2="125.74" y2="475.51"/><path class="cls-12" d="M326.34,417.69C326.53,440.25,310,487,306.4,522l-11.21,1,2.9-70.91" transform="translate(-183.67 -43.36)"/><path class="cls-12" d="M380.63,446.68l1.92,75.23-10.82.19c-3.63-35-18.77-85.35-18.59-107.91" transform="translate(-183.67 -43.36)"/><path class="cls-12" d="M359.38,447.39l-12.07-62.57s9.46-16.82,26.21-17.06c0,0,7.84,65.31,7.18,79.15" transform="translate(-183.67 -43.36)"/><line class="cls-9" x1="202.08" y1="476.23" x2="185.37" y2="475.51"/><polygon class="cls-9" points="112 464.97 111.4 471.58 123.48 472.95 124.65 464.97 112 464.97"/><path d="M294,516.52c.34-3.47,4.62-5.36,9-4.49s4.78,6,4.78,6,5.22,3.36,6.36,9.31c0,.13.06.26.08.4.17,1.1-.89,2.1-2.4,2.29a88.92,88.92,0,0,1-22,0c-1.49-.2-2.53-1.2-2.33-2.31a.49.49,0,0,1,0-.12c.48-2.63,1.47-7.45,5.92-9.24Z" transform="translate(-183.67 -43.36)"/><path class="cls-5" d="M295.64,520.52l-.38-.64c.26-.08,6.56-2,11.14.13l-.52.58C301.72,518.63,295.7,520.5,295.64,520.52Z" transform="translate(-183.67 -43.36)"/><path class="cls-5" d="M296.43,520.43a1.1,1.1,0,0,1-1.24.64c-.59-.07-1-.48-.88-.9a1.08,1.08,0,0,1,1.23-.64C296.13,519.6,296.53,520,296.43,520.43Z" transform="translate(-183.67 -43.36)"/><path class="cls-5" d="M307.24,520.24a1.08,1.08,0,0,1-1.23.64c-.59-.07-1-.47-.89-.9a1.1,1.1,0,0,1,1.24-.64C307,519.41,307.34,519.82,307.24,520.24Z" transform="translate(-183.67 -43.36)"/><path class="cls-5" d="M295.75,518.56l-.38-.63c.26-.09,6.55-2,11.14.13l-.52.58C301.83,516.67,295.81,518.54,295.75,518.56Z" transform="translate(-183.67 -43.36)"/><path class="cls-5" d="M296.54,518.47a1.09,1.09,0,0,1-1.24.64c-.59-.07-1-.47-.88-.89a1.07,1.07,0,0,1,1.23-.64C296.24,517.65,296.64,518.05,296.54,518.47Z" transform="translate(-183.67 -43.36)"/><path class="cls-5" d="M307.35,518.29a1.08,1.08,0,0,1-1.23.64c-.59-.08-1-.48-.89-.9a1.1,1.1,0,0,1,1.24-.64C307.06,517.46,307.45,517.86,307.35,518.29Z" transform="translate(-183.67 -43.36)"/><path class="cls-5" d="M295.64,522.46l-.38-.63c.26-.08,6.56-2,11.14.13l-.52.58C301.72,520.58,295.7,522.44,295.64,522.46Z" transform="translate(-183.67 -43.36)"/><path class="cls-5" d="M296.43,522.37a1.09,1.09,0,0,1-1.24.64c-.59-.07-1-.47-.88-.89a1.07,1.07,0,0,1,1.23-.64C296.13,521.55,296.53,522,296.43,522.37Z" transform="translate(-183.67 -43.36)"/><path class="cls-5" d="M307.24,522.19a1.08,1.08,0,0,1-1.23.64c-.59-.07-1-.47-.89-.9a1.1,1.1,0,0,1,1.24-.64C307,521.36,307.34,521.76,307.24,522.19Z" transform="translate(-183.67 -43.36)"/><path class="cls-5" d="M303.57,514.26a11.82,11.82,0,0,0-6,.18,1.65,1.65,0,0,0,0,1.59,30.61,30.61,0,0,1,6.07-.1A1.81,1.81,0,0,0,303.57,514.26Z" transform="translate(-183.67 -43.36)"/><path class="cls-5" d="M311.77,530a88.92,88.92,0,0,1-22,0c-1.49-.2-2.53-1.2-2.33-2.31a.49.49,0,0,1,0-.12,66,66,0,0,0,26.69-.3c0,.13.06.26.08.4C314.34,528.84,313.28,529.84,311.77,530Z" transform="translate(-183.67 -43.36)"/><polygon class="cls-9" points="198.57 465.5 199.66 472.11 187.57 473.48 186.4 465.5 198.57 465.5"/><path d="M370.31,516.37c.35-3.47,4.63-5.36,9-4.49s4.79,6,4.79,6,5.22,3.36,6.36,9.31c0,.13.05.26.07.4.18,1.1-.89,2.11-2.39,2.29a88.92,88.92,0,0,1-22.05,0c-1.5-.2-2.53-1.2-2.34-2.3,0,0,0-.09,0-.13.48-2.63,1.46-7.45,5.91-9.24Z" transform="translate(-183.67 -43.36)"/><path class="cls-5" d="M372,520.37l-.38-.64c.27-.08,6.56-2,11.14.13l-.52.58C378.08,518.48,372.06,520.35,372,520.37Z" transform="translate(-183.67 -43.36)"/><path class="cls-5" d="M372.79,520.28a1.1,1.1,0,0,1-1.24.64c-.58-.07-1-.47-.88-.9a1.1,1.1,0,0,1,1.24-.64C372.49,519.45,372.89,519.85,372.79,520.28Z" transform="translate(-183.67 -43.36)"/><path class="cls-5" d="M383.61,520.09a1.09,1.09,0,0,1-1.24.64c-.59-.07-1-.47-.88-.89a1.06,1.06,0,0,1,1.23-.64C383.31,519.27,383.71,519.67,383.61,520.09Z" transform="translate(-183.67 -43.36)"/><path class="cls-5" d="M372.11,518.41l-.38-.63c.27-.09,6.56-2,11.14.13l-.52.58C378.19,516.53,372.17,518.39,372.11,518.41Z" transform="translate(-183.67 -43.36)"/><path class="cls-5" d="M372.9,518.32a1.09,1.09,0,0,1-1.24.64c-.58-.07-1-.47-.88-.89a1.09,1.09,0,0,1,1.24-.64C372.6,517.5,373,517.9,372.9,518.32Z" transform="translate(-183.67 -43.36)"/><path class="cls-5" d="M383.72,518.14a1.1,1.1,0,0,1-1.24.64c-.59-.07-1-.47-.89-.9a1.1,1.1,0,0,1,1.24-.64C383.42,517.31,383.81,517.71,383.72,518.14Z" transform="translate(-183.67 -43.36)"/><path class="cls-5" d="M372,522.31l-.38-.63c.27-.08,6.56-2,11.14.13l-.52.58C378.08,520.43,372.06,522.3,372,522.31Z" transform="translate(-183.67 -43.36)"/><path class="cls-5" d="M372.79,522.23a1.1,1.1,0,0,1-1.24.64c-.58-.08-1-.48-.88-.9a1.1,1.1,0,0,1,1.24-.64C372.49,521.4,372.89,521.8,372.79,522.23Z" transform="translate(-183.67 -43.36)"/><path class="cls-5" d="M383.61,522a1.1,1.1,0,0,1-1.24.64c-.59-.07-1-.47-.88-.9a1.08,1.08,0,0,1,1.23-.64C383.31,521.21,383.71,521.61,383.61,522Z" transform="translate(-183.67 -43.36)"/><path class="cls-5" d="M379.93,514.11a12,12,0,0,0-6,.18,1.68,1.68,0,0,0,0,1.59,30.61,30.61,0,0,1,6.07-.1A1.82,1.82,0,0,0,379.93,514.11Z" transform="translate(-183.67 -43.36)"/><path class="cls-5" d="M388.14,529.88a88.92,88.92,0,0,1-22.05,0c-1.5-.2-2.53-1.2-2.34-2.3,0,0,0-.09,0-.13a65.81,65.81,0,0,0,26.69-.3c0,.13.05.26.07.4C390.71,528.69,389.64,529.7,388.14,529.88Z" transform="translate(-183.67 -43.36)"/><circle class="cls-13" cx="134.11" cy="215.49" r="6.76"/><circle class="cls-13" cx="176.34" cy="215.96" r="6.76"/><path class="cls-13" d="M372.6,339.71c-6.55,3.55-13.26,17.67-19.36,19.24-4.58,1.2-9.37-12.91-14.19-12.94-4.27,0-8.12,14.26-12.11,13.34-6.53-1.52-12.95-14.5-20.08-18.37l8.8-48.17h0l-6.39-67.11,5.48-1.53,11.1-3.08h0c1,0,10.56-2.51,13.38-2.54a32.91,32.91,0,0,1,8.4,1.16l5.61,1.57,16,4.42-7.07,67.43Z" transform="translate(-183.67 -43.36)"/><path class="cls-12" d="M314.37,298.44s-7.87,35.57-9,46.33-2.43,38-2.43,38l24.15,31.56,12-65.78,14.09,65.6,21.57-3.44s2-53.26-2.11-71-8.67-41.27-8.67-41.27Z" transform="translate(-183.67 -43.36)"/><polygon points="130.42 256 129.72 259.12 181.09 259.12 180.38 256 130.42 256"/><line class="cls-14" x1="155.53" y1="294.4" x2="156.02" y2="259.12"/><rect class="cls-15" x="152.17" y="256" width="7.71" height="3.12"/><path class="cls-16" d="M316.65,261.33s22.51,12.38,44.85,0C361.5,261.33,340.12,270.09,316.65,261.33Z" transform="translate(-183.67 -43.36)"/><path class="cls-17" d="M438.35,106.11s8.31-50.92,54-25.6c0,0,29.73-39.41,57.82,1.69,0,0,39.16-50.33,71,18.58,0,0,15.41-20.12,36.89.75s-13.29,34.79-13.29,34.79,10.22,45.59-56.13,20.05c0,0-20.77,39.37-68.85,2.5,0,0-23.72,48.54-75.62,12.47C384.94,130.19,438.35,106.11,438.35,106.11Z" transform="translate(-183.67 -43.36)"/><path class="cls-9" d="M284.89,342.57a65.9,65.9,0,0,0,2.4,7.22c1.29,3,.26,5.32,1,8.06s-2.51,2.42-3.05-.44-.22-4.19-.81-4.3-2.53,6.75-2.84,8.73-.06,7-.84,7.72-2.49-2.11-1.75-7.27.33-5.06.33-5.06-.56,2-1.15,4.14a23.52,23.52,0,0,0-.64,6.26c0,1.47-1.49,2.16-1.91,1.35s-1-6-.29-8,1.52-5.42,1.52-5.42-2.15,4.56-2.53,5.75,0,5.77-1.05,6.56c-.44.33-1.82-.17-1.37-6.67a36.86,36.86,0,0,1,1.34-5.1,11.61,11.61,0,0,0-1.71,3.39,32.13,32.13,0,0,0-1,5.29c-.21,1.75-1.74,1.47-1.64-1.64s.74-6.5,1.67-8.12,2.54-11.23,5.25-14.69Z" transform="translate(-183.67 -43.36)"/><path class="cls-13" d="M376.9,276.53c10.43-4.71,43.77-14.36,43.77-14.36,4.1,3.2,3.14,9.61,3.14,9.61-29.36,15.41-36,18.38-36,18.38Z" transform="translate(-183.67 -43.36)"/><path class="cls-18" d="M350.3,316.88" transform="translate(-183.67 -43.36)"/><path class="cls-19" d="M435.09,101.51s8.31-50.92,54-25.6c0,0,29.73-39.41,57.82,1.69,0,0,39.16-50.33,71,18.58,0,0,15.41-20.12,36.89.75s-13.29,34.79-13.29,34.79,10.22,45.59-56.13,20.05c0,0-20.77,39.37-68.85,2.5,0,0-23.72,48.54-75.62,12.47C381.68,125.59,435.09,101.51,435.09,101.51Z" transform="translate(-183.67 -43.36)"/><path class="cls-13" d="M286.81,281c-4,14.32-11.25,59.27-11.25,59.27,3.49,4.83,9.83,2.57,9.83,2.57,13.34-40.66,17.34-57.27,17.34-57.27Z" transform="translate(-183.67 -43.36)"/><path class="cls-18" d="M325.29,240" transform="translate(-183.67 -43.36)"/><path class="cls-13" d="M286.59,281.4s17.3-49.35,22.76-55.6c0,0,8,3.52,8.43,14.36,0,0-8.62,34.12-15.28,45.81C302.5,286,289.08,299.54,286.59,281.4Z" transform="translate(-183.67 -43.36)"/><path class="cls-18" d="M275.33,340.67" transform="translate(-183.67 -43.36)"/><path class="cls-13" d="M392,281.4s-17.3-49.35-22.76-55.6c0,0-8,3.52-8.43,14.36,0,0,8.62,34.12,15.28,45.81C376,286,389.45,299.54,392,281.4Z" transform="translate(-183.67 -43.36)"/><path class="cls-18" d="M403.2,340.67" transform="translate(-183.67 -43.36)"/><path class="cls-9" d="M349.32,205.22l-.32,7.17-.41,9s-1.54,3.38-8.44,3.38-8.33-2.31-8.33-2.31l-.28-4-.93-13.24Z" transform="translate(-183.67 -43.36)"/><path class="cls-20" d="M349.32,205.22l-.32,6.15c-2.89,2.16-9.71,6.4-17.46,5.21l-.93-11.36Z" transform="translate(-183.67 -43.36)"/><path class="cls-9" d="M320.2,182.5s-3.73-5-6.71-1.74c-3.52,3.85.16,17.71,6.4,16.24Z" transform="translate(-183.67 -43.36)"/><path class="cls-20" d="M318,193.55a.73.73,0,0,1-.59-.77c-.41-6.82-3.32-8-3.45-8.05a.92.92,0,0,1-.43-1c.09-.45.42-.71.75-.6.16.06,3.88,1.47,4.36,9.55,0,.47-.23.88-.57.91Z" transform="translate(-183.67 -43.36)"/><path class="cls-20" d="M314.53,190.08a.56.56,0,0,1-.4-.23,1.09,1.09,0,0,1,0-1.2,3,3,0,0,1,3.33-1.15.92.92,0,0,1,.45,1c-.09.45-.42.72-.75.61a1.89,1.89,0,0,0-2.13.68A.55.55,0,0,1,314.53,190.08Z" transform="translate(-183.67 -43.36)"/><path class="cls-9" d="M358,182.5s3.73-5,6.71-1.74c3.52,3.85-.16,17.71-6.41,16.24Z" transform="translate(-183.67 -43.36)"/><path class="cls-20" d="M360.17,193.55c.31,0,.57-.34.6-.77.4-6.82,3.32-8,3.44-8.05a.94.94,0,0,0,.44-1c-.09-.45-.42-.71-.75-.6-.16.06-3.89,1.47-4.36,9.55,0,.47.22.88.56.91Z" transform="translate(-183.67 -43.36)"/><path class="cls-20" d="M363.66,190.08a.6.6,0,0,0,.41-.23,1.07,1.07,0,0,0,0-1.2,3,3,0,0,0-3.33-1.15.9.9,0,0,0-.44,1c.08.45.42.72.75.61a1.89,1.89,0,0,1,2.13.68A.52.52,0,0,0,363.66,190.08Z" transform="translate(-183.67 -43.36)"/><path class="cls-9" d="M339.34,213.36c-17.09,0-22.36-20.3-23.94-35.17a23.46,23.46,0,0,1,23-25.95h1.24a23.49,23.49,0,0,1,23,25.5C361.34,192.8,356.43,213.36,339.34,213.36Z" transform="translate(-183.67 -43.36)"/><path class="cls-20" d="M339.9,194.18a1,1,0,0,1-.75-.42.8.8,0,0,1,.3-1.19l2.21-1.18a.28.28,0,0,0-.07-.52h0a3.32,3.32,0,0,1-2.35-2.77l-.35-4.12c0-.48.5-.27,1-.3s.88-.25.92.23l.49,4.57a1.61,1.61,0,0,0,.46.64l1,.36a1.39,1.39,0,0,1,1,1.52c-.17,1-.34.82-1.05,1.33l-2.18,1.73A1,1,0,0,1,339.9,194.18Z" transform="translate(-183.67 -43.36)"/><polygon class="cls-13" points="147.59 173.22 165.36 172.88 164.78 181 151.34 187.66 148.15 179.08 147.59 173.22"/><path class="cls-11" d="M315.56,179.54s24.45-13.65,18-27.3c0,0-22,3.77-18.23,26C315.38,178.64,315.46,179.09,315.56,179.54Z" transform="translate(-183.67 -43.36)"/><path class="cls-11" d="M330.61,153s2.11,14.91,39.32,31.59L357.71,153S347.46,142.48,330.61,153Z" transform="translate(-183.67 -43.36)"/><path class="cls-11" d="M356,177.62s9.29,23.47,12.4,23.49l-1.22-23.49Z" transform="translate(-183.67 -43.36)"/><path class="cls-21" d="M333.54,201.82c3.47-1,8.91-.79,12.41-.37C343.57,202.82,336.54,203,333.54,201.82Z" transform="translate(-183.67 -43.36)"/><path class="cls-21" d="M333.54,201.82c3,3.86,10.16,2.82,12.41-.37C343.72,207.36,335.87,207.82,333.54,201.82Z" transform="translate(-183.67 -43.36)"/><path d="M328.1,180.7a3.76,3.76,0,0,1-2.05-1.72" transform="translate(-183.67 -43.36)"/><path d="M327.87,181a3.8,3.8,0,0,1-2.05-1.72" transform="translate(-183.67 -43.36)"/><path d="M328.49,180.41a3.8,3.8,0,0,1-2.05-1.72" transform="translate(-183.67 -43.36)"/><path d="M327,181.55a3.8,3.8,0,0,1-2.05-1.72" transform="translate(-183.67 -43.36)"/><path d="M326.77,181.85a3.76,3.76,0,0,1-2-1.72" transform="translate(-183.67 -43.36)"/><path d="M327.38,181.27a3.75,3.75,0,0,1-2-1.73" transform="translate(-183.67 -43.36)"/><path class="cls-22" d="M331.37,182.37c0,1.76-.95,3.19-2.11,3.19s-2.2-1-3.2-2.59c-1.81-2.82,2.43-2.93,3.6-2.93S331.37,180.61,331.37,182.37Z" transform="translate(-183.67 -43.36)"/><path d="M351.73,181.54a3.76,3.76,0,0,0,2-1.72" transform="translate(-183.67 -43.36)"/><path d="M352,181.84a3.76,3.76,0,0,0,2.05-1.72" transform="translate(-183.67 -43.36)"/><path d="M351.34,181.26a3.76,3.76,0,0,0,2.05-1.72" transform="translate(-183.67 -43.36)"/><path d="M350.71,180.69a3.76,3.76,0,0,0,2.05-1.72" transform="translate(-183.67 -43.36)"/><path d="M350.94,181a3.8,3.8,0,0,0,2.05-1.72" transform="translate(-183.67 -43.36)"/><path d="M350.32,180.41a3.79,3.79,0,0,0,2.05-1.73" transform="translate(-183.67 -43.36)"/><path class="cls-22" d="M347.4,182.09c0,1.76,1,3.19,2.11,3.19s2.2-1,3.2-2.6c1.81-2.81-2.43-2.93-3.6-2.93S347.4,180.32,347.4,182.09Z" transform="translate(-183.67 -43.36)"/><path class="cls-10" d="M344.53,177.88c.18.37.33,1,.78.75,1.51-.82,4.88-2.35,7.62-1.32a9.86,9.86,0,0,1,3.11,2.53,5.82,5.82,0,0,0-5.38-3.9,13.79,13.79,0,0,0-5.81,1.58C344.65,177.63,344.43,177.7,344.53,177.88Z" transform="translate(-183.67 -43.36)"/><path class="cls-10" d="M333.82,177.88c-.18.37-.34,1-.78.75-1.51-.82-4.88-2.35-7.62-1.32a9.86,9.86,0,0,0-3.11,2.53,5.8,5.8,0,0,1,5.37-3.9,13.7,13.7,0,0,1,5.81,1.58C333.69,177.63,333.91,177.7,333.82,177.88Z" transform="translate(-183.67 -43.36)"/><rect class="cls-23" x="297.62" y="47.56" width="101.41" height="57.1"/><rect class="cls-24" x="328.53" y="100.38" width="42.6" height="4.29" rx="2.15" ry="2.15"/><rect class="cls-25" x="346.91" y="101.23" width="2.75" height="2.75"/><rect class="cls-26" x="351.38" y="101.23" width="2.75" height="2.75"/><rect class="cls-27" x="356.01" y="101.23" width="2.75" height="2.75"/><rect class="cls-28" x="360.82" y="101.23" width="2.75" height="2.75"/><rect class="cls-29" x="365.29" y="101.23" width="2.75" height="2.75"/><rect class="cls-30" x="342.27" y="101.23" width="2.75" height="2.75"/><circle class="cls-31" cx="333.34" cy="102.61" r="1.72"/><circle class="cls-32" cx="338.49" cy="102.61" r="1.72"/><rect class="cls-33" x="297.62" y="47.56" width="101.52" height="3.28"/><rect class="cls-34" x="297.62" y="53.22" width="30.93" height="47.16"/><rect class="cls-34" x="328.55" y="53.22" width="70.48" height="47.16"/><line class="cls-35" x1="333.84" y1="53.22" x2="333.84" y2="81.14"/><line class="cls-35" x1="399.04" y1="81.14" x2="297.62" y2="81.14"/><line class="cls-35" x1="318.98" y1="81.14" x2="318.98" y2="100.38"/><line class="cls-35" x1="392.16" y1="81.14" x2="392.16" y2="100.38"/><rect class="cls-36" x="300.32" y="84.84" width="6.82" height="6.82"/><rect class="cls-36" x="308.88" y="84.84" width="6.82" height="6.82"/><rect class="cls-36" x="300.32" y="92.87" width="6.82" height="6.82"/><rect class="cls-36" x="308.88" y="92.87" width="6.82" height="6.82"/><rect class="cls-36" x="317.56" y="84.84" width="0.42" height="7.67" rx="0.21" ry="0.21"/><rect class="cls-36" x="298.15" y="82.04" width="19.83" height="1.27"/><rect class="cls-36" x="321.84" y="82.46" width="67.84" height="16.76"/><rect class="cls-36" x="393.38" y="82.46" width="4.55" height="16.76"/><rect class="cls-36" x="345" y="54.28" width="43.09" height="21.47"/><line class="cls-37" x1="336.51" y1="77.91" x2="396.76" y2="77.91"/><line class="cls-38" x1="337.78" y1="77.14" x2="337.78" y2="78.62"/><line class="cls-38" x1="340.21" y1="77.17" x2="340.21" y2="78.65"/><line class="cls-38" x1="342.54" y1="77.17" x2="342.54" y2="78.65"/><line class="cls-38" x1="344.5" y1="77.2" x2="344.5" y2="78.68"/><line class="cls-38" x1="346.93" y1="77.22" x2="346.93" y2="78.7"/><line class="cls-38" x1="349.25" y1="77.22" x2="349.25" y2="78.7"/><line class="cls-38" x1="351.53" y1="77.2" x2="351.53" y2="78.68"/><line class="cls-38" x1="353.96" y1="77.22" x2="353.96" y2="78.7"/><line class="cls-38" x1="356.29" y1="77.22" x2="356.29" y2="78.7"/><line class="cls-38" x1="358.4" y1="77.2" x2="358.4" y2="78.68"/><line class="cls-38" x1="360.83" y1="77.22" x2="360.83" y2="78.7"/><line class="cls-38" x1="363.16" y1="77.22" x2="363.16" y2="78.7"/><line class="cls-38" x1="365.49" y1="77.2" x2="365.49" y2="78.68"/><line class="cls-38" x1="367.92" y1="77.22" x2="367.92" y2="78.7"/><line class="cls-38" x1="370.25" y1="77.22" x2="370.25" y2="78.7"/><line class="cls-38" x1="372.36" y1="77.2" x2="372.36" y2="78.68"/><line class="cls-38" x1="374.79" y1="77.22" x2="374.79" y2="78.7"/><line class="cls-38" x1="377.12" y1="77.22" x2="377.12" y2="78.7"/><line class="cls-38" x1="379.34" y1="77.2" x2="379.34" y2="78.68"/><line class="cls-38" x1="381.77" y1="77.22" x2="381.77" y2="78.7"/><line class="cls-38" x1="384.1" y1="77.22" x2="384.1" y2="78.7"/><line class="cls-38" x1="386.21" y1="77.2" x2="386.21" y2="78.68"/><line class="cls-38" x1="388.65" y1="77.22" x2="388.65" y2="78.7"/><line class="cls-38" x1="390.97" y1="77.22" x2="390.97" y2="78.7"/><line class="cls-38" x1="393.3" y1="77.2" x2="393.3" y2="78.68"/><line class="cls-38" x1="395.73" y1="77.22" x2="395.73" y2="78.7"/><polygon class="cls-39" points="337.47 77.89 338.13 77.89 338.43 76.8 337.09 76.8 337.47 77.89"/><rect class="cls-40" x="329.51" y="91.66" width="58.11" height="4.6"/><rect class="cls-41" x="329.35" y="88.27" width="58.11" height="2.33"/><rect class="cls-42" x="322.74" y="83.3" width="5.82" height="14.8"/><line class="cls-43" x1="329.35" y1="93.98" x2="387.61" y2="93.98"/><rect class="cls-42" x="329.35" y="83.46" width="58.11" height="1.8"/><line class="cls-44" x1="331.62" y1="84.84" x2="331.62" y2="98.11"/><polygon class="cls-39" points="331.45 84.92 331.86 84.92 332.04 83.83 331.22 83.83 331.45 84.92"/><rect class="cls-36" x="301.22" y="56.23" width="29.03" height="21.73"/><rect class="cls-45" x="297.62" y="50.84" width="101.41" height="2.38"/><circle class="cls-46" cx="298.73" cy="52.06" r="0.48"/><circle class="cls-47" cx="300.27" cy="52.06" r="0.48"/><circle class="cls-48" cx="301.8" cy="52.06" r="0.48"/><circle class="cls-17" cx="232.57" cy="132.57" r="9.48"/><circle class="cls-17" cx="219.53" cy="155.35" r="6.78"/><circle class="cls-17" cx="201.07" cy="139.15" r="4.4"/><circle class="cls-19" cx="230.66" cy="131.88" r="9.48"/><circle class="cls-19" cx="217.63" cy="154.65" r="6.78"/><circle class="cls-19" cx="199.17" cy="138.46" r="4.4"/></svg>