<svg width="1036" height="592" viewBox="0 0 1036 592" fill="none" xmlns="http://www.w3.org/2000/svg">
<rect width="1036" height="592" fill="#E5E5E5"/>
<g clip-path="url(#clip0)">
<rect width="1036" height="591.051" fill="#F4F4F4"/>
<path d="M1036 55.3419C991.455 207.641 998.664 378.46 1036 560.06C996.043 553.585 956.179 547.763 916.406 542.594C909.356 541.686 902.309 540.797 895.266 539.927C885.359 538.698 875.461 537.514 865.569 536.373C864.794 536.274 864.02 536.185 863.256 536.108C856.117 535.278 848.978 534.492 841.839 533.706C773.359 526.279 705.174 520.966 637.284 517.768C421.572 507.773 208.916 520.203 0 560.06C37.6482 373.742 52.9007 198.179 0 55.3419C284.35 95.548 644.136 86.0197 1036 55.3419Z" fill="#DA6D42"/>
<path d="M855.353 444.595C846.277 374.521 836.061 303.927 824.826 233.742C819.779 202.286 814.54 170.94 809.109 139.705L808.943 138.753L807.98 138.797C796.879 139.207 785.737 139.473 774.554 139.594C768.488 139.672 762.427 139.712 756.369 139.716C736.39 139.76 716.456 139.528 696.898 139.307C676.875 139.074 656.598 138.842 636.221 138.908C622.95 138.952 609.635 139.118 596.331 139.495C575.699 140.081 555.068 141.166 534.603 143.07C513.473 145.029 492.089 147.896 471.402 150.674C447.849 153.839 423.498 157.105 399.424 159.042C355.173 162.606 310.058 161.82 266.427 161.067C242.884 160.657 218.545 160.237 194.604 160.503C193.564 160.514 192.125 160.425 190.465 160.303C184.366 159.883 176.009 159.296 173.53 163.314C171.837 166.037 173.829 174.36 176.386 184.145C177.05 186.668 177.625 188.86 177.791 189.933C180.415 206.137 182.495 222.651 184.001 239.011C187.079 272.622 187.83 306.405 186.248 340.12C184.48 377.582 179.81 414.85 172.279 451.59L172.036 452.774L173.231 452.918C258.037 463.001 346.684 468.978 436.725 470.683C450.173 470.937 462.835 471.081 474.867 471.092C476.029 471.103 477.18 471.103 478.32 471.103C487.805 471.103 496.904 471.026 505.681 470.882C511.315 470.782 516.823 470.653 522.206 470.494C532.002 470.196 541.421 469.797 550.596 469.288C551.338 469.255 552.069 469.211 552.799 469.166C555.4 469.022 557.986 468.864 560.558 468.69C564.709 468.425 568.822 468.133 572.899 467.816C601.201 465.624 629.857 462.083 657.794 458.519C660.926 458.109 664.047 457.707 667.157 457.312C669.26 457.046 671.363 456.77 673.477 456.504C715.582 451.103 758.615 445.801 801.616 444.749C803.276 444.705 804.948 444.661 806.608 444.639C815.241 444.484 823.867 444.528 832.486 444.772C839.724 444.971 846.956 445.329 854.18 445.845L855.53 445.934L855.353 444.595ZM831.346 442.514C823.033 442.292 814.721 442.263 806.409 442.425C804.483 442.447 802.568 442.491 800.642 442.547C755.682 443.709 710.745 449.487 666.87 455.121L662.188 455.718C661.003 455.873 659.808 456.028 658.624 456.183C630.366 459.802 601.356 463.4 572.733 465.613C569.479 465.868 566.214 466.1 562.916 466.322C559.518 466.554 556.097 466.764 552.633 466.964C551.902 467.008 551.161 467.052 550.419 467.097C541.199 467.595 531.714 467.993 521.863 468.281C515.432 468.48 508.835 468.628 502.073 468.724C493.295 468.856 484.186 468.912 474.689 468.879C462.725 468.856 450.129 468.724 436.769 468.469C347.226 466.776 259.055 460.843 174.692 450.859C182.1 414.389 186.703 377.404 188.461 340.231C190.051 306.413 189.296 272.525 186.203 238.811C184.698 222.397 182.606 205.839 179.983 189.579C179.784 188.395 179.23 186.27 178.533 183.58C177.083 178.079 174.083 166.612 175.412 164.476C177.194 161.598 185.085 162.152 190.321 162.517C192.025 162.628 193.486 162.727 194.626 162.716C218.534 162.451 242.862 162.871 266.394 163.281C310.069 164.033 355.239 164.819 399.602 161.244C423.731 159.307 448.114 156.031 471.701 152.865C492.355 150.098 513.716 147.232 534.813 145.273C536.429 145.118 538.034 144.974 539.65 144.841C540.391 144.774 541.133 144.708 541.863 144.653C559.584 143.17 577.426 142.262 595.268 141.742C608.993 141.343 622.718 141.166 636.398 141.122C656.698 141.055 676.92 141.288 696.876 141.52C716.378 141.753 736.235 141.974 756.147 141.93C762.29 141.919 768.433 141.886 774.576 141.797C785.445 141.675 796.285 141.424 807.095 141.044C812.33 171.15 817.385 201.393 822.259 231.772C833.57 302.244 843.864 373.148 852.984 443.532C845.779 443.023 838.566 442.683 831.346 442.514Z" fill="#F2F2F2"/>
<path d="M349.128 464.375C345.314 437.137 348.733 409.344 352.04 382.466C353.806 368.102 355.633 353.25 356.336 338.652C357.819 307.878 354.373 276.639 351.041 246.429C348.033 219.16 344.924 190.964 345.421 163.096L347.635 163.136C347.14 190.862 350.242 218.987 353.241 246.186C356.583 276.482 360.038 307.809 358.548 338.758C357.84 353.438 356.008 368.333 354.237 382.737C350.948 409.473 347.547 437.119 351.32 464.068L349.128 464.375Z" fill="#F2F2F2"/>
<path d="M550.805 472.024C542.229 363.144 538.479 252.564 539.659 143.355L541.873 143.379C540.693 252.522 544.441 363.036 553.012 471.851L550.805 472.024Z" fill="#F2F2F2"/>
<path d="M217.934 194.649L217.7 192.448C244.622 189.603 271.704 188.57 298.764 189.355L298.7 191.567C271.739 190.785 244.756 191.815 217.934 194.649V194.649Z" fill="#F2F2F2"/>
<path d="M407.956 185.067L407.893 182.854C421.14 182.481 434.838 182.094 448.152 180.215C463.088 178.106 477.907 174.07 492.239 170.167L492.82 172.302C478.423 176.223 463.535 180.278 448.461 182.407C435.024 184.304 421.264 184.692 407.956 185.067Z" fill="#F2F2F2"/>
<path d="M729.155 169.728C727.517 169.728 725.886 169.715 724.264 169.701L598.047 168.656L598.064 166.442L724.281 167.488C732.966 167.56 741.938 167.633 750.482 165.59L750.997 167.743C743.811 169.462 736.42 169.728 729.155 169.728Z" fill="#F2F2F2"/>
<path d="M255.679 304.38H205.872C211.474 281.395 216.856 259.935 205.872 244.611H255.679C265.054 264.555 265.054 284.478 255.679 304.38Z" fill="#F2F2F2"/>
<path d="M487.68 415.38H437.872C434.757 387.673 441.63 367.021 437.872 355.611H487.68C485.766 375.488 485.766 395.503 487.68 415.38V415.38Z" fill="#F2F2F2"/>
<path d="M429.453 330.944H379.645C381.513 307.963 387.534 286.503 379.645 271.175H429.453C438.831 291.098 438.831 311.021 429.453 330.944Z" fill="#F2F2F2"/>
<path d="M480.368 280.03H530.175C533.29 257.044 526.417 235.585 530.175 220.261H480.368C470.99 240.184 470.99 260.107 480.368 280.03Z" fill="#3F3D56"/>
<path d="M867.761 591.051H917.568C920.683 568.065 913.81 546.606 917.568 531.282H867.761C858.383 551.205 858.383 571.128 867.761 591.051Z" fill="#3F3D56"/>
<path d="M254.573 406.209H304.38C307.495 383.223 300.622 361.764 304.38 346.44H254.573C245.195 366.363 245.195 386.286 254.573 406.209Z" fill="#3F3D56"/>
<path d="M761.146 83.1974C737.821 43.7849 691.674 41.9481 691.674 41.9481C691.674 41.9481 646.706 36.1977 617.859 96.2234C590.972 152.172 553.864 206.192 611.885 219.289L622.366 186.67L628.856 221.718C637.117 222.312 645.405 222.454 653.681 222.142C715.817 220.136 774.992 222.729 773.087 200.432C770.554 170.791 783.59 121.12 761.146 83.1974Z" fill="#2F2E41"/>
<path d="M696.321 195.28C729.583 195.28 756.548 168.316 756.548 135.054C756.548 101.791 729.583 74.827 696.321 74.827C663.059 74.827 636.094 101.791 636.094 135.054C636.094 168.316 663.059 195.28 696.321 195.28Z" fill="#A0616A"/>
<path d="M671.683 174.292C671.683 174.292 699.059 238.169 662.558 250.944L699.059 371.398L761.11 367.747L777.536 327.596L773.886 267.37L768.411 227.219C768.411 227.219 730.085 236.344 733.735 168.817L671.683 174.292Z" fill="#A0616A"/>
<path d="M657.083 249.119C657.083 249.119 596.856 243.644 602.331 287.445C607.806 331.246 613.281 340.372 613.281 340.372L618.757 406.073L585.906 426.149H554.88C554.88 426.149 459.977 448.05 507.429 471.775C554.88 495.501 571.305 453.525 571.305 453.525C571.305 453.525 658.908 453.525 664.383 438.924C669.858 424.324 657.083 249.119 657.083 249.119Z" fill="#A0616A"/>
<path d="M773.886 230.869C773.886 230.869 830.462 210.793 834.112 254.594C837.762 298.396 837.762 302.046 837.762 302.046L848.713 364.097C848.713 364.097 870.613 418.849 870.613 435.274C870.613 451.7 887.039 502.801 887.039 502.801C887.039 502.801 908.939 573.978 885.214 572.153C861.488 570.328 857.838 495.501 857.838 495.501L808.562 396.948L793.961 336.722L773.886 230.869Z" fill="#A0616A"/>
<path d="M666.208 241.819H651.607L649.782 318.471C649.782 318.471 626.057 351.322 655.258 380.523L662.558 427.974L795.786 422.499L804.912 373.223C804.912 373.223 823.162 333.071 797.611 296.57L773.886 221.743H761.11C761.11 221.743 790.699 330.842 728.259 333.072C677.158 334.897 666.208 241.819 666.208 241.819Z" fill="#D0CDE1"/>
<path d="M841.839 533.706C773.359 526.279 705.174 520.966 637.284 517.768C647.644 487.418 655.082 466.189 657.794 458.519C658.159 457.489 658.436 456.714 658.624 456.183C658.734 455.84 658.823 455.596 658.867 455.475C658.885 455.435 658.9 455.395 658.911 455.353L663.328 440.621L665.187 434.412L667.18 427.782L669.858 418.849L788.489 415.197L791.81 422.668L800.642 442.547L801.616 444.75L803.088 448.048C804.068 448.336 804.997 448.773 805.844 449.343C816.758 456.493 829.143 487.972 841.839 533.706Z" fill="#2F2E41"/>
<path d="M801.261 400.598L657.083 406.073C657.083 406.073 650.502 455.35 657.083 455.35C658.908 455.35 808.562 468.125 806.737 446.225C804.911 424.324 801.261 400.598 801.261 400.598Z" fill="#3F3D56"/>
<path d="M697.322 75.5146C715.75 75.5146 730.689 60.5758 730.689 42.1477C730.689 23.7196 715.75 8.78076 697.322 8.78076C678.894 8.78076 663.955 23.7196 663.955 42.1477C663.955 60.5758 678.894 75.5146 697.322 75.5146Z" fill="#2F2E41"/>
<path d="M660.442 33.3669C660.443 25.1261 663.494 17.177 669.006 11.0509C674.518 4.92492 682.102 1.05533 690.297 0.187589C685.644 -0.307949 680.938 0.18095 676.486 1.62254C672.033 3.06413 667.934 5.42616 664.454 8.55522C660.974 11.6843 658.191 15.5104 656.286 19.785C654.381 24.0596 653.397 28.6871 653.397 33.3669C653.397 38.0468 654.381 42.6743 656.286 46.9489C658.191 51.2235 660.974 55.0496 664.454 58.1787C667.934 61.3077 672.033 63.6698 676.486 65.1113C680.938 66.5529 685.644 67.0418 690.297 66.5463C682.102 65.6786 674.518 61.809 669.006 55.6829C663.494 49.5569 660.443 41.6078 660.442 33.3669Z" fill="#2F2E41"/>
<path d="M750.834 79.398L705.243 55.517L642.283 65.286L629.257 122.818L661.683 121.571L670.742 100.435V121.223L685.704 120.647L694.388 86.997L699.815 122.818L753.005 121.733L750.834 79.398Z" fill="#2F2E41"/>
<path d="M508.786 524.145H458.979C468.418 501.155 473.143 479.696 458.979 464.376H508.786C518.164 484.299 518.164 504.222 508.786 524.145Z" fill="#F2F2F2"/>
</g>
<defs>
<clipPath id="clip0">
<rect width="1036" height="591.051" fill="white"/>
</clipPath>
</defs>
</svg>
