<svg width="566" height="350" viewBox="0 0 566 350" fill="none" xmlns="http://www.w3.org/2000/svg">
<path d="M461.111 85.9563L174.785 0L105.713 229.966L392.038 315.922L461.111 85.9563Z" fill="white"/>
<path d="M137.161 350C212.913 350 274.322 343.485 274.322 335.448C274.322 327.411 212.913 320.896 137.161 320.896C61.4092 320.896 0 327.411 0 335.448C0 343.485 61.4092 350 137.161 350Z" fill="#3F3D56"/>
<path d="M149.893 38.3761H116.598V86.8863H149.893V38.3761Z" fill="#2F2E41"/>
<path d="M123.032 60.7534C123.032 60.7534 124.285 84.7033 113.208 85.6854C105.458 86.3726 128.322 107.595 128.322 107.595L147.971 80.3968C147.971 80.3968 133.242 81.9048 142.681 65.2865L123.032 60.7534Z" fill="#FFB8B8"/>
<path opacity="0.1" d="M147.972 80.3992L141.763 88.9962L128.321 107.595C128.321 107.595 117.097 97.1734 113.043 90.7033C111.521 88.2686 111.005 86.3936 112.483 85.8395C112.49 85.835 112.498 85.8331 112.506 85.8339C112.718 85.7544 112.94 85.7054 113.166 85.6884C113.179 85.6854 113.192 85.6835 113.206 85.6828C113.851 85.6285 114.486 85.4854 115.092 85.2574C124.139 81.8768 123.031 60.7538 123.031 60.7538L142.681 65.2874C136.383 76.375 140.845 79.3974 144.512 80.1753C145.317 80.3431 146.136 80.4294 146.958 80.4328C147.58 80.4384 147.972 80.3992 147.972 80.3992Z" fill="black"/>
<path d="M153.747 41.0833C150.15 51.7316 144.634 61.4338 133.392 61.4338C122.149 61.4338 113.669 52.3047 113.036 41.0833C112.226 26.7445 121.89 20.6733 133.392 20.7328C146.979 20.8029 158.017 28.4463 153.747 41.0833Z" fill="#2F2E41"/>
<path d="M105.651 214.123L110.941 251.143C110.941 251.143 106.407 273.809 108.674 289.675L110.941 306.296H121.521L124.544 288.919C124.544 288.919 127.566 270.787 127.566 262.476C127.566 262.476 135.879 224.7 130.589 217.145L105.651 214.123Z" fill="#FFB8B8"/>
<path d="M169.886 211.856L164.596 251.143C164.596 251.143 169.131 273.809 166.863 289.675L164.596 306.296H154.016L150.993 288.919C150.993 288.919 147.971 270.787 147.971 262.476C147.971 262.476 139.658 222.434 144.948 214.879L169.886 211.856Z" fill="#FFB8B8"/>
<path d="M159.306 304.029C159.306 304.029 165.352 301.763 166.108 304.785C166.863 307.807 168.375 323.673 168.375 323.673C168.375 323.673 172.909 330.472 175.932 331.228C178.955 331.983 185.756 341.805 177.443 342.561C169.13 343.316 160.818 340.294 160.818 338.783C160.818 337.272 157.795 336.516 156.283 336.516C154.772 336.516 149.482 334.25 150.238 331.983C150.993 329.717 153.261 303.274 153.261 303.274L159.306 304.029Z" fill="#2F2E41"/>
<path d="M116.231 304.029C116.231 304.029 110.185 301.763 109.429 304.785C108.674 307.807 107.162 323.673 107.162 323.673C107.162 323.673 102.628 330.472 99.6052 331.228C96.5824 331.983 89.781 341.805 98.0938 342.561C106.407 343.316 114.719 340.294 114.719 338.783C114.719 337.272 117.742 336.516 119.254 336.516C120.765 336.516 126.055 334.25 125.299 331.983C124.544 329.717 122.277 303.274 122.277 303.274L116.231 304.029Z" fill="#2F2E41"/>
<path d="M134.368 69.6195C143.022 69.6195 150.038 62.6057 150.038 53.9538C150.038 45.3018 143.022 38.2881 134.368 38.2881C125.714 38.2881 118.698 45.3018 118.698 53.9538C118.698 62.6057 125.714 69.6195 134.368 69.6195Z" fill="#FFB8B8"/>
<path d="M193.313 140.08C193.313 140.08 161.576 153.68 158.553 139.324C156.694 130.352 155.431 121.267 154.774 112.128C154.771 112.125 154.767 112.123 154.763 112.123C154.32 111.854 138.684 102.261 141.763 88.9962C142.48 86.1229 143.826 83.4446 145.704 81.1548C145.704 81.1548 146.169 80.8526 146.958 80.4328C147.884 79.9387 148.839 79.5032 149.819 79.1287C155.155 77.097 164.028 75.9496 166.105 89.4607C169.128 109.106 169.128 130.263 169.128 130.263C169.128 130.263 178.198 135.552 190.29 130.263C202.383 124.974 214.475 127.996 215.231 134.796C215.987 141.591 193.313 140.08 193.313 140.08Z" fill="#FFB8B8"/>
<path d="M113.206 85.6828L113.043 90.7033L111.241 147.3L110.938 156.703L84.4913 186.171C84.4913 186.171 79.2008 202.033 67.864 204.3C56.5273 206.566 75.4219 182.393 75.4219 182.393L101.119 144.613L101.158 143.343C101.447 132.758 100.565 122.173 98.5266 111.782C97.7723 107.914 97.6269 103.952 98.0955 100.039C99.148 91.61 106.084 87.9552 110.182 86.5168C110.936 86.2467 111.704 86.0206 112.483 85.8395C112.49 85.8351 112.498 85.8331 112.506 85.8339C112.847 85.75 113.077 85.7052 113.166 85.6884C113.179 85.6854 113.192 85.6835 113.206 85.6828Z" fill="#FFB8B8"/>
<path d="M155.53 140.08V143.102C144.512 156.563 120.125 150.205 111.241 147.3C109.152 146.617 107.921 146.125 107.921 146.125C108.373 145.178 108.63 144.15 108.677 143.102V136.307C108.677 134.041 109.427 135.552 110.182 134.796C110.938 134.041 107.921 129.507 107.921 129.507C100.363 124.974 104.898 112.128 104.898 112.128L110.182 100.795V86.5167C110.936 86.2467 111.704 86.0206 112.483 85.8395C112.49 85.8351 112.498 85.8331 112.506 85.8339C112.718 85.7545 112.94 85.7055 113.166 85.6884C113.179 85.6854 113.192 85.6835 113.206 85.6828C113.851 85.6285 114.486 85.4854 115.092 85.2574C116.509 88.179 119.588 92.0242 126.054 92.4831C133.797 93.0372 141.136 84.6921 144.512 80.1754C145.317 80.3431 146.136 80.4294 146.958 80.4328C147.884 79.9387 148.839 79.5032 149.819 79.1287L146.46 93.2387C143.487 100.666 154.388 111.737 154.763 112.123C154.767 112.124 154.771 112.125 154.774 112.128V120.44L154.018 129.507L153.262 131.774L154.774 134.041L154.018 136.307L154.774 137.819C155.53 139.324 155.53 138.574 155.53 140.08Z" fill="#DA6D42"/>
<path d="M109.429 145.371L107.162 144.616C107.162 144.616 79.9568 212.612 98.0938 215.634C116.231 218.656 129.834 223.945 132.856 218.656C135.879 213.367 134.368 194.48 134.368 194.48L137.391 193.724C137.391 193.724 132.101 221.678 142.681 219.412C153.261 217.145 182.733 213.367 182.733 210.345C182.733 207.323 155.528 142.055 155.528 142.055C155.528 142.055 144.192 149.149 109.429 145.371Z" fill="#2F2E41"/>
<path d="M133.392 25.0171C137.829 25.0171 141.427 21.4205 141.427 16.984C141.427 12.5474 137.829 8.95087 133.392 8.95087C128.954 8.95087 125.356 12.5474 125.356 16.984C125.356 21.4205 128.954 25.0171 133.392 25.0171Z" fill="#2F2E41"/>
<path d="M123.749 12.6996C123.75 10.7083 124.49 8.78794 125.826 7.31113C127.162 5.83433 128.999 4.90631 130.981 4.7071C130.717 4.68085 130.449 4.66653 130.178 4.66653C128.046 4.66653 126.003 5.51288 124.496 7.01938C122.989 8.52588 122.142 10.5691 122.142 12.6996C122.142 14.8301 122.989 16.8734 124.496 18.3799C126.003 19.8864 128.046 20.7327 130.178 20.7327C130.449 20.7327 130.717 20.7184 130.981 20.6922C128.999 20.493 127.162 19.5649 125.826 18.0881C124.49 16.6113 123.75 14.691 123.749 12.6996Z" fill="#2F2E41"/>
<path d="M126.921 33.7818C126.921 33.7818 126.754 32.848 120.192 35.3081C113.63 37.7682 109.696 55.9226 112.977 66.5829C114.299 70.879 113.224 73.9765 111.468 76.1438C104.881 84.2766 107.474 96.4919 117.07 100.674C117.34 100.792 117.617 100.909 117.899 101.024L122 103.484C122 103.484 116.772 96.6068 119.388 87.8094C121.66 80.3137 121.941 72.3556 120.202 64.7185C119.902 63.4302 119.561 62.1022 119.174 60.7469C115.893 49.2665 117.489 50.5924 128.972 39.112C128.972 39.112 135.534 44.0321 141.276 46.4922C147.017 48.9523 151.939 51.4124 147.837 59.6127C143.736 67.8129 133.893 75.1932 140.455 85.8536C147.017 96.5139 147.837 92.4138 147.017 96.5139L146.197 100.614L151.118 95.6939L147.837 102.254C147.837 102.254 158.501 102.254 161.782 94.0538L163.422 95.6939C163.422 95.6939 169.984 84.2135 157.68 73.5531C157.68 73.5531 153.579 71.093 159.321 62.8928C165.062 54.6925 160.653 37.0618 153.271 33.7818C145.888 30.5017 126.921 33.7818 126.921 33.7818Z" fill="#2F2E41"/>
<path d="M212.144 161.368L234.21 154.458C232.989 145.283 230.201 136.386 225.968 128.155L203.902 135.066C209.08 142.879 211.938 151.998 212.144 161.368Z" fill="#6C63FF"/>
<path d="M566 1.86807H255.848V128.36H566V1.86807Z" fill="#3F3D56"/>
<path d="M300.423 48.9579H277.299C275.721 39.8379 275.721 30.5147 277.299 21.3947H300.423C297.818 30.3979 297.818 39.9548 300.423 48.9579Z" fill="#FF6584"/>
<path d="M320.442 60.6991H343.565C345.143 51.5791 345.143 42.2559 343.565 33.1359H320.442C323.047 42.1391 323.047 51.6959 320.442 60.6991Z" fill="#6C63FF"/>
<path d="M371.855 20.2624C375.653 39.3936 376.734 58.9645 375.066 78.3974C374.628 83.4572 374.002 88.4957 373.188 93.5129C372.817 95.7939 372.394 98.0641 371.96 100.334C371.711 101.634 371.188 103.253 372.006 104.477C373.599 106.861 379.059 106.239 381.465 106.317C386.47 106.479 391.482 106.506 396.488 106.593L411.551 106.856L418.803 106.983C421.274 107.026 423.98 107.409 426.432 107.093C429.658 106.677 428.872 103.299 428.823 100.789C428.727 95.8277 428.595 90.867 428.427 85.9072C427.761 66.2523 426.536 46.627 424.751 27.0312C424.523 24.5313 424.665 21.5404 423.991 19.1231C423.719 18.1459 423.448 17.8634 422.387 17.6878C419.955 17.2857 417.057 17.7091 414.597 17.7263L406.37 17.7835L372.914 18.0162C372.697 18.0238 372.49 18.1155 372.339 18.2722C372.188 18.4288 372.103 18.638 372.103 18.8558C372.103 19.0735 372.188 19.2828 372.339 19.4394C372.49 19.596 372.697 19.6878 372.914 19.6953L400.337 19.5046L412.403 19.4206L418.984 19.3748C420.337 19.3654 421.601 18.9559 422.45 20.4438C422.986 21.3853 422.766 23.7396 422.869 24.835C424.507 42.4032 425.696 60.0057 426.434 77.6423C426.619 82.0496 426.775 86.4579 426.903 90.8672C426.957 92.7044 427.005 94.5417 427.049 96.3792C427.075 97.4817 427.099 98.5842 427.122 99.6867C427.145 100.824 427.616 103.053 427.203 104.097C426.322 106.325 422.396 105.366 420.477 105.333L413.782 105.216L400.394 104.982L387.005 104.749C384.791 104.71 382.575 104.693 380.362 104.599C379.628 104.568 378.894 104.533 378.161 104.48C375.978 104.325 373.629 104.841 373.37 101.825C373.209 99.9645 374.227 97.3984 374.545 95.537C374.904 93.4349 375.23 91.3276 375.524 89.215C376.072 85.2682 376.509 81.3081 376.835 77.3349C378.373 58.0987 377.242 38.7424 373.474 19.816C373.265 18.7569 371.646 19.2053 371.855 20.2624Z" fill="#F1F1F1"/>
<path d="M482.144 20.2624C485.941 39.3936 487.023 58.9645 485.355 78.3974C484.917 83.4572 484.291 88.4957 483.477 93.5129C483.106 95.7939 482.683 98.0641 482.249 100.334C482 101.634 481.477 103.253 482.295 104.477C483.888 106.861 489.348 106.239 491.754 106.317C496.758 106.479 501.771 106.506 506.777 106.593L521.84 106.856L529.092 106.983C531.563 107.026 534.269 107.409 536.721 107.093C539.947 106.677 539.161 103.299 539.112 100.789C539.016 95.8277 538.883 90.867 538.715 85.9072C538.05 66.2523 536.824 46.627 535.039 27.0312C534.812 24.5313 534.954 21.5404 534.28 19.1231C534.008 18.1459 533.737 17.8634 532.675 17.6878C530.244 17.2857 527.346 17.7091 524.886 17.7263L516.659 17.7835L483.203 18.0162C482.986 18.0238 482.779 18.1155 482.628 18.2722C482.477 18.4288 482.392 18.638 482.392 18.8558C482.392 19.0735 482.477 19.2828 482.628 19.4394C482.779 19.596 482.986 19.6878 483.203 19.6953L510.626 19.5046L522.692 19.4206L529.273 19.3748C530.626 19.3654 531.89 18.9559 532.738 20.4438C533.275 21.3853 533.055 23.7396 533.157 24.835C534.796 42.4032 535.984 60.0057 536.723 77.6423C536.908 82.0496 537.064 86.4579 537.192 90.8672C537.245 92.7044 537.294 94.5417 537.338 96.3792C537.364 97.4817 537.388 98.5842 537.411 99.6867C537.434 100.824 537.905 103.053 537.492 104.097C536.611 106.325 532.685 105.366 530.766 105.333L524.071 105.216L510.682 104.982L497.294 104.749C495.08 104.71 492.864 104.693 490.651 104.599C489.917 104.568 489.182 104.533 488.45 104.48C486.267 104.325 483.918 104.841 483.658 101.825C483.498 99.9645 484.516 97.3984 484.834 95.537C485.193 93.4349 485.519 91.3276 485.813 89.215C486.361 85.2682 486.798 81.3081 487.124 77.3349C488.661 58.0987 487.531 38.7424 483.763 19.816C483.554 18.7569 481.934 19.2053 482.144 20.2624Z" fill="#F1F1F1"/>
<path d="M379.577 24.5843H390.686C390.903 24.5768 391.11 24.485 391.261 24.3284C391.412 24.1718 391.497 23.9625 391.497 23.7448C391.497 23.527 391.412 23.3177 391.261 23.1611C391.11 23.0045 390.903 22.9128 390.686 22.9052H379.577C379.359 22.9128 379.153 23.0045 379.002 23.1611C378.851 23.3177 378.766 23.527 378.766 23.7448C378.766 23.9625 378.851 24.1718 379.002 24.3284C379.153 24.485 379.359 24.5768 379.577 24.5843Z" fill="#F1F1F1"/>
<path d="M379.576 28.3721L390.047 27.9764C391.125 27.9357 391.13 26.2564 390.047 26.2973L379.576 26.693C378.499 26.7337 378.494 28.413 379.576 28.3721Z" fill="#F1F1F1"/>
<path d="M379.577 31.5651H389.734C389.951 31.5575 390.158 31.4658 390.309 31.3092C390.46 31.1525 390.545 30.9433 390.545 30.7255C390.545 30.5078 390.46 30.2985 390.309 30.1419C390.158 29.9853 389.951 29.8935 389.734 29.886H379.577C379.359 29.8935 379.153 29.9853 379.002 30.1419C378.851 30.2985 378.766 30.5078 378.766 30.7255C378.766 30.9433 378.851 31.1525 379.002 31.3092C379.153 31.4658 379.359 31.5575 379.577 31.5651Z" fill="#F1F1F1"/>
<path d="M413.234 23.796C410.955 22.6068 408.885 24.5623 408.564 26.7965C408.407 27.8889 408.374 29.382 409.07 30.31C409.781 31.2577 411.148 31.6551 412.284 31.7251C414.452 31.8589 416.758 30.6499 417.292 28.4303C417.543 27.4449 417.42 26.4014 416.948 25.5011C416.475 24.6007 415.685 23.9074 414.731 23.5548C413.708 23.2002 413.268 24.8217 414.284 25.1739C414.756 25.3698 415.151 25.7134 415.41 26.153C415.669 26.5926 415.778 27.1045 415.721 27.6115C415.655 28.1947 415.399 28.7402 414.994 29.1651C414.589 29.59 414.056 29.871 413.477 29.9654C412.091 30.2842 410.466 29.9421 410.198 28.3787C409.998 27.2092 410.633 24.331 412.387 25.2459C413.344 25.7452 414.194 24.2966 413.234 23.796Z" fill="#F1F1F1"/>
<path d="M489.866 24.5843H500.975C501.192 24.5768 501.399 24.485 501.55 24.3284C501.701 24.1718 501.786 23.9625 501.786 23.7448C501.786 23.527 501.701 23.3177 501.55 23.1611C501.399 23.0045 501.192 22.9128 500.975 22.9052H489.866C489.648 22.9128 489.442 23.0045 489.291 23.1611C489.139 23.3177 489.055 23.527 489.055 23.7448C489.055 23.9625 489.139 24.1718 489.291 24.3284C489.442 24.485 489.648 24.5768 489.866 24.5843Z" fill="#F1F1F1"/>
<path d="M489.865 28.3721L500.336 27.9764C501.414 27.9357 501.419 26.2564 500.336 26.2973L489.865 26.693C488.788 26.7337 488.782 28.413 489.865 28.3721Z" fill="#F1F1F1"/>
<path d="M489.866 31.5651H500.022C500.24 31.5575 500.446 31.4658 500.598 31.3092C500.749 31.1525 500.834 30.9433 500.834 30.7255C500.834 30.5078 500.749 30.2985 500.598 30.1419C500.446 29.9853 500.24 29.8935 500.022 29.886H489.866C489.648 29.8935 489.442 29.9853 489.291 30.1419C489.139 30.2985 489.055 30.5078 489.055 30.7255C489.055 30.9433 489.139 31.1525 489.291 31.3092C489.442 31.4658 489.648 31.5575 489.866 31.5651Z" fill="#F1F1F1"/>
<path d="M523.523 23.796C521.243 22.6068 519.174 24.5623 518.853 26.7965C518.696 27.8889 518.662 29.382 519.358 30.31C520.069 31.2577 521.437 31.6551 522.572 31.7251C524.74 31.8589 527.047 30.6499 527.581 28.4303C527.832 27.4449 527.709 26.4014 527.236 25.5011C526.764 24.6007 525.974 23.9074 525.02 23.5548C523.996 23.2002 523.557 24.8217 524.573 25.1739C525.045 25.3698 525.44 25.7134 525.699 26.153C525.958 26.5926 526.067 27.1045 526.01 27.6115C525.944 28.1947 525.688 28.7402 525.283 29.1651C524.878 29.59 524.345 29.871 523.766 29.9654C522.379 30.2842 520.755 29.9421 520.487 28.3787C520.286 27.2092 520.922 24.331 522.675 25.2459C523.633 25.7452 524.483 24.2966 523.523 23.796Z" fill="#F1F1F1"/>
<path d="M381.799 40.773C394.018 40.9015 406.224 40.5243 418.418 39.6416L417.608 38.5788C415.612 43.6351 415.667 48.9644 415.932 54.3133C415.998 55.6534 416.418 57.4606 416.146 58.7879C415.804 60.4572 414.305 60.0581 412.815 60.1063C409.532 60.2125 406.247 60.2888 402.963 60.3352C399.86 60.379 396.758 60.3962 393.655 60.387C392.195 60.3824 390.735 60.372 389.275 60.3559C387.561 60.3368 385.612 60.8345 385.17 58.8492C384.886 57.5775 385.172 55.9048 385.172 54.597L385.176 49.8134L385.182 40.2461C385.174 40.0285 385.083 39.8223 384.926 39.671C384.769 39.5197 384.56 39.4351 384.342 39.4351C384.124 39.4351 383.915 39.5197 383.758 39.671C383.602 39.8223 383.51 40.0285 383.502 40.2461L383.495 51.9395L383.491 57.2546C383.49 58.3104 383.271 59.5859 383.665 60.5882C384.572 62.8937 388.492 62.0287 390.37 62.046C394.203 62.0813 398.035 62.0755 401.868 62.0286C405.7 61.9822 409.531 61.8952 413.362 61.7677C415.012 61.7128 417.296 62.0881 417.796 60.0533C418.147 58.6268 417.738 56.7668 417.663 55.3111C417.578 53.6498 417.486 51.9882 417.464 50.3246C417.412 46.4398 417.792 42.6606 419.228 39.0252C419.261 38.9006 419.266 38.7699 419.241 38.6433C419.216 38.5166 419.162 38.3974 419.084 38.2947C419.006 38.1921 418.905 38.1087 418.79 38.0511C418.674 37.9935 418.547 37.9632 418.418 37.9624C406.23 38.845 394.024 39.2222 381.799 39.0939C381.581 39.1015 381.375 39.1932 381.224 39.3498C381.072 39.5065 380.988 39.7157 380.988 39.9335C380.988 40.1512 381.072 40.3605 381.224 40.5171C381.375 40.6737 381.581 40.7655 381.799 40.773Z" fill="#F1F1F1"/>
<path d="M385.281 41.6854C390.511 43.5359 395.611 45.7375 400.544 48.275C404.97 50.5619 410.765 53.06 413.811 57.1474C414.45 58.004 415.908 57.1678 415.262 56.2999C412.151 52.1261 406.796 49.6701 402.297 47.2978C396.954 44.4944 391.417 42.0776 385.728 40.0663C384.707 39.7032 384.268 41.3249 385.281 41.6854Z" fill="#F1F1F1"/>
<path d="M418.132 38.6952C412.582 41.0679 407.88 45.6394 402.92 49.0266C397.552 52.6931 392.023 56.1053 386.335 59.2632C385.391 59.7901 386.237 61.2409 387.183 60.713C392.859 57.5443 398.387 54.1321 403.768 50.4765C408.727 47.0898 413.431 42.5171 418.98 40.145C419.971 39.7214 419.116 38.2746 418.132 38.6952Z" fill="#F1F1F1"/>
<path d="M492.088 40.773C504.307 40.9015 516.513 40.5243 528.707 39.6416L527.897 38.5788C525.901 43.6351 525.956 48.9644 526.22 54.3133C526.287 55.6534 526.707 57.4606 526.435 58.7879C526.093 60.4572 524.594 60.0581 523.104 60.1063C519.82 60.2125 516.536 60.2888 513.251 60.3352C510.149 60.379 507.047 60.3962 503.944 60.387C502.484 60.3824 501.024 60.372 499.564 60.3559C497.85 60.3368 495.901 60.8345 495.458 58.8492C495.175 57.5775 495.46 55.9048 495.461 54.597L495.464 49.8134L495.471 40.2461C495.463 40.0285 495.372 39.8223 495.215 39.671C495.058 39.5197 494.849 39.4351 494.631 39.4351C494.413 39.4351 494.204 39.5197 494.047 39.671C493.891 39.8223 493.799 40.0285 493.791 40.2461L493.783 51.9395L493.78 57.2546C493.779 58.3104 493.56 59.5859 493.954 60.5882C494.861 62.8937 498.78 62.0287 500.659 62.046C504.492 62.0813 508.324 62.0755 512.157 62.0286C515.989 61.9822 519.82 61.8952 523.651 61.7677C525.301 61.7128 527.585 62.0881 528.085 60.0533C528.436 58.6268 528.027 56.7668 527.952 55.3111C527.867 53.6498 527.775 51.9882 527.753 50.3246C527.701 46.4398 528.081 42.6606 529.516 39.0252C529.55 38.9006 529.554 38.7699 529.53 38.6433C529.505 38.5166 529.451 38.3974 529.373 38.2947C529.295 38.1921 529.194 38.1087 529.078 38.0511C528.963 37.9935 528.836 37.9632 528.707 37.9624C516.519 38.845 504.313 39.2222 492.088 39.0939C491.87 39.1015 491.664 39.1932 491.512 39.3498C491.361 39.5065 491.276 39.7157 491.276 39.9335C491.276 40.1512 491.361 40.3605 491.512 40.5171C491.664 40.6737 491.87 40.7655 492.088 40.773Z" fill="#F1F1F1"/>
<path d="M495.57 41.6854C500.8 43.5359 505.899 45.7375 510.833 48.275C515.259 50.5619 521.054 53.06 524.1 57.1474C524.739 58.004 526.197 57.1678 525.55 56.2999C522.44 52.1261 517.085 49.6701 512.586 47.2978C507.243 44.4944 501.706 42.0776 496.016 40.0663C494.996 39.7032 494.557 41.3249 495.57 41.6854Z" fill="#F1F1F1"/>
<path d="M528.421 38.6952C522.871 41.0679 518.169 45.6394 513.209 49.0266C507.84 52.6931 502.312 56.1053 496.624 59.2632C495.68 59.7901 496.526 61.2409 497.472 60.713C503.148 57.5443 508.676 54.1321 514.057 50.4765C519.016 47.0898 523.72 42.5171 529.269 40.145C530.26 39.7214 529.405 38.2746 528.421 38.6952Z" fill="#F1F1F1"/>
<path d="M492.088 74.3549C504.307 74.4833 516.513 74.1062 528.707 73.2234L527.897 72.1607C525.901 77.217 525.956 82.5462 526.22 87.8951C526.287 89.2353 526.707 91.0424 526.435 92.3698C526.093 94.0391 524.594 93.64 523.104 93.6882C519.82 93.7943 516.536 93.8706 513.251 93.917C510.149 93.9608 507.047 93.9781 503.944 93.9688C502.484 93.9642 501.024 93.9539 499.564 93.9377C497.85 93.9186 495.901 94.4163 495.458 92.431C495.175 91.1593 495.46 89.4867 495.461 88.1789L495.464 83.3952L495.471 73.8279C495.463 73.6103 495.372 73.4041 495.215 73.2528C495.058 73.1015 494.849 73.017 494.631 73.017C494.413 73.017 494.204 73.1015 494.047 73.2528C493.891 73.4041 493.799 73.6103 493.791 73.8279L493.783 85.5213L493.78 90.8365C493.779 91.8922 493.56 93.1677 493.954 94.17C494.861 96.4756 498.78 95.6106 500.659 95.6279C504.492 95.6631 508.324 95.6573 512.157 95.6104C515.989 95.5641 519.82 95.4771 523.651 95.3496C525.301 95.2947 527.585 95.6699 528.085 93.6352C528.436 92.2087 528.027 90.3487 527.952 88.893C527.867 87.2317 527.775 85.5701 527.753 83.9065C527.701 80.0217 528.081 76.2424 529.516 72.6071C529.55 72.4824 529.554 72.3518 529.53 72.2251C529.505 72.0985 529.451 71.9793 529.373 71.8766C529.295 71.774 529.194 71.6906 529.078 71.633C528.963 71.5754 528.836 71.545 528.707 71.5443C516.519 72.4269 504.313 72.8041 492.088 72.6758C491.87 72.6833 491.664 72.7751 491.512 72.9317C491.361 73.0883 491.276 73.2976 491.276 73.5153C491.276 73.7331 491.361 73.9424 491.512 74.099C491.664 74.2556 491.87 74.3474 492.088 74.3549Z" fill="#F1F1F1"/>
<path d="M495.57 75.2673C500.8 77.1178 505.899 79.3193 510.833 81.8568C515.259 84.1437 521.054 86.6419 524.1 90.7293C524.739 91.5859 526.197 90.7496 525.55 89.8818C522.44 85.7079 517.085 83.252 512.586 80.8797C507.243 78.0762 501.706 75.6595 496.016 73.6482C494.996 73.285 494.557 74.9068 495.57 75.2673Z" fill="#F1F1F1"/>
<path d="M528.421 72.2771C522.871 74.6498 518.169 79.2212 513.209 82.6085C507.84 86.275 502.312 89.6872 496.624 92.845C495.68 93.3719 496.526 94.8228 497.472 94.2949C503.148 91.1261 508.676 87.714 514.057 84.0584C519.016 80.6717 523.72 76.099 529.269 73.7269C530.26 73.3033 529.405 71.8565 528.421 72.2771Z" fill="#F1F1F1"/>
<path d="M384.973 73.0892C396.295 73.2614 407.616 73.2163 418.937 72.9538C420.016 72.9288 420.02 71.2496 418.937 71.2748C407.617 71.5372 396.296 71.5823 384.973 71.4101C384.756 71.4177 384.55 71.5094 384.398 71.6661C384.247 71.8227 384.162 72.0319 384.162 72.2497C384.162 72.4674 384.247 72.6767 384.398 72.8333C384.55 72.9899 384.756 73.0817 384.973 73.0892Z" fill="#F1F1F1"/>
<path d="M385.926 80.7019C397.565 80.8875 409.203 80.8376 420.841 80.552C421.92 80.5255 421.924 78.8463 420.841 78.8729C409.204 79.1585 397.566 79.2084 385.926 79.0228C384.845 79.0055 384.844 80.6846 385.926 80.7019Z" fill="#F1F1F1"/>
<path d="M384.652 88.9216L417.663 87.389C418.739 87.3391 418.745 85.6597 417.663 85.7099L384.652 87.2425C383.576 87.2925 383.569 88.9718 384.652 88.9216Z" fill="#F1F1F1"/>
<path d="M436.073 65.1998H467.494C467.712 65.1923 467.918 65.1006 468.07 64.9439C468.221 64.7873 468.305 64.5781 468.305 64.3603C468.305 64.1425 468.221 63.9333 468.07 63.7767C467.918 63.62 467.712 63.5283 467.494 63.5208H436.073C435.855 63.5283 435.649 63.62 435.497 63.7767C435.346 63.9333 435.261 64.1425 435.261 64.3603C435.261 64.5781 435.346 64.7873 435.497 64.9439C435.649 65.1006 435.855 65.1923 436.073 65.1998Z" fill="#F1F1F1"/>
<path d="M466.118 55.6002L471.027 60.08C471.588 60.5923 473.133 61.6501 473.482 62.3199C474.203 63.7049 473.428 63.3889 472.192 63.8689C469.155 65.0771 466.357 66.8143 463.927 68.9999C463.114 69.7157 464.306 70.8995 465.114 70.1872C467.33 68.1959 469.877 66.6057 472.638 65.488C473.629 65.0963 475.508 64.8669 475.978 63.6876C476.554 62.2441 474.72 61.179 473.851 60.386L467.305 54.4128C466.508 53.6856 465.317 54.8698 466.118 55.6001V55.6002Z" fill="#F1F1F1"/>
<path d="M389.862 121.146H412.985C414.563 112.026 414.563 102.703 412.985 93.5832H389.862C392.467 102.586 392.467 112.143 389.862 121.146Z" fill="#FF6584"/>
<path d="M293.569 100.438H316.693C318.271 91.3176 318.271 81.9944 316.693 72.8744H293.569C296.174 81.8776 296.174 91.4344 293.569 100.438Z" fill="#6C63FF"/>
<path d="M439.688 39.9903H462.811C464.389 30.8703 464.389 21.5471 462.811 12.427H439.688C442.293 21.4302 442.293 30.9871 439.688 39.9903Z" fill="#6C63FF"/>
</svg>
