<svg width="861" height="811" viewBox="0 0 861 811" fill="none" xmlns="http://www.w3.org/2000/svg">
<g clip-path="url(#clip0)">
<path d="M860.92 0H0V810.99H860.92V0Z" fill="white"/>
<path opacity="0.1" d="M265.83 29.6699C295.04 3.66994 340.9 -1.66006 382.63 0.40994C513.72 6.91994 632.05 70.2099 734.46 141.8C771.52 167.71 808 195.64 832.05 231.33C881.05 303.97 866.49 404.61 798.41 464.46C775.24 484.82 747.16 500.46 718.33 514.27C667.07 538.88 611.76 558.63 553.59 564.27C512.1 568.27 470.1 565.02 428.86 559.42C313.57 543.78 200.46 509.22 105.66 450.09C64.0701 424.16 24.8801 391.92 7.74006 349.97C-9.39994 308.02 1.57006 254.86 44.0301 230.03C61.5901 219.76 82.5901 215.12 103.14 210.77C133.4 204.36 164.14 198.04 191.45 185C219.65 171.54 253.04 145.51 247.45 115.72C241.46 83.7499 236.66 55.6699 265.83 29.6699Z" fill="#6C63FF"/>
<path d="M675.05 235.2C675.05 235.2 664.47 230.91 630.81 246.34C597.15 261.77 592.95 259.82 584.24 257.5C575.53 255.18 570.67 254.58 561.33 241.69C561.33 241.69 554.74 205.98 548.33 200.44C541.92 194.9 514.86 203.6 514.86 203.6C514.86 203.6 482.37 211.05 476.18 167.6C476.18 167.6 480.57 134.88 474.59 124.84C474.59 124.84 486.67 130.04 506.59 121.64C526.51 113.24 542.46 130.69 542.46 130.69C542.46 130.69 547.46 143.69 546.96 151.45C546.46 159.21 549.62 162.12 559.12 158.37C559.12 158.37 563.79 151.73 557.18 140.75C550.57 129.77 545.85 121.6 547.69 113.08C549.53 104.56 554.84 92.73 571.89 86.82C588.94 80.91 612.09 79.82 623.2 75.15C634.31 70.48 637.05 67.5 637.05 67.5C637.05 67.5 630.21 74.35 646.32 103.4C662.43 132.45 652.16 145.05 652.16 145.05C652.16 145.05 643.59 165.48 605.75 163.82C605.75 163.82 569.29 165.15 589.17 180.61C589.17 180.61 601.9 178.02 620.93 171.97C639.96 165.92 653.7 190.89 657.11 208.26C660.52 225.63 675.05 235.2 675.05 235.2Z" fill="#6C63FF"/>
<path d="M626.04 89.4999L626.24 89.4399C627.7 94.9799 611.41 117.26 597.48 134.97L597.32 134.84C616.96 109.9 627.17 93.7899 626.04 89.4999Z" fill="#444053"/>
<path d="M597.6 134.5L597.69 134.72C586.56 148.86 572.57 165.72 561.37 178.25C560.3 179.44 559.24 180.69 558.22 181.97L557.9 181.71C558.9 180.43 559.99 179.17 561.06 177.98C572.25 165.5 586.46 148.65 597.6 134.5Z" fill="#444053"/>
<path d="M558.17 181.39L558.39 181.77C538.01 207.22 536.66 246.77 536.61 247.08L532.31 242.08C532.36 241.76 537.65 207.02 558.17 181.39Z" fill="#444053"/>
<path d="M651.46 221.4C651.46 221.4 627.46 208.9 608.7 213.4C589.94 217.9 547.75 197.5 547.75 197.5C547.75 197.5 529.85 190.23 526.25 181.94C526.25 181.94 513.96 168.94 513.25 162.23C512.54 155.52 500.59 138.61 492.79 137.96" stroke="#444053" stroke-miterlimit="10"/>
<path d="M647.93 233.43C647.93 233.43 635.83 225.27 637.24 215.77" stroke="#444053" stroke-miterlimit="10"/>
<path d="M629.37 243.96C629.37 243.96 612.06 237.68 610.37 213.04" stroke="#444053" stroke-miterlimit="10"/>
<path d="M601.46 250.34C601.46 250.34 584.92 236.62 590.41 212.64" stroke="#444053" stroke-miterlimit="10"/>
<path d="M567.87 243.64C567.87 243.64 556.87 220.54 566.66 205.51" stroke="#444053" stroke-miterlimit="10"/>
<path d="M651.69 206.17C651.69 206.17 639.18 210.17 641.86 216.73" stroke="#444053" stroke-miterlimit="10"/>
<path d="M636.59 183.5C636.59 183.5 619.84 188.81 619.45 212.5" stroke="#444053" stroke-miterlimit="10"/>
<path d="M613.23 177.98C613.23 177.98 597.98 196.8 599.1 213.9" stroke="#444053" stroke-miterlimit="10"/>
<path d="M586.53 185.36C586.53 185.36 571.39 199.84 573.32 207.89" stroke="#444053" stroke-miterlimit="10"/>
<path d="M577.4 180.25C577.4 180.25 563.2 182.79 561.21 178.13" stroke="#444053" stroke-miterlimit="10"/>
<path d="M558.95 163.11C558.95 163.11 566.12 172.61 567.95 170.48" stroke="#444053" stroke-miterlimit="10"/>
<path d="M630.07 157.1C630.07 157.1 594.27 159.7 586.17 148.9" stroke="#444053" stroke-miterlimit="10"/>
<path d="M551.46 115.23C551.46 115.23 568.25 151.28 580.46 155.87" stroke="#444053" stroke-miterlimit="10"/>
<path d="M569.04 98.0601C569.04 98.0601 579.35 131.22 592.13 141.57" stroke="#444053" stroke-miterlimit="10"/>
<path d="M645.13 129.73C645.13 129.73 617.91 141.41 601.57 129.59" stroke="#444053" stroke-width="0.75" stroke-miterlimit="10"/>
<path d="M593.28 90.99C593.28 90.99 599.5 115.36 607.88 121.25" stroke="#444053" stroke-width="0.75" stroke-miterlimit="10"/>
<path d="M641.02 102.42C641.02 102.42 625.72 108.22 620.02 103.78" stroke="#444053" stroke-width="0.75" stroke-miterlimit="10"/>
<path d="M545.84 171.07C545.84 171.07 545.84 192.32 540.06 193.83" stroke="#444053" stroke-miterlimit="10"/>
<path d="M498.55 198.6C498.55 198.6 521.55 200.6 532.12 188.71" stroke="#444053" stroke-miterlimit="10"/>
<path d="M539.92 145.97C539.92 145.97 534.36 167.52 519.02 173.33" stroke="#444053" stroke-miterlimit="10"/>
<path d="M484.77 175.9C484.77 175.9 501.03 181.55 515.02 167.16" stroke="#444053" stroke-miterlimit="10"/>
<path d="M521.83 127.44C521.83 127.44 520.3 145.74 510.35 154.31" stroke="#444053" stroke-miterlimit="10"/>
<path d="M485.39 148.01C485.39 148.01 498.88 148.1 502.04 143.7" stroke="#444053" stroke-miterlimit="10"/>
<path opacity="0.1" d="M424.48 810.99C632.139 810.99 800.48 778.307 800.48 737.99C800.48 697.673 632.139 664.99 424.48 664.99C216.821 664.99 48.4801 697.673 48.4801 737.99C48.4801 778.307 216.821 810.99 424.48 810.99Z" fill="#6C63FF"/>
<path d="M447.06 435.03L446.95 438.92L440.19 677.44H428.83L434.39 438.92L434.5 434.43L447.06 435.03Z" fill="#504F60"/>
<path opacity="0.1" d="M447.06 435.03L446.95 438.92L440.19 677.44H428.83L434.39 438.92L434.5 434.43L447.06 435.03Z" fill="black"/>
<path d="M512.82 637.09L504.32 637.07L377.88 636.8L371.14 636.79L374.73 625.73H511.93L512.82 637.09Z" fill="#504F60"/>
<path opacity="0.1" d="M447.06 435.03L446.95 438.92H434.39L434.5 434.43L447.06 435.03Z" fill="black"/>
<path d="M451.84 429.2H430.77V437.13H451.84V429.2Z" fill="#504F60"/>
<path opacity="0.1" d="M379 625.73L377.88 636.8L371.14 636.79L374.73 625.73H379Z" fill="black"/>
<path d="M397.14 429.05L396.8 432.49L368.75 709.13L355.9 708.52L385.45 432.49L385.78 429.35L397.14 429.05Z" fill="#504F60"/>
<path opacity="0.1" d="M512.82 637.09L504.32 637.07L503.16 625.73H511.93L512.82 637.09Z" fill="black"/>
<path d="M526.27 708.52L513.41 709.13L485.37 432.49L485.02 429.05L496.38 429.35L496.71 432.49L526.27 708.52Z" fill="#504F60"/>
<path d="M580.97 156.3H297.61V428H580.97V156.3Z" fill="white"/>
<path d="M580.97 156.3H297.61V428H580.97V156.3Z" fill="white"/>
<path d="M444.81 65.44V131.04H433.76V65.44C433.728 64.6947 433.848 63.9507 434.111 63.2527C434.374 62.5547 434.776 61.9172 435.292 61.3786C435.809 60.84 436.428 60.4115 437.115 60.1187C437.801 59.8259 438.539 59.6749 439.285 59.6749C440.031 59.6749 440.769 59.8259 441.455 60.1187C442.142 60.4115 442.761 60.84 443.278 61.3786C443.794 61.9172 444.196 62.5547 444.459 63.2527C444.722 63.9507 444.842 64.6947 444.81 65.44Z" fill="#504F60"/>
<path opacity="0.1" d="M444.82 125.07H433.76V131.04H444.82V125.07Z" fill="black"/>
<path d="M449.15 129.55V151.22H429.46V129.55C429.46 129.197 429.53 128.847 429.665 128.521C429.8 128.194 429.998 127.898 430.248 127.648C430.498 127.398 430.794 127.2 431.121 127.065C431.447 126.93 431.797 126.86 432.15 126.86H446.46C447.173 126.863 447.855 127.147 448.359 127.651C448.863 128.155 449.147 128.837 449.15 129.55Z" fill="#504F60"/>
<path opacity="0.1" d="M439.29 144.79C441.599 144.79 443.47 142.919 443.47 140.61C443.47 138.301 441.599 136.43 439.29 136.43C436.981 136.43 435.11 138.301 435.11 140.61C435.11 142.919 436.981 144.79 439.29 144.79Z" fill="black"/>
<path d="M439.29 143.89C441.599 143.89 443.47 142.019 443.47 139.71C443.47 137.401 441.599 135.53 439.29 135.53C436.981 135.53 435.11 137.401 435.11 139.71C435.11 142.019 436.981 143.89 439.29 143.89Z" fill="#3F3D56"/>
<path opacity="0.1" d="M449.16 148.53H429.43V151.22H449.16V148.53Z" fill="black"/>
<path opacity="0.1" d="M457.22 152.12H421.35V158.1H457.22V152.12Z" fill="black"/>
<path d="M457.22 150.32H421.35V156.3H457.22V150.32Z" fill="#504F60"/>
<path opacity="0.1" d="M366.73 421H517.38C519.104 421 520.757 421.685 521.976 422.904C523.195 424.123 523.88 425.776 523.88 427.5V428.92H360.23V427.5C360.23 425.776 360.915 424.123 362.134 422.904C363.353 421.685 365.006 421 366.73 421Z" fill="black"/>
<path opacity="0.1" d="M385.78 429.35L397.14 429.05L396.8 432.49H385.45L385.78 429.35Z" fill="black"/>
<path opacity="0.1" d="M451.84 429.2H430.77V432.49H451.84V429.2Z" fill="black"/>
<path opacity="0.1" d="M496.71 432.49H485.37L485.02 429.05L496.38 429.35L496.71 432.49Z" fill="black"/>
<path d="M366.73 422.77H517.38C519.104 422.77 520.757 423.455 521.976 424.674C523.195 425.893 523.88 427.546 523.88 429.27V430.69H360.23V429.27C360.23 427.546 360.915 425.893 362.134 424.674C363.353 423.455 365.006 422.77 366.73 422.77Z" fill="#504F60"/>
<path opacity="0.05" d="M388 184.63C396.78 173.54 410.55 171.29 423.09 172.17C462.47 174.94 498.02 201.89 528.77 232.37C539.9 243.37 550.86 255.29 558.09 270.49C572.8 301.42 568.43 344.27 547.98 369.75C540.98 378.42 532.58 385.07 523.92 390.96C508.53 401.44 491.92 409.84 474.43 412.24C461.97 413.95 449.35 412.56 436.96 410.18C402.35 403.52 368.37 388.81 339.89 363.63C327.39 352.63 315.62 338.87 310.47 321.01C305.32 303.15 308.62 280.51 321.37 269.94C326.65 265.56 332.96 263.59 339.13 261.73C348.22 259.01 357.46 256.31 365.66 250.73C374.13 244.99 384.16 233.91 382.48 221.22C380.68 207.65 379.24 195.7 388 184.63Z" fill="#6C63FF"/>
<path d="M195.17 110.66C191.93 112.07 188.57 114.04 187.29 117.34C186.49 119.4 186.63 121.69 186.46 123.89C186.022 129.146 183.787 134.09 180.13 137.89C177.51 140.59 174.25 142.61 171.7 145.36C167.06 150.36 165.17 158.16 168.19 164.28C169.13 166.2 170.5 167.89 171.51 169.78C173.46 173.4 174.01 177.6 174.29 181.71C174.799 188.891 174.611 196.105 173.73 203.25C173.16 207.82 172.32 212.5 173.39 216.98C174.305 220.175 175.745 223.197 177.65 225.92C182.55 233.62 188.24 241.05 195.81 246.16C203.62 251.43 213.04 253.95 222.43 254.69C231.82 255.43 241.27 254.51 250.62 253.38C257.62 252.54 265.8 250.79 268.79 244.38C270.45 240.79 270.02 236.52 271.58 232.89C274.39 226.34 282.49 223.89 287.02 218.45C291.74 212.76 291.94 204.58 290.78 197.28C289.62 189.98 287.32 182.73 287.86 175.35C288.72 163.5 296.86 151.94 293.28 140.59C291.39 134.5 286.46 129.91 281.6 125.77C272.98 118.42 263.81 111.45 253.28 107.27C244.095 103.495 233.971 102.633 224.28 104.8C214.46 107.05 204.78 106.5 195.17 110.66Z" fill="#2F2E41"/>
<g opacity="0.08">
<path opacity="0.08" d="M174.46 186.29C174.585 182.519 174.515 178.744 174.25 174.98C173.97 170.88 173.42 166.68 171.47 163.05C170.47 161.16 169.09 159.48 168.15 157.56C167.655 156.545 167.285 155.474 167.05 154.37C166.299 157.713 166.686 161.212 168.15 164.31C169.09 166.23 170.46 167.92 171.47 169.81C173.42 173.43 173.97 177.63 174.25 181.74C174.4 183.25 174.46 184.77 174.46 186.29Z" fill="black"/>
<path opacity="0.08" d="M287.86 168.62C287.733 170.556 287.767 172.499 287.96 174.43C289.06 163.9 295.44 153.59 293.91 143.43C292.82 151.71 288.46 160.09 287.86 168.62Z" fill="black"/>
<path opacity="0.08" d="M287.02 211.72C282.49 217.21 274.39 219.61 271.58 226.15C270.02 229.79 270.45 234.06 268.79 237.65C265.79 244.06 257.65 245.81 250.62 246.65C241.27 247.78 231.83 248.71 222.43 247.96C213.03 247.21 203.62 244.7 195.81 239.43C188.24 234.32 182.55 226.89 177.65 219.18C175.746 216.46 174.306 213.442 173.39 210.25C173.257 209.703 173.153 209.148 173.08 208.59C172.712 211.391 172.817 214.234 173.39 217C174.305 220.195 175.745 223.217 177.65 225.94C182.55 233.64 188.24 241.07 195.81 246.18C203.62 251.45 213.04 253.97 222.43 254.71C231.82 255.45 241.27 254.53 250.62 253.4C257.62 252.56 265.8 250.81 268.79 244.4C270.45 240.81 270.02 236.54 271.58 232.91C274.39 226.36 282.49 223.91 287.02 218.47C291.02 213.67 291.76 207.1 291.21 200.79C290.94 204.771 289.48 208.579 287.02 211.72Z" fill="black"/>
</g>
<path d="M265.03 257.75C261.44 261.75 256.03 263.84 250.63 264.11C245.224 264.219 239.864 263.104 234.95 260.85C225.896 256.873 218.01 250.644 212.045 242.756C206.079 234.869 202.232 225.585 200.87 215.79C200.576 214.306 200.641 212.774 201.06 211.32C202.51 207.24 207.9 206.58 211.52 204.16C214.82 201.97 216.67 198.16 217.59 194.27C217.83 193.22 218.03 192.17 218.19 191.1C218.61 188.25 218.83 185.36 219.33 182.52C219.492 181.149 219.964 179.832 220.71 178.67C221.664 177.488 222.918 176.584 224.34 176.05C232.79 172.38 243.8 174.05 252.2 177.23C255.01 178.3 254.47 178.62 253.4 181.38C252.712 183.138 252.115 184.931 251.61 186.75C251.46 187.26 251.32 187.75 251.19 188.29C249.999 192.988 249.381 197.813 249.35 202.66C249.35 207.1 249.86 211.75 252.29 215.48C256.16 221.39 264.03 223.88 267.55 230.01C268.832 232.45 269.611 235.123 269.84 237.87C270.69 244.84 269.72 252.5 265.03 257.75Z" fill="#FBBEBE"/>
<path d="M174.52 703.35C173.771 706.132 173.434 709.01 173.52 711.89L173.24 726.89C173.04 737.71 172.87 748.74 176.06 759.08C177.033 762.695 178.772 766.057 181.16 768.94C182.363 770.37 183.854 771.53 185.536 772.345C187.218 773.16 189.052 773.611 190.92 773.67C192.467 773.61 193.998 773.337 195.47 772.86C198.15 772.08 200.95 770.86 202.4 768.48C204.33 765.3 203.26 761.26 202.49 757.62C200.78 749.52 200.84 741.17 200.91 732.89L201.08 712.66C201.022 709.91 201.196 707.161 201.6 704.44C201.99 702.27 202.67 700.14 202.84 697.95C203.071 696.249 202.668 694.523 201.71 693.1C200.744 691.991 199.441 691.228 198 690.93C195.43 690.27 192.73 690.44 190.1 690.04C188.921 689.888 187.774 689.55 186.7 689.04C186.06 688.73 184.7 687.3 184.04 687.31C182.74 687.31 181.89 690.88 181.17 692.11C178.96 695.82 175.88 699.13 174.52 703.35Z" fill="#FBBEBE"/>
<path d="M257.37 564.34C250.25 585.6 255.09 609.06 252.51 631.42C251.575 638.485 250.263 645.495 248.58 652.42L236.21 707.5C234.16 716.66 232.09 725.88 231.81 735.26C231.53 744.64 233.13 754.26 237.97 762.33C240.854 767.012 244.727 771.008 249.316 774.037C253.905 777.067 259.101 779.058 264.54 779.87C266.296 780.115 267.957 780.814 269.36 781.898C270.763 782.982 271.859 784.413 272.54 786.05C272.747 786.567 272.904 787.103 273.01 787.65C273.292 788.969 273.223 790.339 272.811 791.623C272.399 792.908 271.657 794.062 270.66 794.97C268.66 796.57 265.94 796.79 263.41 796.58C251.53 795.58 241.62 786.7 229.88 784.58C219.78 782.77 208.88 786.07 199.36 782.28C198.738 782.058 198.164 781.718 197.67 781.28C197.113 780.704 196.714 779.995 196.51 779.22C194.27 772.22 198.87 765.14 201.91 758.46C206.235 748.92 207.574 738.295 205.75 727.98C203.67 716.34 205.82 704.04 206.44 692.18C207.101 681.189 208.598 670.264 210.92 659.5C212.42 652.31 213.69 644.96 216.61 638.21C218.36 634.21 220.67 630.4 222.51 626.41C225.91 619.04 227.65 611.03 229.33 603.09C232.71 587.09 235.99 570.96 235.99 554.62C242.282 554.605 248.521 555.776 254.38 558.07C255.571 558.554 256.538 559.465 257.091 560.625C257.645 561.785 257.744 563.11 257.37 564.34Z" fill="#FBBEBE"/>
<path opacity="0.08" d="M257.37 564.34C250.25 585.6 255.09 609.06 252.51 631.42C251.575 638.485 250.263 645.495 248.58 652.42L236.21 707.5C234.16 716.66 232.09 725.88 231.81 735.26C231.53 744.64 233.13 754.26 237.97 762.33C240.854 767.012 244.727 771.008 249.316 774.037C253.905 777.067 259.101 779.058 264.54 779.87C266.296 780.115 267.957 780.814 269.36 781.898C270.763 782.982 271.859 784.413 272.54 786.05C272.747 786.567 272.904 787.103 273.01 787.65C273.292 788.969 273.223 790.339 272.811 791.623C272.399 792.908 271.657 794.062 270.66 794.97C268.66 796.57 265.94 796.79 263.41 796.58C251.53 795.58 241.62 786.7 229.88 784.58C219.78 782.77 208.88 786.07 199.36 782.28C198.738 782.058 198.164 781.718 197.67 781.28C197.113 780.704 196.714 779.995 196.51 779.22C194.27 772.22 198.87 765.14 201.91 758.46C206.235 748.92 207.574 738.295 205.75 727.98C203.67 716.34 205.82 704.04 206.44 692.18C207.101 681.189 208.598 670.264 210.92 659.5C212.42 652.31 213.69 644.96 216.61 638.21C218.36 634.21 220.67 630.4 222.51 626.41C225.91 619.04 227.65 611.03 229.33 603.09C232.71 587.09 235.99 570.96 235.99 554.62C242.282 554.605 248.521 555.776 254.38 558.07C255.571 558.554 256.538 559.465 257.091 560.625C257.645 561.785 257.744 563.11 257.37 564.34Z" fill="black"/>
<path d="M264.52 554.3C264.12 564.633 263.737 574.967 263.37 585.3C263.37 585.65 263.37 585.99 263.37 586.3C263.323 590.262 262.988 594.216 262.37 598.13C261.02 605.47 257.7 612.29 254.19 618.88C253.146 620.967 251.945 622.973 250.6 624.88C249.42 626.48 248.05 627.94 246.95 629.58C244.1 633.84 243.22 639.06 241.55 643.9C233.92 665.98 210.11 679.3 202.13 701.24C196.086 699.552 190.177 697.416 184.45 694.85C183.87 694.732 183.323 694.491 182.844 694.144C182.365 693.796 181.965 693.351 181.673 692.836C181.38 692.322 181.201 691.751 181.147 691.162C181.093 690.573 181.166 689.979 181.36 689.42C183.18 675.99 186.36 662.77 189.54 649.57C191.67 640.68 193.89 631.64 198.67 623.84C202.67 617.32 208.3 612 213.58 606.46C215.47 604.46 217.42 602.26 217.86 599.55C218.032 597.876 217.914 596.184 217.51 594.55C216.43 588.55 215.65 582.5 215.17 576.4C215.17 576.06 215.17 575.71 215.08 575.4C214.63 570.81 213.54 564.84 214.54 560.55C216.35 552.75 231.54 551.15 238.19 550.99C247 550.74 255.81 552.5 264.52 554.3Z" fill="#FBBEBE"/>
<path d="M282.57 346.94C292.66 351.23 304.22 350 314.93 347.59C325.64 345.18 336.24 341.68 347.21 341.59C350.28 341.59 354.14 342.5 354.67 345.53C354.95 347.11 354.12 348.66 353.32 350.06C351.85 352.65 350.27 355.35 347.74 356.91C345.74 358.12 343.44 358.52 341.22 359.15C337.07 360.33 333.22 362.39 329.22 363.97C322.43 366.65 315.22 367.97 307.99 369.23C304.637 369.972 301.202 370.284 297.77 370.16C295.48 369.921 293.217 369.469 291.01 368.81C284.51 367.05 278.083 365.05 271.73 362.81C270.47 362.36 269.07 361.81 268.57 360.53C268.339 359.758 268.288 358.944 268.42 358.15C268.672 354.935 268.388 351.701 267.58 348.58C267.17 347.02 263.96 341.45 265.04 340.32C267.53 337.69 280.05 345.87 282.57 346.94Z" fill="#FBBEBE"/>
<path opacity="0.08" d="M282.57 346.94C292.66 351.23 304.22 350 314.93 347.59C325.64 345.18 336.24 341.68 347.21 341.59C350.28 341.59 354.14 342.5 354.67 345.53C354.95 347.11 354.12 348.66 353.32 350.06C351.85 352.65 350.27 355.35 347.74 356.91C345.74 358.12 343.44 358.52 341.22 359.15C337.07 360.33 333.22 362.39 329.22 363.97C322.43 366.65 315.22 367.97 307.99 369.23C304.637 369.972 301.202 370.284 297.77 370.16C295.48 369.921 293.217 369.469 291.01 368.81C284.51 367.05 278.083 365.05 271.73 362.81C270.47 362.36 269.07 361.81 268.57 360.53C268.339 359.758 268.288 358.944 268.42 358.15C268.672 354.935 268.388 351.701 267.58 348.58C267.17 347.02 263.96 341.45 265.04 340.32C267.53 337.69 280.05 345.87 282.57 346.94Z" fill="black"/>
<path opacity="0.1" d="M253.4 181.38C252.712 183.138 252.115 184.931 251.61 186.75C246.939 190.4 241.373 192.729 235.495 193.494C229.616 194.259 223.64 193.432 218.19 191.1C218.61 188.25 218.83 185.36 219.33 182.52C219.492 181.149 219.964 179.832 220.71 178.67C221.664 177.488 222.918 176.584 224.34 176.05C232.79 172.38 243.8 174.05 252.2 177.23C255.01 178.3 254.46 178.62 253.4 181.38Z" fill="black"/>
<path d="M231.24 192.42C249.515 192.42 264.33 177.605 264.33 159.33C264.33 141.055 249.515 126.24 231.24 126.24C212.965 126.24 198.15 141.055 198.15 159.33C198.15 177.605 212.965 192.42 231.24 192.42Z" fill="#FBBEBE"/>
<path opacity="0.08" d="M264.52 554.3C264.12 564.633 263.737 574.967 263.37 585.3C258.06 585.6 252.78 584.05 247.68 582.53C237.06 579.39 225.99 576.3 215.02 575.38C214.57 570.79 213.48 564.82 214.48 560.53C216.29 552.73 231.48 551.13 238.13 550.97C247 550.74 255.81 552.5 264.52 554.3Z" fill="black"/>
<path d="M298.86 569.27C298.28 570.39 297.52 571.97 296.58 571.15C285.3 570.15 275.75 579.98 264.49 581.15C258.8 581.74 253.14 580.08 247.68 578.46C229.32 573.02 209.62 567.75 191.39 573.53C191.159 563.093 190.261 552.682 188.7 542.36C186.98 531.05 184.46 519.85 183.16 508.48C180.74 487.37 182.54 465.99 180.78 444.82C180.08 436.28 178.78 427.82 178.04 419.28C176.27 399.09 174.31 377.6 182.7 359.15C183.9 356.483 185.107 353.833 186.32 351.2C186.689 350.507 186.923 349.75 187.01 348.97C187.024 348.577 186.97 348.184 186.85 347.81C186.36 346.13 184.74 344.81 183.77 343.23C182.13 340.65 182.31 337.35 182.54 334.3C182.65 333.01 182.99 331.95 183.08 330.66C179.57 325.79 177.52 320.23 175.98 314.41C174.21 307.81 173.09 300.89 171.13 294.35C167.98 283.85 162.59 274.08 159.95 263.44C158.59 257.97 158.49 252.08 158.42 246.44C158.405 244.143 158.576 241.849 158.93 239.58C159.39 236.73 160.46 234.06 163.08 232.83C165.13 229.83 165.79 226.12 165.91 222.48C166.01 220.05 165.91 217.54 166.79 215.27C168.58 210.75 173.79 208.61 178.57 207.9C183.35 207.19 188.44 207.36 192.86 205.33C194.525 204.514 196.112 203.546 197.6 202.44C203.296 198.649 208.756 194.515 213.95 190.06C214.074 189.935 214.23 189.845 214.4 189.8C214.63 189.8 214.83 189.95 215.01 190.1C219.17 193.8 223.31 197.5 227.47 201.19C229.74 203.19 232.01 205.19 234.1 207.42C237.074 210.55 239.662 214.025 241.81 217.77C242.823 219.47 243.731 221.23 244.53 223.04C245.783 225.834 246.804 228.727 247.58 231.69C248 233.26 248.34 234.84 248.58 236.43C248.77 237.58 248.93 238.74 249.04 239.92C249.093 240.307 249.133 240.697 249.16 241.09C249.856 240.947 250.514 240.657 251.09 240.24C251.704 239.804 252.18 239.2 252.46 238.5C252.715 237.856 252.892 237.185 252.99 236.5C253.112 235.632 253.179 234.757 253.19 233.88C253.19 232.88 253.26 231.79 253.26 230.75C253.266 228.928 253.095 227.109 252.75 225.32C252.08 222.04 250.63 218.97 249.75 215.74C248.87 212.51 248.59 208.88 250.23 205.95C250.85 204.84 252 203.76 253.23 204.02C253.693 204.18 254.114 204.443 254.461 204.789C254.807 205.136 255.07 205.557 255.23 206.02C255.802 207.342 256.088 208.77 256.07 210.21C256.07 210.91 256.07 211.48 256.71 211.83C256.86 215.11 259.39 217.83 262.13 219.6C264.87 221.37 267.99 222.66 270.44 224.85C273.56 227.61 275.28 231.55 277.44 235.11C278.724 236.975 279.776 238.99 280.57 241.11C281.055 243.142 281.237 245.235 281.11 247.32C280.983 260.233 280.843 273.14 280.69 286.04C280.46 291.473 280.728 296.916 281.49 302.3C282 305.3 282.83 308.23 282.89 311.3C283.1 319.76 277.19 326.87 273.09 334.3C270.09 339.67 271.2 346.46 273.83 352.03C276.46 357.6 280.46 362.36 283.53 367.68C294.4 386.52 292.62 409.68 291.98 431.47C291.001 465.326 293.605 499.191 299.75 532.5C302.01 544.79 304.63 558.17 298.86 569.27Z" fill="#DA6D42"/>
<path opacity="0.08" d="M248.61 236.5C247.51 236.5 246.43 236.61 245.34 236.73C245.34 237.73 245.34 238.73 245.34 239.73C246.56 239.73 247.81 239.84 249.04 239.99C249.72 240.07 250.41 240.16 251.09 240.31C253.245 240.68 255.292 241.516 257.09 242.76C260.45 245.15 262.43 249.89 260.52 253.53L259.27 254.05C259.777 255.403 259.83 256.884 259.42 258.27C258.83 259.58 256.88 260.34 255.92 259.27C254.84 258.04 255.81 255.57 254.36 254.81C253.89 254.627 253.368 254.628 252.899 254.814C252.43 254.999 252.048 255.355 251.83 255.81C251.445 256.761 251.351 257.805 251.56 258.81C252.56 266.72 256.34 274.19 256.48 282.17C256.53 284.74 256.58 287.78 254.78 289.6C251.333 293.12 247.873 296.643 244.4 300.17C237.94 306.75 231.47 313.34 224.65 319.54C214.093 329.157 202.717 337.833 190.65 345.47C189.38 346.28 188.1 347.06 186.82 347.85C186.33 346.17 184.71 344.85 183.74 343.27C182.1 340.69 182.28 337.39 182.51 334.34C182.62 333.05 182.96 331.99 183.05 330.7C179.54 325.83 177.49 320.27 175.95 314.45C176.41 314.45 176.85 314.45 177.3 314.45C182.12 314.38 186.74 312.64 191.23 310.92C195.27 309.49 199.215 307.803 203.04 305.87C208.797 302.64 214.165 298.761 219.04 294.31C222.11 291.65 225.78 289.11 229.83 288.87C232.25 286.38 235.99 284.98 237.24 281.74C237.772 279.921 237.83 277.997 237.41 276.15C236.743 271.763 235.804 267.421 234.6 263.15C233.6 259.8 233.87 256.5 233.24 253.07C232.396 249.3 232.007 245.443 232.08 241.58C232.52 234.35 236.17 227.78 239.73 221.48C240.44 220.27 241.13 219.04 241.81 217.81C242.38 216.81 242.96 215.81 243.53 214.81C244.21 214.945 244.824 215.306 245.272 215.834C245.721 216.363 245.977 217.027 246 217.72C246.006 219.106 245.691 220.475 245.08 221.72C244.89 222.18 244.72 222.64 244.53 223.1C242.91 227.17 241.27 231.24 239.65 235.32C242.188 233.909 244.841 232.715 247.58 231.75C248.732 231.384 249.913 231.113 251.11 230.94C251.829 230.841 252.554 230.798 253.28 230.81C256.71 230.81 260.17 232.02 262.28 234.7C263.08 235.7 263.62 237.25 262.77 238.21C259.588 237.315 256.319 236.762 253.02 236.56C251.55 236.44 250.08 236.41 248.61 236.5Z" fill="black"/>
<path d="M295.39 339.63L280.53 390.95L364.27 362.59L375.07 318.02L295.39 339.63ZM331.85 339.63C328.85 339.63 326.45 338.42 326.45 336.93C326.45 335.44 328.87 334.23 331.85 334.23C334.83 334.23 337.26 335.44 337.26 336.93C337.26 338.42 334.84 339.63 331.85 339.63Z" fill="#464353"/>
<path d="M234.62 156.63C254.386 156.63 270.41 148.768 270.41 139.07C270.41 129.372 254.386 121.51 234.62 121.51C214.854 121.51 198.83 129.372 198.83 139.07C198.83 148.768 214.854 156.63 234.62 156.63Z" fill="#2F2E41"/>
<path opacity="0.9" d="M307.54 351.11C310.152 351.11 312.27 350.506 312.27 349.76C312.27 349.014 310.152 348.41 307.54 348.41C304.928 348.41 302.81 349.014 302.81 349.76C302.81 350.506 304.928 351.11 307.54 351.11Z" fill="#6C63FF"/>
<path opacity="0.9" d="M302.14 357.86C304.752 357.86 306.87 357.256 306.87 356.51C306.87 355.764 304.752 355.16 302.14 355.16C299.528 355.16 297.41 355.764 297.41 356.51C297.41 357.256 299.528 357.86 302.14 357.86Z" fill="#FBBEBE"/>
<path opacity="0.9" d="M337.26 348.4C339.872 348.4 341.99 347.796 341.99 347.05C341.99 346.304 339.872 345.7 337.26 345.7C334.648 345.7 332.53 346.304 332.53 347.05C332.53 347.796 334.648 348.4 337.26 348.4Z" fill="#FBBEBE"/>
<path opacity="0.9" d="M306.19 357.86C308.802 357.86 310.92 357.256 310.92 356.51C310.92 355.764 308.802 355.16 306.19 355.16C303.578 355.16 301.46 355.764 301.46 356.51C301.46 357.256 303.578 357.86 306.19 357.86Z" fill="#FBBEBE"/>
<path opacity="0.9" d="M298.09 356.51C300.702 356.51 302.82 355.906 302.82 355.16C302.82 354.414 300.702 353.81 298.09 353.81C295.478 353.81 293.36 354.414 293.36 355.16C293.36 355.906 295.478 356.51 298.09 356.51Z" fill="#FBBEBE"/>
<path opacity="0.9" d="M298.09 360.56C300.702 360.56 302.82 359.956 302.82 359.21C302.82 358.464 300.702 357.86 298.09 357.86C295.478 357.86 293.36 358.464 293.36 359.21C293.36 359.956 295.478 360.56 298.09 360.56Z" fill="#FBBEBE"/>
<path opacity="0.9" d="M308.89 355.16C311.502 355.16 313.62 354.556 313.62 353.81C313.62 353.064 311.502 352.46 308.89 352.46C306.278 352.46 304.16 353.064 304.16 353.81C304.16 354.556 306.278 355.16 308.89 355.16Z" fill="#FBBEBE"/>
<path opacity="0.9" d="M300.79 352.46C303.402 352.46 305.52 351.856 305.52 351.11C305.52 350.364 303.402 349.76 300.79 349.76C298.178 349.76 296.06 350.364 296.06 351.11C296.06 351.856 298.178 352.46 300.79 352.46Z" fill="#FBBEBE"/>
<path opacity="0.9" d="M310.25 356.51C312.862 356.51 314.98 355.906 314.98 355.16C314.98 354.414 312.862 353.81 310.25 353.81C307.638 353.81 305.52 354.414 305.52 355.16C305.52 355.906 307.638 356.51 310.25 356.51Z" fill="#6C63FF"/>
<path opacity="0.9" d="M312.95 349.75C315.562 349.75 317.68 349.146 317.68 348.4C317.68 347.654 315.562 347.05 312.95 347.05C310.338 347.05 308.22 347.654 308.22 348.4C308.22 349.146 310.338 349.75 312.95 349.75Z" fill="#6C63FF"/>
<path opacity="0.9" d="M312.95 352.46C315.562 352.46 317.68 351.856 317.68 351.11C317.68 350.364 315.562 349.76 312.95 349.76C310.338 349.76 308.22 350.364 308.22 351.11C308.22 351.856 310.338 352.46 312.95 352.46Z" fill="#6C63FF"/>
<path opacity="0.9" d="M314.3 356.51C316.912 356.51 319.03 355.906 319.03 355.16C319.03 354.414 316.912 353.81 314.3 353.81C311.688 353.81 309.57 354.414 309.57 355.16C309.57 355.906 311.688 356.51 314.3 356.51Z" fill="#6C63FF"/>
<path opacity="0.9" d="M327.8 351.11C330.412 351.11 332.53 350.506 332.53 349.76C332.53 349.014 330.412 348.41 327.8 348.41C325.188 348.41 323.07 349.014 323.07 349.76C323.07 350.506 325.188 351.11 327.8 351.11Z" fill="#6C63FF"/>
<path opacity="0.9" d="M333.2 349.75C335.812 349.75 337.93 349.146 337.93 348.4C337.93 347.654 335.812 347.05 333.2 347.05C330.588 347.05 328.47 347.654 328.47 348.4C328.47 349.146 330.588 349.75 333.2 349.75Z" fill="#6C63FF"/>
<path opacity="0.9" d="M333.2 352.46C335.812 352.46 337.93 351.856 337.93 351.11C337.93 350.364 335.812 349.76 333.2 349.76C330.588 349.76 328.47 350.364 328.47 351.11C328.47 351.856 330.588 352.46 333.2 352.46Z" fill="#6C63FF"/>
<path opacity="0.9" d="M326.45 356.51C329.062 356.51 331.18 355.906 331.18 355.16C331.18 354.414 329.062 353.81 326.45 353.81C323.838 353.81 321.72 354.414 321.72 355.16C321.72 355.906 323.838 356.51 326.45 356.51Z" fill="#6C63FF"/>
<path opacity="0.9" d="M327.8 356.51C330.412 356.51 332.53 355.906 332.53 355.16C332.53 354.414 330.412 353.81 327.8 353.81C325.188 353.81 323.07 354.414 323.07 355.16C323.07 355.906 325.188 356.51 327.8 356.51Z" fill="#6C63FF"/>
<path opacity="0.9" d="M326.45 356.51C329.062 356.51 331.18 355.906 331.18 355.16C331.18 354.414 329.062 353.81 326.45 353.81C323.838 353.81 321.72 354.414 321.72 355.16C321.72 355.906 323.838 356.51 326.45 356.51Z" fill="#6C63FF"/>
<path opacity="0.9" d="M322.4 356.51C325.012 356.51 327.13 355.906 327.13 355.16C327.13 354.414 325.012 353.81 322.4 353.81C319.788 353.81 317.67 354.414 317.67 355.16C317.67 355.906 319.788 356.51 322.4 356.51Z" fill="#6C63FF"/>
<path opacity="0.9" d="M317 351.11C319.612 351.11 321.73 350.506 321.73 349.76C321.73 349.014 319.612 348.41 317 348.41C314.388 348.41 312.27 349.014 312.27 349.76C312.27 350.506 314.388 351.11 317 351.11Z" fill="#6C63FF"/>
<path opacity="0.9" d="M318.35 353.81C320.962 353.81 323.08 353.206 323.08 352.46C323.08 351.714 320.962 351.11 318.35 351.11C315.738 351.11 313.62 351.714 313.62 352.46C313.62 353.206 315.738 353.81 318.35 353.81Z" fill="#6C63FF"/>
<path opacity="0.9" d="M322.4 349.75C325.012 349.75 327.13 349.146 327.13 348.4C327.13 347.654 325.012 347.05 322.4 347.05C319.788 347.05 317.67 347.654 317.67 348.4C317.67 349.146 319.788 349.75 322.4 349.75Z" fill="#3F3D56"/>
<path opacity="0.9" d="M322.4 352.46C325.012 352.46 327.13 351.856 327.13 351.11C327.13 350.364 325.012 349.76 322.4 349.76C319.788 349.76 317.67 350.364 317.67 351.11C317.67 351.856 319.788 352.46 322.4 352.46Z" fill="#6C63FF"/>
<path d="M321.05 353.81C323.662 353.81 325.78 353.206 325.78 352.46C325.78 351.714 323.662 351.11 321.05 351.11C318.438 351.11 316.32 351.714 316.32 352.46C316.32 353.206 318.438 353.81 321.05 353.81Z" fill="#F86D70"/>
<path opacity="0.9" d="M326.45 353.81C329.062 353.81 331.18 353.206 331.18 352.46C331.18 351.714 329.062 351.11 326.45 351.11C323.838 351.11 321.72 351.714 321.72 352.46C321.72 353.206 323.838 353.81 326.45 353.81Z" fill="#6C63FF"/>
<path opacity="0.9" d="M329.15 359.21C331.762 359.21 333.88 358.606 333.88 357.86C333.88 357.114 331.762 356.51 329.15 356.51C326.538 356.51 324.42 357.114 324.42 357.86C324.42 358.606 326.538 359.21 329.15 359.21Z" fill="#6C63FF"/>
<path opacity="0.9" d="M331.85 352.46C334.462 352.46 336.58 351.856 336.58 351.11C336.58 350.364 334.462 349.76 331.85 349.76C329.238 349.76 327.12 350.364 327.12 351.11C327.12 351.856 329.238 352.46 331.85 352.46Z" fill="#6C63FF"/>
<path opacity="0.9" d="M331.85 355.16C334.462 355.16 336.58 354.556 336.58 353.81C336.58 353.064 334.462 352.46 331.85 352.46C329.238 352.46 327.12 353.064 327.12 353.81C327.12 354.556 329.238 355.16 331.85 355.16Z" fill="#6C63FF"/>
<path opacity="0.9" d="M333.2 359.21C335.812 359.21 337.93 358.606 337.93 357.86C337.93 357.114 335.812 356.51 333.2 356.51C330.588 356.51 328.47 357.114 328.47 357.86C328.47 358.606 330.588 359.21 333.2 359.21Z" fill="#6C63FF"/>
<path opacity="0.9" d="M346.71 353.81C349.322 353.81 351.44 353.206 351.44 352.46C351.44 351.714 349.322 351.11 346.71 351.11C344.098 351.11 341.98 351.714 341.98 352.46C341.98 353.206 344.098 353.81 346.71 353.81Z" fill="#6C63FF"/>
<path opacity="0.9" d="M352.11 352.46C354.722 352.46 356.84 351.856 356.84 351.11C356.84 350.364 354.722 349.76 352.11 349.76C349.498 349.76 347.38 350.364 347.38 351.11C347.38 351.856 349.498 352.46 352.11 352.46Z" fill="#6C63FF"/>
<path opacity="0.9" d="M352.11 355.16C354.722 355.16 356.84 354.556 356.84 353.81C356.84 353.064 354.722 352.46 352.11 352.46C349.498 352.46 347.38 353.064 347.38 353.81C347.38 354.556 349.498 355.16 352.11 355.16Z" fill="#A1616A"/>
<path opacity="0.9" d="M345.36 359.21C347.972 359.21 350.09 358.606 350.09 357.86C350.09 357.114 347.972 356.51 345.36 356.51C342.748 356.51 340.63 357.114 340.63 357.86C340.63 358.606 342.748 359.21 345.36 359.21Z" fill="#6C63FF"/>
<path opacity="0.9" d="M346.71 359.21C349.322 359.21 351.44 358.606 351.44 357.86C351.44 357.114 349.322 356.51 346.71 356.51C344.098 356.51 341.98 357.114 341.98 357.86C341.98 358.606 344.098 359.21 346.71 359.21Z" fill="#6C63FF"/>
<path opacity="0.9" d="M345.36 359.21C347.972 359.21 350.09 358.606 350.09 357.86C350.09 357.114 347.972 356.51 345.36 356.51C342.748 356.51 340.63 357.114 340.63 357.86C340.63 358.606 342.748 359.21 345.36 359.21Z" fill="#6C63FF"/>
<path d="M341.31 359.21C343.922 359.21 346.04 358.606 346.04 357.86C346.04 357.114 343.922 356.51 341.31 356.51C338.698 356.51 336.58 357.114 336.58 357.86C336.58 358.606 338.698 359.21 341.31 359.21Z" fill="#F86D70"/>
<path opacity="0.9" d="M335.91 353.81C338.522 353.81 340.64 353.206 340.64 352.46C340.64 351.714 338.522 351.11 335.91 351.11C333.298 351.11 331.18 351.714 331.18 352.46C331.18 353.206 333.298 353.81 335.91 353.81Z" fill="#6C63FF"/>
<path opacity="0.9" d="M337.26 356.51C339.872 356.51 341.99 355.906 341.99 355.16C341.99 354.414 339.872 353.81 337.26 353.81C334.648 353.81 332.53 354.414 332.53 355.16C332.53 355.906 334.648 356.51 337.26 356.51Z" fill="#6C63FF"/>
<path opacity="0.9" d="M341.31 352.46C343.922 352.46 346.04 351.856 346.04 351.11C346.04 350.364 343.922 349.76 341.31 349.76C338.698 349.76 336.58 350.364 336.58 351.11C336.58 351.856 338.698 352.46 341.31 352.46Z" fill="#A1616A"/>
<path d="M341.31 355.16C343.922 355.16 346.04 354.556 346.04 353.81C346.04 353.064 343.922 352.46 341.31 352.46C338.698 352.46 336.58 353.064 336.58 353.81C336.58 354.556 338.698 355.16 341.31 355.16Z" fill="#F86D70"/>
<path d="M339.96 356.51C342.572 356.51 344.69 355.906 344.69 355.16C344.69 354.414 342.572 353.81 339.96 353.81C337.348 353.81 335.23 354.414 335.23 355.16C335.23 355.906 337.348 356.51 339.96 356.51Z" fill="#F86D70"/>
<path opacity="0.9" d="M294.037 366.073C296.604 365.592 298.574 364.607 298.436 363.874C298.299 363.141 296.106 362.938 293.539 363.42C290.971 363.902 289.001 364.886 289.139 365.619C289.276 366.352 291.469 366.555 294.037 366.073Z" fill="#6C63FF"/>
<path opacity="0.9" d="M297.681 370.888C300.249 370.406 302.219 369.421 302.081 368.688C301.944 367.956 299.751 367.752 297.183 368.234C294.616 368.716 292.646 369.701 292.783 370.433C292.921 371.166 295.114 371.37 297.681 370.888Z" fill="#6C63FF"/>
<path opacity="0.9" d="M299.092 363.76C301.659 363.278 303.629 362.293 303.492 361.561C303.354 360.828 301.161 360.624 298.594 361.106C296.026 361.588 294.056 362.573 294.194 363.306C294.332 364.038 296.524 364.242 299.092 363.76Z" fill="#6C63FF"/>
<path opacity="0.9" d="M296.426 367.33C298.986 366.86 300.952 365.886 300.818 365.155C300.684 364.425 298.5 364.214 295.94 364.684C293.38 365.154 291.413 366.127 291.547 366.858C291.682 367.589 293.866 367.8 296.426 367.33Z" fill="#6C63FF"/>
<path opacity="0.9" d="M301.666 370.146C304.234 369.664 306.204 368.68 306.066 367.947C305.929 367.214 303.736 367.011 301.168 367.493C298.601 367.974 296.631 368.959 296.769 369.692C296.906 370.425 299.099 370.628 301.666 370.146Z" fill="#6C63FF"/>
<path opacity="0.9" d="M313.945 362.335C316.513 361.853 318.482 360.868 318.345 360.136C318.207 359.403 316.014 359.199 313.447 359.681C310.88 360.163 308.91 361.148 309.047 361.881C309.185 362.613 311.378 362.817 313.945 362.335Z" fill="#6C63FF"/>
<path opacity="0.9" d="M319.01 360.021C321.578 359.539 323.548 358.555 323.41 357.822C323.273 357.089 321.08 356.886 318.512 357.368C315.945 357.85 313.975 358.834 314.112 359.567C314.25 360.3 316.443 360.503 319.01 360.021Z" fill="#6C63FF"/>
<path opacity="0.9" d="M319.502 362.674C322.07 362.192 324.04 361.207 323.902 360.474C323.765 359.741 321.572 359.538 319.004 360.02C316.437 360.502 314.467 361.486 314.604 362.219C314.742 362.952 316.935 363.155 319.502 362.674Z" fill="#6C63FF"/>
<path opacity="0.9" d="M313.616 367.9C316.184 367.419 318.154 366.434 318.016 365.701C317.879 364.968 315.686 364.765 313.118 365.247C310.551 365.729 308.581 366.713 308.718 367.446C308.856 368.179 311.049 368.382 313.616 367.9Z" fill="#6C63FF"/>
<path opacity="0.9" d="M314.938 367.651C317.505 367.169 319.475 366.185 319.337 365.452C319.2 364.719 317.007 364.516 314.439 364.998C311.872 365.479 309.902 366.464 310.04 367.197C310.177 367.93 312.37 368.133 314.938 367.651Z" fill="#6C63FF"/>
<path opacity="0.9" d="M313.616 367.9C316.184 367.419 318.154 366.434 318.016 365.701C317.879 364.968 315.686 364.765 313.118 365.247C310.551 365.729 308.581 366.713 308.718 367.446C308.856 368.179 311.049 368.382 313.616 367.9Z" fill="#6C63FF"/>
<path opacity="0.9" d="M309.633 368.642C312.2 368.16 314.17 367.175 314.033 366.442C313.895 365.71 311.702 365.506 309.135 365.988C306.567 366.47 304.598 367.455 304.735 368.187C304.873 368.92 307.066 369.124 309.633 368.642Z" fill="#6C63FF"/>
<path opacity="0.9" d="M303.326 364.34C305.894 363.858 307.864 362.873 307.726 362.14C307.588 361.408 305.396 361.204 302.828 361.686C300.261 362.168 298.291 363.153 298.428 363.885C298.566 364.618 300.759 364.822 303.326 364.34Z" fill="#3F3D56"/>
<path opacity="0.9" d="M305.158 366.731C307.725 366.249 309.695 365.264 309.557 364.532C309.42 363.799 307.227 363.595 304.659 364.077C302.092 364.559 300.122 365.544 300.26 366.277C300.397 367.009 302.59 367.213 305.158 366.731Z" fill="#6C63FF"/>
<path opacity="0.9" d="M308.39 362.006C310.957 361.524 312.927 360.54 312.789 359.807C312.652 359.074 310.459 358.871 307.892 359.353C305.324 359.834 303.354 360.819 303.492 361.552C303.629 362.285 305.822 362.488 308.39 362.006Z" fill="#3F3D56"/>
<path opacity="0.9" d="M308.882 364.668C311.449 364.187 313.419 363.202 313.281 362.469C313.144 361.736 310.951 361.533 308.384 362.015C305.816 362.497 303.846 363.481 303.984 364.214C304.121 364.947 306.314 365.15 308.882 364.668Z" fill="#6C63FF"/>
<path opacity="0.9" d="M307.812 366.251C310.379 365.769 312.349 364.784 312.211 364.051C312.074 363.318 309.881 363.115 307.314 363.597C304.746 364.079 302.776 365.063 302.914 365.796C303.051 366.529 305.244 366.732 307.812 366.251Z" fill="#3F3D56"/>
<path opacity="0.9" d="M313.116 365.248C315.684 364.766 317.653 363.782 317.516 363.049C317.378 362.316 315.186 362.113 312.618 362.595C310.051 363.076 308.081 364.061 308.218 364.794C308.356 365.527 310.549 365.73 313.116 365.248Z" fill="#6C63FF"/>
<path opacity="0.9" d="M316.771 370.052C319.338 369.57 321.308 368.586 321.171 367.853C321.033 367.12 318.84 366.917 316.273 367.399C313.705 367.88 311.735 368.865 311.873 369.598C312.01 370.331 314.203 370.534 316.771 370.052Z" fill="#6C63FF"/>
<path opacity="0.9" d="M318.179 362.915C320.747 362.433 322.717 361.448 322.579 360.715C322.442 359.983 320.249 359.779 317.681 360.261C315.114 360.743 313.144 361.728 313.282 362.46C313.419 363.193 315.612 363.397 318.179 362.915Z" fill="#6C63FF"/>
<path opacity="0.9" d="M318.672 365.577C321.239 365.095 323.209 364.11 323.071 363.378C322.934 362.645 320.741 362.441 318.173 362.923C315.606 363.405 313.636 364.39 313.774 365.123C313.911 365.855 316.104 366.059 318.672 365.577Z" fill="#6C63FF"/>
<path opacity="0.9" d="M320.744 369.311C323.312 368.829 325.281 367.844 325.144 367.112C325.006 366.379 322.813 366.175 320.246 366.657C317.679 367.139 315.709 368.124 315.846 368.857C315.984 369.589 318.177 369.793 320.744 369.311Z" fill="#6C63FF"/>
<path opacity="0.9" d="M333.024 361.51C335.592 361.028 337.562 360.043 337.424 359.31C337.287 358.578 335.094 358.374 332.526 358.856C329.959 359.338 327.989 360.323 328.127 361.055C328.264 361.788 330.457 361.992 333.024 361.51Z" fill="#6C63FF"/>
<path opacity="0.9" d="M338.09 359.186C340.657 358.704 342.627 357.719 342.489 356.987C342.352 356.254 340.159 356.05 337.592 356.532C335.024 357.014 333.054 357.999 333.192 358.732C333.329 359.465 335.522 359.668 338.09 359.186Z" fill="#6C63FF"/>
<path opacity="0.9" d="M338.59 361.838C341.157 361.356 343.127 360.372 342.99 359.639C342.852 358.906 340.659 358.703 338.092 359.185C335.524 359.667 333.555 360.651 333.692 361.384C333.83 362.117 336.023 362.32 338.59 361.838Z" fill="#A1616A"/>
<path opacity="0.9" d="M332.696 367.065C335.263 366.583 337.233 365.599 337.096 364.866C336.958 364.133 334.765 363.93 332.198 364.411C329.63 364.893 327.66 365.878 327.798 366.611C327.935 367.344 330.128 367.547 332.696 367.065Z" fill="#6C63FF"/>
<path opacity="0.9" d="M334.027 366.814C336.594 366.332 338.564 365.347 338.427 364.615C338.289 363.882 336.096 363.678 333.529 364.16C330.961 364.642 328.991 365.627 329.129 366.36C329.267 367.092 331.459 367.296 334.027 366.814Z" fill="#6C63FF"/>
<path opacity="0.9" d="M332.696 367.065C335.263 366.583 337.233 365.599 337.096 364.866C336.958 364.133 334.765 363.93 332.198 364.411C329.63 364.893 327.66 365.878 327.798 366.611C327.935 367.344 330.128 367.547 332.696 367.065Z" fill="#6C63FF"/>
<path opacity="0.9" d="M328.712 367.816C331.28 367.335 333.25 366.35 333.112 365.617C332.975 364.884 330.782 364.681 328.214 365.163C325.647 365.645 323.677 366.629 323.815 367.362C323.952 368.095 326.145 368.298 328.712 367.816Z" fill="#6C63FF"/>
<path opacity="0.9" d="M319.186 364.532C321.746 364.062 323.712 363.088 323.578 362.358C323.444 361.627 321.26 361.416 318.7 361.886C316.14 362.356 314.173 363.33 314.307 364.061C314.442 364.791 316.626 365.002 319.186 364.532Z" fill="#A1616A"/>
<path opacity="0.9" d="M324.237 365.906C326.804 365.424 328.774 364.439 328.637 363.706C328.499 362.973 326.306 362.77 323.739 363.252C321.171 363.734 319.202 364.718 319.339 365.451C319.477 366.184 321.67 366.387 324.237 365.906Z" fill="#6C63FF"/>
<path d="M215.53 181.75L214.53 182.75C214.53 182.75 259.92 253.75 269.97 261.3L273.06 258.8C273.06 258.8 261.46 237.5 215.53 181.75Z" fill="#2F2E41"/>
<path d="M275.72 261.41C275.72 261.41 273.33 257.09 272.41 257.95C271.49 258.81 268.53 260.81 268.92 261.44C269.31 262.07 271.92 265.53 271.92 265.53C271.92 265.53 275.34 265.43 276.39 262.45L275.72 261.41Z" fill="#464353"/>
<path opacity="0.9" d="M290.85 284.07L290.34 283.95C290.34 283.95 290.74 281.64 285.27 279.26C284.271 278.83 283.249 278.452 282.21 278.13C273.81 275.48 270.53 269.66 272.21 265.5C272.255 265.36 272.308 265.223 272.37 265.09L275.87 262.34L276.28 262.69C278.402 264.416 280.717 265.889 283.18 267.08C286.342 268.515 288.859 271.074 290.24 274.26C291.411 277.397 291.623 280.812 290.85 284.07Z" fill="#FDD8D8"/>
<path opacity="0.2" d="M275.6 263.08C275.6 263.08 276.79 265.68 283.05 268.75C289.31 271.82 290.64 280.75 290.64 280.75C290.64 280.75 287.38 272.48 282.37 270.96C277.36 269.44 275.14 263.55 275.14 263.55L275.6 263.08Z" stroke="#2F2E41" stroke-width="0.25" stroke-miterlimit="10"/>
<path opacity="0.2" d="M274.65 264.11C274.65 264.11 274.37 267.62 278.47 270.73C282.57 273.84 290.36 278.86 290.53 281.22C290.53 281.22 286.78 277.31 283.53 276.01C280.28 274.71 275.85 272.08 275.35 269.64C275.35 269.64 273.55 265.82 274.08 264.33L274.65 264.11Z" stroke="#2F2E41" stroke-width="0.25" stroke-miterlimit="10"/>
<path opacity="0.2" d="M273.39 264.89C273.39 264.89 271.71 268.26 275.81 272.97C277.793 274.8 280.171 276.148 282.76 276.91C285.644 277.917 288.201 279.686 290.16 282.03" stroke="#2F2E41" stroke-width="0.25" stroke-miterlimit="10"/>
<path opacity="0.9" d="M327.469 361.181C330.037 360.699 332.006 359.714 331.869 358.982C331.731 358.249 329.538 358.045 326.971 358.527C324.404 359.009 322.434 359.994 322.571 360.727C322.709 361.459 324.902 361.663 327.469 361.181Z" fill="#3F3D56"/>
<path opacity="0.9" d="M327.969 363.823C330.537 363.341 332.507 362.357 332.369 361.624C332.232 360.891 330.039 360.688 327.471 361.17C324.904 361.651 322.934 362.636 323.071 363.369C323.209 364.102 325.402 364.305 327.969 363.823Z" fill="#6C63FF"/>
<path opacity="0.9" d="M326.889 365.405C329.457 364.923 331.427 363.939 331.289 363.206C331.152 362.473 328.959 362.27 326.391 362.752C323.824 363.234 321.854 364.218 321.991 364.951C322.129 365.684 324.322 365.887 326.889 365.405Z" fill="#6C63FF"/>
<path d="M156.09 264.75C156.074 266.652 155.784 268.541 155.23 270.36C154.84 271.31 154.23 272.17 153.79 273.1C151.84 277.1 152.7 281.79 152.43 286.22C152.207 288.73 151.799 291.22 151.21 293.67C149.02 303.87 146.83 314.08 144.21 324.2C143.35 327.59 142.48 331.32 144.02 334.45C144.42 335.26 144.96 335.99 145.29 336.83C146.21 339.13 145.36 341.83 146.16 344.16C146.585 345.33 147.386 346.326 148.437 346.994C149.488 347.661 150.73 347.962 151.97 347.85C152.53 338.28 157.02 329.34 162.49 321.46C165.09 317.72 168 314.07 171.85 311.64C173.74 310.45 175.85 309.54 177.37 307.89C178.893 305.998 179.85 303.713 180.13 301.3C182.77 286.52 176.44 271.66 169.13 258.53C167.61 255.8 164.39 249.73 161.18 252.02C157.97 254.31 156.46 261.07 156.09 264.75Z" fill="#DA6D42"/>
<path opacity="0.1" d="M234.62 151.23C216.72 151.23 201.9 144.79 199.25 136.38C198.971 137.253 198.829 138.164 198.83 139.08C198.83 148.77 214.83 156.63 234.62 156.63C254.41 156.63 270.4 148.77 270.4 139.08C270.401 138.164 270.259 137.253 269.98 136.38C267.33 144.79 252.51 151.23 234.62 151.23Z" fill="black"/>
<g opacity="0.1">
<path opacity="0.1" d="M153.46 336.83C153.12 335.99 152.58 335.26 152.18 334.45C150.64 331.32 151.51 327.59 152.38 324.2C154.95 314.08 157.14 303.87 159.38 293.67C159.971 291.221 160.376 288.73 160.59 286.22C160.86 281.79 160.01 277.08 161.95 273.1C162.41 272.17 163 271.31 163.39 270.36C163.949 268.542 164.238 266.652 164.25 264.75C164.561 261.44 165.451 258.211 166.88 255.21C166.66 252.29 166.62 249.35 166.58 246.47C166.563 244.173 166.737 241.878 167.1 239.61C167.55 236.76 168.62 234.09 171.24 232.86C173.24 229.86 173.96 226.15 174.08 222.51C174.17 220.08 174.08 217.57 174.96 215.3C176.74 210.78 181.96 208.64 186.73 207.93C191.5 207.22 196.6 207.39 201.02 205.36C202.685 204.544 204.272 203.576 205.76 202.47C210.07 199.47 214.39 196.47 218.47 193.16L215.07 190.16C214.89 190.01 214.69 189.83 214.46 189.86C214.29 189.905 214.134 189.995 214.01 190.12C208.797 194.577 203.317 198.711 197.6 202.5C196.112 203.606 194.525 204.574 192.86 205.39C188.44 207.39 183.38 207.24 178.57 207.96C173.76 208.68 168.57 210.81 166.79 215.33C165.89 217.6 166.01 220.11 165.91 222.54C165.79 226.18 165.13 229.9 163.08 232.89C160.46 234.12 159.39 236.79 158.93 239.64C158.589 241.91 158.432 244.204 158.46 246.5C158.46 249.38 158.54 252.32 158.76 255.24C157.327 258.24 156.436 261.47 156.13 264.78C156.114 266.682 155.824 268.571 155.27 270.39C154.88 271.34 154.27 272.2 153.83 273.13C151.88 277.13 152.74 281.82 152.47 286.25C152.247 288.76 151.84 291.25 151.25 293.7C149.06 303.9 146.87 314.11 144.25 324.23C143.39 327.62 142.52 331.35 144.06 334.48C144.46 335.29 145 336.02 145.33 336.86C146.25 339.16 145.4 341.86 146.2 344.19C146.625 345.36 147.426 346.357 148.477 347.024C149.528 347.691 150.77 347.992 152.01 347.88C152.217 344.671 152.821 341.5 153.81 338.44C153.766 337.89 153.648 337.349 153.46 336.83Z" fill="black"/>
<path opacity="0.1" d="M251.19 220.1C251.7 221.1 252.19 222.1 252.63 223.1C253.888 225.893 254.908 228.786 255.68 231.75C256.1 233.32 256.44 234.9 256.68 236.49C256.87 237.64 257.03 238.8 257.14 239.98C257.187 240.367 257.227 240.757 257.26 241.15C257.956 241.007 258.614 240.717 259.19 240.3C259.809 239.855 260.285 239.24 260.56 238.53C260.807 237.885 260.981 237.214 261.08 236.53C261.205 235.662 261.275 234.787 261.29 233.91C261.29 232.91 261.35 231.82 261.35 230.78C261.356 228.958 261.185 227.139 260.84 225.35C260.18 222.07 258.72 219 257.84 215.77C257.77 215.54 257.72 215.29 257.66 215.05C257.125 214.084 256.811 213.012 256.74 211.91C256.12 211.56 256.08 210.99 256.1 210.29C256.118 208.85 255.832 207.422 255.26 206.1C255.1 205.637 254.837 205.216 254.491 204.869C254.144 204.523 253.723 204.26 253.26 204.1C252.01 203.84 250.86 204.92 250.26 206.03C248.62 208.96 248.89 212.6 249.78 215.82C250.16 217.24 250.68 218.67 251.19 220.1Z" fill="black"/>
<path opacity="0.1" d="M196.8 542.38C195.09 531.07 192.56 519.87 191.26 508.5C188.85 487.39 190.64 466.01 188.89 444.84C188.18 436.3 186.89 427.84 186.15 419.3C184.38 399.11 182.42 377.62 190.8 359.17C192.01 356.51 193.21 353.86 194.42 351.22C194.789 350.527 195.023 349.77 195.11 348.99C195.129 348.597 195.075 348.203 194.95 347.83C194.46 346.15 192.84 344.83 191.87 343.25C190.24 340.67 190.41 337.37 190.64 334.32C190.75 333.03 191.09 331.97 191.18 330.68C187.67 325.81 185.62 320.25 184.08 314.43C183.68 312.93 183.31 311.43 182.96 309.9C181.96 310.5 180.96 311.03 179.96 311.64C178.547 312.546 177.236 313.602 176.05 314.79C177.39 320.471 179.763 325.857 183.05 330.68C182.96 331.97 182.62 333.03 182.51 334.32C182.28 337.37 182.1 340.67 183.74 343.25C184.74 344.82 186.33 346.15 186.82 347.83C186.94 348.204 186.994 348.597 186.98 348.99C186.893 349.77 186.659 350.527 186.29 351.22C185.077 353.887 183.87 356.537 182.67 359.17C174.28 377.62 176.24 399.11 178.01 419.3C178.77 427.83 180.01 436.3 180.75 444.84C182.51 466.01 180.75 487.39 183.13 508.5C184.43 519.87 186.95 531.07 188.67 542.38C190.231 552.702 191.129 563.113 191.36 573.55C193.975 572.732 196.65 572.12 199.36 571.72C199.102 561.897 198.247 552.099 196.8 542.38Z" fill="black"/>
<path opacity="0.1" d="M255.78 578.5C241.78 574.36 227.07 570.34 212.78 571.19C224.48 571.85 236.34 575.19 247.68 578.5C253.14 580.12 258.8 581.78 264.49 581.19C264.96 581.19 265.43 581.05 265.9 580.98C262.472 580.393 259.091 579.565 255.78 578.5Z" fill="black"/>
</g>
<path d="M148.28 339.05L152.68 349.69C153.46 351.56 154.29 353.52 155.87 354.79C156.868 355.511 158.014 356 159.225 356.221C160.436 356.443 161.682 356.391 162.87 356.07C165.231 355.408 167.479 354.397 169.54 353.07C176.21 349.28 182.88 345.48 189.37 341.37C201.431 333.724 212.807 325.049 223.37 315.44C230.19 309.24 236.66 302.65 243.12 296.07L253.46 285.5C255.26 283.68 255.2 280.63 255.16 278.07C255.02 270.07 251.16 262.63 250.23 254.71C250.026 253.705 250.119 252.662 250.5 251.71C250.718 251.253 251.101 250.895 251.573 250.709C252.044 250.524 252.569 250.524 253.04 250.71C254.49 251.46 253.52 253.94 254.6 255.17C255.6 256.24 257.51 255.5 258.09 254.17C258.513 252.787 258.464 251.302 257.95 249.95L259.2 249.43C261.11 245.79 259.13 241.04 255.77 238.65C252.41 236.26 248.11 235.73 243.99 235.65V232.65C249.854 232.023 255.785 232.526 261.46 234.13C262.32 233.13 261.77 231.63 260.97 230.62C258.42 227.39 253.88 226.3 249.81 226.86C245.74 227.42 241.99 229.34 238.35 231.24L243.78 217.63C244.39 216.385 244.701 215.016 244.69 213.63C244.669 212.938 244.415 212.274 243.968 211.745C243.521 211.217 242.909 210.855 242.23 210.72L238.43 217.43C234.87 223.72 231.22 230.3 230.78 237.51C230.697 241.376 231.087 245.238 231.94 249.01C232.57 252.44 232.35 255.73 233.3 259.09C234.51 263.36 235.449 267.702 236.11 272.09C236.533 273.938 236.471 275.863 235.93 277.68C234.69 280.92 230.93 282.33 228.53 284.82C224.53 285.06 220.81 287.6 217.74 290.26C212.865 294.711 207.497 298.59 201.74 301.82C197.911 303.744 193.967 305.431 189.93 306.87C185.43 308.59 180.81 310.32 176 310.4C172.41 310.4 168.71 309.59 165.29 310.67C160.14 312.28 157.29 317.67 154.99 322.51L151.18 330.51C149.997 333.278 149.027 336.133 148.28 339.05Z" fill="#FBBEBE"/>
<path d="M162.19 320.84C164.86 317.01 167.86 313.28 171.82 310.84C172.56 310.38 173.32 309.96 174.07 309.53C171 309.38 167.91 308.95 165 309.85C159.71 311.51 156.78 316.99 154.4 321.98L150.46 330.15C149.24 332.969 148.237 335.878 147.46 338.85L151.21 347.85H151.3C151.92 338.05 156.55 328.91 162.19 320.84Z" fill="#DA6D42"/>
<path d="M331.18 340.03C332.671 340.03 333.88 338.579 333.88 336.79C333.88 335.001 332.671 333.55 331.18 333.55C329.689 333.55 328.48 335.001 328.48 336.79C328.48 338.579 329.689 340.03 331.18 340.03Z" fill="#FBBEBE"/>
<path d="M331.18 341.65C332.671 341.65 333.88 340.199 333.88 338.41C333.88 336.621 332.671 335.17 331.18 335.17C329.689 335.17 328.48 336.621 328.48 338.41C328.48 340.199 329.689 341.65 331.18 341.65Z" fill="#FBBEBE"/>
<path opacity="0.9" d="M291.46 286.28L290.77 286.14C290.77 286.14 291.31 283.31 283.93 280.41C283.94 279.924 284.007 279.44 284.13 278.97C284.204 278.585 284.322 278.209 284.48 277.85C284.619 277.498 284.797 277.163 285.01 276.85C285.422 276.125 285.993 275.503 286.68 275.03C287.135 274.711 287.643 274.474 288.18 274.33C288.57 274.22 288.974 274.166 289.38 274.17C289.798 274.178 290.214 274.231 290.62 274.33C291.99 277.37 292.52 281.3 291.46 286.28Z" fill="#6C63FF"/>
<path d="M121.46 660.5C121.46 660.5 127.68 668.63 118.59 680.91C109.5 693.19 102.01 703.55 105.04 711.21C105.04 711.21 118.75 688.41 129.91 688.09C141.07 687.77 133.71 674.22 121.46 660.5Z" fill="#6C63FF"/>
<path opacity="0.1" d="M121.46 660.5C122.003 661.285 122.431 662.144 122.73 663.05C133.62 675.85 139.42 687.79 128.96 688.05C119.21 688.32 107.51 705.76 104.71 710.16C104.801 710.499 104.911 710.833 105.04 711.16C105.04 711.16 118.75 688.36 129.91 688.04C141.07 687.72 133.71 674.22 121.46 660.5Z" fill="black"/>
<path d="M132.99 670.88C132.99 673.74 132.67 676.06 132.27 676.06C131.87 676.06 131.56 673.74 131.56 670.88C131.56 668.02 131.96 669.36 132.35 669.36C132.74 669.36 132.99 668.01 132.99 670.88Z" fill="#FFD037"/>
<path d="M136.96 674.29C134.45 675.66 132.25 676.49 132.07 676.14C131.89 675.79 133.76 674.4 136.27 673.03C138.78 671.66 137.79 672.66 137.98 673.03C138.17 673.4 139.46 672.92 136.96 674.29Z" fill="#FFD037"/>
<path d="M88.59 660.5C88.59 660.5 82.37 668.63 91.46 680.91C100.55 693.19 108.04 703.55 105.01 711.21C105.01 711.21 91.3 688.41 80.14 688.09C68.98 687.77 76.31 674.22 88.59 660.5Z" fill="#6C63FF"/>
<path opacity="0.1" d="M88.59 660.5C88.0472 661.285 87.6195 662.144 87.32 663.05C76.43 675.85 70.63 687.79 81.09 688.05C90.84 688.32 102.54 705.76 105.34 710.16C105.249 710.499 105.139 710.833 105.01 711.16C105.01 711.16 91.3 688.36 80.14 688.04C68.98 687.72 76.31 674.22 88.59 660.5Z" fill="black"/>
<path d="M77.03 670.88C77.03 673.74 77.35 676.06 77.75 676.06C78.15 676.06 78.46 673.74 78.46 670.88C78.46 668.02 78.06 669.36 77.67 669.36C77.28 669.36 77.03 668.01 77.03 670.88Z" fill="#FFD037"/>
<path d="M73.0601 674.29C75.5701 675.66 77.7601 676.49 77.9501 676.14C78.1401 675.79 76.2601 674.4 73.7501 673.03C71.2401 671.66 72.2301 672.66 72.0401 673.03C71.8501 673.4 70.5501 672.92 73.0601 674.29Z" fill="#FFD037"/>
<path d="M79.0101 710.15C79.0101 710.15 96.3901 709.62 101.63 705.88C106.87 702.14 128.38 697.7 129.68 703.68C130.98 709.66 155.8 733.44 136.17 733.6C116.54 733.76 90.5701 730.54 85.3401 727.36C80.1101 724.18 79.0101 710.15 79.0101 710.15Z" fill="#A8A8A8"/>
<path opacity="0.2" d="M136.52 731.5C116.9 731.66 90.9201 728.44 85.6901 725.26C81.6901 722.83 80.1201 714.12 79.5901 710.11H79.0101C79.0101 710.11 80.1101 724.11 85.3401 727.32C90.5701 730.53 116.55 733.72 136.17 733.56C141.84 733.56 143.8 731.5 143.69 728.51C142.9 730.36 140.74 731.5 136.52 731.5Z" fill="black"/>
<path d="M566 689.69C566 689.69 554.89 651.96 568.08 624.19C573.691 612.577 575.382 599.457 572.9 586.8C571.676 580.801 569.905 574.926 567.61 569.25" stroke="#535461" stroke-width="2" stroke-miterlimit="10"/>
<path d="M575.82 551.7C575.82 556.33 567.45 569.7 567.45 569.7C567.45 569.7 559.07 556.29 559.07 551.7C559.145 549.529 560.06 547.472 561.623 545.962C563.185 544.453 565.273 543.609 567.445 543.609C569.617 543.609 571.705 544.453 573.267 545.962C574.83 547.472 575.745 549.529 575.82 551.7Z" fill="#6C63FF"/>
<path d="M589.66 577.32C587.15 581.2 572.83 587.9 572.83 587.9C572.83 587.9 573.09 572.1 575.6 568.22C576.807 566.355 578.705 565.047 580.876 564.582C583.048 564.117 585.316 564.533 587.18 565.74C589.044 566.947 590.353 568.845 590.818 571.016C591.283 573.188 590.867 575.456 589.66 577.32Z" fill="#6C63FF"/>
<path d="M589.05 621.09C584.93 623.17 569.18 621.73 569.18 621.73C569.18 621.73 577.39 608.22 581.51 606.13C583.499 605.13 585.804 604.961 587.918 605.661C590.031 606.36 591.78 607.871 592.78 609.86C593.78 611.849 593.949 614.154 593.249 616.268C592.55 618.381 591.039 620.13 589.05 621.13V621.09Z" fill="#6C63FF"/>
<path d="M581.14 654.1C577.42 656.85 561.66 658.1 561.66 658.1C561.66 658.1 567.46 643.4 571.18 640.65C572.064 639.993 573.068 639.517 574.136 639.249C575.204 638.98 576.314 638.925 577.403 639.086C578.493 639.246 579.539 639.62 580.484 640.185C581.429 640.75 582.253 641.496 582.91 642.38C583.567 643.264 584.043 644.268 584.311 645.336C584.58 646.404 584.635 647.514 584.474 648.603C584.314 649.692 583.94 650.739 583.375 651.684C582.81 652.629 582.064 653.453 581.18 654.11L581.14 654.1Z" fill="#6C63FF"/>
<path d="M555.25 588.8C558.57 592.02 574.02 595.36 574.02 595.36C574.02 595.36 570.23 580.01 566.92 576.79C566.135 576.009 565.203 575.391 564.178 574.972C563.153 574.554 562.054 574.343 560.947 574.352C559.84 574.361 558.745 574.589 557.727 575.024C556.708 575.459 555.786 576.092 555.014 576.886C554.242 577.68 553.635 578.619 553.229 579.649C552.822 580.68 552.624 581.78 552.646 582.887C552.668 583.995 552.91 585.086 553.357 586.1C553.803 587.113 554.447 588.027 555.25 588.79V588.8Z" fill="#6C63FF"/>
<path d="M546.46 627.5C550.59 629.58 566.33 628.14 566.33 628.14C566.33 628.14 558.13 614.63 554 612.54C552.025 611.617 549.769 611.499 547.709 612.212C545.649 612.926 543.949 614.413 542.967 616.36C541.986 618.306 541.802 620.558 542.454 622.638C543.107 624.718 544.543 626.462 546.46 627.5Z" fill="#6C63FF"/>
<path d="M543.13 666.34C546.84 669.09 562.6 670.34 562.6 670.34C562.6 670.34 556.8 655.63 553.08 652.88C551.294 651.554 549.054 650.992 546.853 651.317C544.652 651.642 542.671 652.829 541.345 654.615C540.019 656.401 539.457 658.641 539.782 660.842C540.108 663.043 541.294 665.024 543.08 666.35L543.13 666.34Z" fill="#6C63FF"/>
<path d="M575.82 551.7C575.82 556.33 567.45 569.7 567.45 569.7C567.45 569.7 559.07 556.29 559.07 551.7C559.145 549.529 560.06 547.472 561.623 545.962C563.185 544.453 565.273 543.609 567.445 543.609C569.617 543.609 571.705 544.453 573.267 545.962C574.83 547.472 575.745 549.529 575.82 551.7Z" fill="#6C63FF"/>
<path d="M589.66 577.32C587.15 581.2 572.83 587.9 572.83 587.9C572.83 587.9 573.09 572.1 575.6 568.22C576.807 566.355 578.705 565.047 580.876 564.582C583.048 564.117 585.316 564.533 587.18 565.74C589.044 566.947 590.353 568.845 590.818 571.016C591.283 573.188 590.867 575.456 589.66 577.32Z" fill="#6C63FF"/>
<path d="M589.05 621.09C584.93 623.17 569.18 621.73 569.18 621.73C569.18 621.73 577.39 608.22 581.51 606.13C583.499 605.13 585.804 604.961 587.918 605.661C590.031 606.36 591.78 607.871 592.78 609.86C593.78 611.849 593.949 614.154 593.249 616.268C592.55 618.381 591.039 620.13 589.05 621.13V621.09Z" fill="#6C63FF"/>
<path d="M581.14 654.1C577.42 656.85 561.66 658.1 561.66 658.1C561.66 658.1 567.46 643.4 571.18 640.65C572.064 639.993 573.068 639.517 574.136 639.249C575.204 638.98 576.314 638.925 577.403 639.086C578.493 639.246 579.539 639.62 580.484 640.185C581.429 640.75 582.253 641.496 582.91 642.38C583.567 643.264 584.043 644.268 584.311 645.336C584.58 646.404 584.635 647.514 584.474 648.603C584.314 649.692 583.94 650.739 583.375 651.684C582.81 652.629 582.064 653.453 581.18 654.11L581.14 654.1Z" fill="#6C63FF"/>
<path d="M555.25 588.8C558.57 592.02 574.02 595.36 574.02 595.36C574.02 595.36 570.23 580.01 566.92 576.79C566.135 576.009 565.203 575.391 564.178 574.972C563.153 574.554 562.054 574.343 560.947 574.352C559.84 574.361 558.745 574.589 557.727 575.024C556.708 575.459 555.786 576.092 555.014 576.886C554.242 577.68 553.635 578.619 553.229 579.649C552.822 580.68 552.624 581.78 552.646 582.887C552.668 583.995 552.91 585.086 553.357 586.1C553.803 587.113 554.447 588.027 555.25 588.79V588.8Z" fill="#6C63FF"/>
<path d="M546.46 627.5C550.59 629.58 566.33 628.14 566.33 628.14C566.33 628.14 558.13 614.63 554 612.54C552.025 611.617 549.769 611.499 547.709 612.212C545.649 612.926 543.949 614.413 542.967 616.36C541.986 618.306 541.802 620.558 542.454 622.638C543.107 624.718 544.543 626.462 546.46 627.5Z" fill="#6C63FF"/>
<path d="M543.13 666.34C546.84 669.09 562.6 670.34 562.6 670.34C562.6 670.34 556.8 655.63 553.08 652.88C551.294 651.554 549.054 650.992 546.853 651.317C544.652 651.642 542.671 652.829 541.345 654.615C540.019 656.401 539.457 658.641 539.782 660.842C540.108 663.043 541.294 665.024 543.08 666.35L543.13 666.34Z" fill="#6C63FF"/>
<path d="M539.73 687.31C539.73 687.31 553.27 684.62 556.87 681.04C560.47 677.46 576.72 671.19 578.53 675.67C580.34 680.15 602.88 695.37 587.53 698.06C572.18 700.75 551.44 701.64 546.93 699.85C542.42 698.06 539.73 687.31 539.73 687.31Z" fill="#A8A8A8"/>
<path opacity="0.2" d="M587.55 696.39C572.21 699.08 551.46 699.98 546.95 698.19C543.52 696.82 541.13 690.27 540.18 687.19L539.73 687.28C539.73 687.28 542.44 698.03 546.95 699.82C551.46 701.61 572.21 700.72 587.55 698.03C591.97 697.25 593.24 695.43 592.76 693.13C592.38 694.66 590.84 695.82 587.55 696.39Z" fill="black"/>
<g opacity="0.75">
<path opacity="0.75" d="M510.55 384.39C510.316 383.899 510.118 383.391 509.96 382.87C509.65 381.66 510.03 380.4 510.05 379.15C510.038 378.286 509.941 377.425 509.76 376.58C509.17 373.35 508.59 370.11 508 366.87C507.73 365.38 507.46 363.87 507.33 362.38C507.2 360.89 507.22 359.28 507.19 357.73C507.12 352.73 506.19 347.73 506.04 342.68C505.93 340.07 505.73 337.46 505.52 334.85C505.15 330.37 504.76 325.85 503.97 321.47C503.35 317.96 501.59 314.68 501.55 311.12C501.55 309.27 501.55 307.42 501.5 305.57C501.605 303.981 501.352 302.388 500.76 300.91C500.07 299.69 499.138 298.625 498.02 297.78C494.873 295.06 491.613 292.477 488.24 290.03C489.263 290.22 490.317 290.141 491.3 289.8C491.784 289.613 492.176 289.246 492.394 288.776C492.612 288.306 492.64 287.77 492.47 287.28C492.121 286.718 491.564 286.315 490.92 286.16C489.712 285.795 488.461 285.594 487.2 285.56C487.316 285.082 487.406 284.598 487.47 284.11C488.13 278.95 485.54 273.89 485.55 268.69C485.55 263.33 488.27 258.42 489.84 253.3C492.309 245.173 491.921 236.446 488.74 228.57C487.05 224.41 484.58 220.5 483.74 216.09C483.09 212.63 483.5 209.09 482.91 205.58C481.43 196.75 473.56 189.96 464.91 187.58C458.24 185.77 451.45 186.35 444.74 187.58C438.97 188.65 433.74 186.29 427.94 187.05C425.68 187.34 423.33 188.05 421.87 189.83C421.136 190.919 420.468 192.051 419.87 193.22C417.3 197.22 412.2 198.59 407.96 200.78C401.52 204.12 396.39 210.35 395.43 217.53C394.54 224.19 397.16 230.79 397.56 237.53C398.07 246.09 394.96 254.39 392.33 262.53C391.468 264.763 391.024 267.136 391.02 269.53C391.17 271.164 391.533 272.771 392.1 274.31C392.93 276.83 393.87 279.31 394.94 281.76C392.946 282.571 390.855 283.119 388.72 283.39C386.54 283.64 384.21 283.55 382.32 284.66C381.441 285.206 380.686 285.927 380.1 286.78C379.199 288.039 378.559 289.465 378.215 290.974C377.872 292.483 377.833 294.045 378.1 295.57C377.706 295.819 377.383 296.165 377.16 296.575C376.938 296.984 376.824 297.444 376.83 297.91C376.78 298.84 376.99 299.76 377.03 300.69C376.955 302.444 376.618 304.176 376.03 305.83C374.474 311.513 374.086 317.453 374.89 323.29C376.17 332.63 376.42 341.9 376.83 351.29C377.1 357.46 376.59 363.7 377.61 369.8C377.95 371.8 378.61 374 380.19 375.28C380.596 375.554 380.983 375.855 381.35 376.18C382.25 377.12 382.28 378.57 382.58 379.84C383.058 381.593 384.128 383.128 385.608 384.183C387.087 385.238 388.886 385.749 390.7 385.63C390.03 387.63 389.37 389.48 388.7 391.4H491.46C491.4 391.16 491.34 390.92 491.29 390.68C491.122 389.668 491.098 388.638 491.22 387.62C492.08 388.62 491.93 390.09 492.16 391.4H511.46C511.662 389.025 511.352 386.635 510.55 384.39Z" fill="url(#paint0_linear)"/>
<path opacity="0.75" d="M428.46 188.27C426.21 188.57 423.88 189.27 422.46 191.04C421.724 192.121 421.056 193.246 420.46 194.41C417.91 198.41 412.84 199.74 408.64 201.92C402.24 205.23 397.15 211.43 396.2 218.56C395.31 225.18 397.91 231.74 398.31 238.4C398.81 246.9 395.73 255.15 393.12 263.26C392.257 265.493 391.813 267.866 391.81 270.26C391.96 271.884 392.323 273.481 392.89 275.01C395.29 282.28 398.54 289.36 403.38 295.29C408.22 301.22 414.76 305.96 422.21 307.71C425.626 308.412 429.103 308.78 432.59 308.81C437.923 309.01 443.257 309.11 448.59 309.11C451.522 309.194 454.456 308.997 457.35 308.52C463.46 307.33 468.84 303.88 474.06 300.52C480.06 296.62 486.66 291.83 487.57 284.72C488.22 279.6 485.66 274.57 485.66 269.4C485.66 264.23 488.36 259.2 489.92 254.12C492.378 246.029 491.989 237.34 488.82 229.5C487.14 225.36 484.69 221.5 483.82 217.09C483.17 213.66 483.57 210.09 482.99 206.65C481.52 197.88 473.71 191.14 465.13 188.81C458.5 187.02 451.76 187.58 445.13 188.81C439.46 189.86 434.19 187.5 428.46 188.27Z" fill="#3F3D56"/>
<path opacity="0.75" d="M430.28 261.76C431.571 267.326 430.604 273.176 427.59 278.03C425.997 280.344 424.042 282.387 421.8 284.08C418.397 286.842 414.53 288.979 410.38 290.39C412.967 292.425 415.961 293.881 419.16 294.66C421.624 295.189 424.131 295.493 426.65 295.57C439.289 296.239 451.962 295.781 464.52 294.2C468.72 293.67 473.1 292.94 476.52 290.41C476.82 290.223 477.054 289.947 477.19 289.62C477.43 288.79 476.44 288.16 475.62 287.88C471.62 286.49 467.21 285.7 463.71 283.24C458.35 279.47 456.11 272.56 455.63 266.03C455.15 259.5 456.09 252.91 455.45 246.38C446.783 246.253 438.117 246.507 429.45 247.14C428.45 247.21 424.13 246.97 423.61 247.8C423.09 248.63 425.45 251.04 426.05 251.95C428.059 254.928 429.493 258.255 430.28 261.76Z" fill="#FBBEBE"/>
<path opacity="0.1" d="M442.27 261.95C458.601 261.95 471.84 248.711 471.84 232.38C471.84 216.049 458.601 202.81 442.27 202.81C425.939 202.81 412.7 216.049 412.7 232.38C412.7 248.711 425.939 261.95 442.27 261.95Z" fill="black"/>
<path opacity="0.75" d="M442.27 260.9C458.601 260.9 471.84 247.661 471.84 231.33C471.84 214.999 458.601 201.76 442.27 201.76C425.939 201.76 412.7 214.999 412.7 231.33C412.7 247.661 425.939 260.9 442.27 260.9Z" fill="#FBBEBE"/>
<path opacity="0.75" d="M483.79 340.2C481.37 350.1 479.85 360.35 480.87 370.5C481.55 377.22 483.87 384.5 484.03 391.38H410.71C410.71 387.68 410.71 383.85 410.71 380.03C410.71 379.32 410.71 378.62 410.71 377.92C410.71 377.01 410.71 376.1 410.71 375.19C410.71 372.42 410.71 369.68 410.71 367.02C410.71 362.23 410.71 357.42 410.2 352.65C409.266 344.152 407.298 335.801 404.34 327.78L403.71 326.02C403.71 325.95 403.71 325.89 403.63 325.83C403.42 325.23 403.19 324.64 402.97 324.04C399.4 314.56 395.32 304.72 397.28 294.86C397.991 291.337 399.445 288.007 401.546 285.091C403.646 282.175 406.344 279.74 409.46 277.95C411.374 276.8 413.54 276.134 415.77 276.01C419.58 275.95 423.01 278.19 426.19 280.31C427.7 281.31 429.19 282.31 430.78 283.31C434.441 285.682 438.394 287.571 442.54 288.93C448.45 290.72 455.14 290.79 460.54 287.81C461.597 287.211 462.601 286.522 463.54 285.75C465.364 284.194 467.02 282.451 468.48 280.55C469.92 283.35 473.04 284.55 475.63 286.3C479.222 288.927 481.948 292.565 483.46 296.75C484.951 300.914 485.958 305.236 486.46 309.63C487.168 313.925 487.456 318.279 487.32 322.63C486.94 328.63 485.2 334.4 483.79 340.2Z" fill="#3F3D56"/>
<path opacity="0.75" d="M439.72 391.38H389.55C390.22 389.46 390.87 387.59 391.55 385.64H391.46C389.658 385.76 387.869 385.252 386.4 384.201C384.93 383.151 383.87 381.624 383.4 379.88C383.1 378.62 383.07 377.19 382.17 376.25C381.812 375.926 381.431 375.629 381.03 375.36C379.41 374.09 378.8 371.94 378.47 369.91C377.47 363.85 377.95 357.66 377.69 351.52C377.28 342.16 377.03 332.94 375.76 323.66C374.962 317.863 375.347 311.965 376.89 306.32C377.478 304.677 377.815 302.954 377.89 301.21C377.89 300.29 377.64 299.37 377.69 298.45C377.683 297.988 377.795 297.531 378.016 297.125C378.237 296.718 378.558 296.376 378.95 296.13C378.687 294.613 378.729 293.06 379.072 291.559C379.416 290.059 380.054 288.642 380.95 287.39C381.537 286.545 382.289 285.828 383.16 285.28C385.04 284.18 387.35 284.28 389.51 284.02C399.61 282.88 407.61 274.02 417.72 273.02C420 272.868 422.289 272.922 424.56 273.18C428.28 273.49 429.64 278.18 430.5 281.84C430.62 282.32 430.72 282.84 430.82 283.28C432.72 292.28 432.37 301.68 432.37 310.93C432.37 313.053 432.66 315.165 433.23 317.21C434.76 322.79 434.92 328.63 435.23 334.41C435.882 347.918 437.238 361.383 439.29 374.75C439.73 377.252 440.04 379.776 440.22 382.31C440.354 385.342 440.187 388.381 439.72 391.38Z" fill="#F86D70"/>
<path opacity="0.75" d="M429.04 318.22C430.124 319.451 431.101 320.772 431.96 322.17C432.36 322.83 432.69 323.79 432.1 324.29C431.783 324.506 431.403 324.611 431.02 324.59L424.02 324.89C422.958 325.001 421.884 324.903 420.86 324.6C419.514 323.949 418.378 322.934 417.58 321.67L414.46 317.59C413.541 316.579 412.858 315.377 412.46 314.07C412.286 313.414 412.329 312.719 412.581 312.088C412.833 311.458 413.282 310.926 413.86 310.57C414.995 310.206 416.226 310.292 417.3 310.81C419.42 311.53 421.94 312.01 423.81 313.24C425.769 314.657 427.529 316.332 429.04 318.22Z" fill="#F86D70"/>
<path opacity="0.1" d="M429.04 318.22C430.124 319.451 431.101 320.772 431.96 322.17C432.36 322.83 432.69 323.79 432.1 324.29C431.783 324.506 431.403 324.611 431.02 324.59L424.02 324.89C422.958 325.001 421.884 324.903 420.86 324.6C419.514 323.949 418.378 322.934 417.58 321.67L414.46 317.59C413.541 316.579 412.858 315.377 412.46 314.07C412.286 313.414 412.329 312.719 412.581 312.088C412.833 311.458 413.282 310.926 413.86 310.57C414.995 310.206 416.226 310.292 417.3 310.81C419.42 311.53 421.94 312.01 423.81 313.24C425.769 314.657 427.529 316.332 429.04 318.22Z" fill="black"/>
<path opacity="0.1" d="M425.04 318.69C425.9 314.1 427.079 309.576 428.57 305.15C429.395 303.027 429.988 300.821 430.34 298.57C430.53 296.8 430.34 295.01 430.52 293.24C430.66 291.71 431.03 290.24 431.26 288.7C431.709 285.618 431.522 282.477 430.71 279.47C430.07 277.08 430.71 274.17 429.15 272.23C428.53 271.44 427.7 270.84 427.05 270.07C426.697 269.712 426.439 269.27 426.301 268.786C426.163 268.302 426.149 267.791 426.26 267.3C428.439 267.794 430.694 267.866 432.9 267.51C433.561 267.438 434.198 267.216 434.76 266.86C435.036 266.68 435.255 266.426 435.393 266.127C435.531 265.828 435.582 265.497 435.54 265.17C435.438 264.855 435.273 264.564 435.054 264.314C434.836 264.065 434.569 263.863 434.27 263.72C432.311 262.511 430.109 261.751 427.821 261.495C425.533 261.239 423.218 261.493 421.04 262.24C420.975 262.07 420.972 261.882 421.033 261.709C421.093 261.537 421.213 261.392 421.37 261.3C421.68 261.128 422.019 261.017 422.37 260.97C423.481 260.719 424.513 260.197 425.373 259.45C426.233 258.703 426.895 257.755 427.3 256.69C427.437 256.396 427.472 256.066 427.4 255.75C427.14 255.02 426.1 255.06 425.35 255.25L421.27 256.25C420.481 256.41 419.715 256.669 418.99 257.02C418.109 257.554 417.322 258.23 416.66 259.02C414.52 261.33 412.34 263.71 411.16 266.63C410.63 267.95 410.32 269.35 409.77 270.63C409.278 271.98 408.33 273.115 407.09 273.84C406.447 274.191 405.932 274.735 405.618 275.396C405.304 276.057 405.206 276.8 405.34 277.52C405.664 278.972 406.298 280.337 407.2 281.52C408.715 283.887 410.431 286.118 412.33 288.19C413.704 289.437 414.884 290.883 415.83 292.48C416.41 293.66 416.66 294.98 417.17 296.18C417.454 296.74 417.672 297.33 417.82 297.94C417.885 298.378 417.885 298.822 417.82 299.26C416.97 305.91 412.04 311.33 410.2 317.77C410.109 317.991 410.062 318.228 410.063 318.467C410.064 318.707 410.113 318.943 410.206 319.164C410.299 319.384 410.434 319.584 410.605 319.751C410.776 319.919 410.978 320.051 411.2 320.14C414.78 322.85 419.2 324.25 423.44 325.6C424.149 323.341 424.684 321.031 425.04 318.69Z" fill="black"/>
<path opacity="0.75" d="M424.46 318.39C425.32 313.8 426.499 309.276 427.99 304.85C428.819 302.728 429.413 300.522 429.76 298.27C429.95 296.5 429.76 294.71 429.94 292.94C430.08 291.41 430.45 289.94 430.68 288.4C431.129 285.318 430.942 282.177 430.13 279.17C429.49 276.78 430.13 273.87 428.57 271.93C427.95 271.14 427.12 270.54 426.47 269.77C426.117 269.412 425.859 268.97 425.721 268.486C425.583 268.002 425.569 267.491 425.68 267C427.859 267.494 430.114 267.566 432.32 267.21C432.981 267.138 433.618 266.916 434.18 266.56C434.455 266.379 434.675 266.125 434.814 265.827C434.954 265.528 435.008 265.197 434.97 264.87C434.864 264.555 434.696 264.265 434.477 264.016C434.257 263.767 433.989 263.564 433.69 263.42C431.731 262.211 429.529 261.451 427.241 261.195C424.953 260.939 422.637 261.193 420.46 261.94C420.395 261.77 420.392 261.582 420.452 261.409C420.513 261.237 420.633 261.092 420.79 261C421.1 260.828 421.439 260.716 421.79 260.67C422.899 260.418 423.929 259.895 424.788 259.148C425.646 258.401 426.306 257.454 426.71 256.39C426.846 256.1 426.881 255.772 426.81 255.46C426.55 254.72 425.51 254.76 424.81 254.95L420.74 255.95C419.947 256.108 419.177 256.367 418.45 256.72C417.569 257.254 416.781 257.93 416.12 258.72C413.98 261.03 411.8 263.41 410.62 266.33C410.09 267.65 409.78 269.05 409.23 270.33C408.738 271.68 407.79 272.815 406.55 273.54C405.91 273.893 405.396 274.438 405.082 275.098C404.768 275.758 404.669 276.501 404.8 277.22C405.124 278.672 405.758 280.037 406.66 281.22C408.178 283.584 409.894 285.816 411.79 287.89C413.164 289.137 414.344 290.583 415.29 292.18C415.87 293.36 416.12 294.68 416.63 295.89C416.916 296.445 417.134 297.033 417.28 297.64C417.345 298.078 417.345 298.522 417.28 298.96C416.43 305.61 411.5 311.03 409.66 317.47C409.569 317.691 409.522 317.928 409.523 318.167C409.524 318.407 409.573 318.643 409.666 318.864C409.759 319.084 409.894 319.284 410.065 319.451C410.236 319.619 410.438 319.751 410.66 319.84C414.24 322.55 418.66 323.95 422.9 325.3C423.596 323.04 424.117 320.73 424.46 318.39Z" fill="#FBBEBE"/>
<path opacity="0.75" d="M427.15 316.72C427.294 316.784 427.413 316.893 427.49 317.03C427.555 317.201 427.555 317.389 427.49 317.56C426.508 320.522 425.214 323.372 423.63 326.06C420.45 324.313 417.347 322.443 414.32 320.45C413.554 320.036 412.909 319.429 412.45 318.69C407.98 310.06 424.18 314.99 427.15 316.72Z" fill="#3F3D56"/>
<path opacity="0.1" d="M409.31 320.9C408.26 322.3 407.05 323.56 406.01 324.97C404.293 327.591 402.772 330.335 401.46 333.18C399.537 336.826 397.22 340.25 394.55 343.39C391.86 346.55 388.64 349.79 388.34 353.93C388.373 354.523 388.245 355.114 387.97 355.64C387.67 356.08 387.14 356.3 386.75 356.64C386.36 356.98 386.12 357.64 386.52 358.05C384.98 358.21 384.34 360.05 384.04 361.58L383.36 365.08C383.155 365.996 383.045 366.931 383.03 367.87C383.129 369.138 383.436 370.382 383.94 371.55C385.569 375.847 387.69 379.941 390.26 383.75C391.49 385.57 392.91 387.4 394.93 388.27C396.857 388.929 398.914 389.121 400.93 388.83C403.78 388.65 407.09 388.2 408.51 385.72C409.41 384.15 409.27 382.12 410.25 380.6C410.82 379.861 411.449 379.169 412.13 378.53C413.186 377.173 413.97 375.624 414.44 373.97C417.043 366.54 419.128 358.938 420.68 351.22C421.087 348.61 421.774 346.052 422.73 343.59C423.815 341.395 425.086 339.297 426.53 337.32C429.06 333.49 429.44 330.17 431.19 325.93C427.33 325.03 425.55 322.47 422.26 320.3C419.16 318.25 414.57 313.89 411.26 312.3C410.17 315.03 411.08 318.5 409.31 320.9Z" fill="black"/>
<path opacity="0.1" d="M406.95 318.8C405.95 320.2 404.69 321.47 403.66 322.88C401.94 325.495 400.419 328.236 399.11 331.08C397.189 334.73 394.872 338.158 392.2 341.3C389.5 344.46 386.29 347.69 385.99 351.84C386.019 352.429 385.891 353.016 385.62 353.54C385.248 353.917 384.835 354.253 384.39 354.54C384 354.9 383.77 355.54 384.16 355.94C382.62 356.11 381.98 357.94 381.69 359.48L381.01 362.98C380.796 363.891 380.686 364.824 380.68 365.76C380.774 367.032 381.082 368.28 381.59 369.45C383.218 373.746 385.335 377.839 387.9 381.65C389.13 383.47 390.56 385.3 392.58 386.17C394.507 386.829 396.564 387.021 398.58 386.73C401.42 386.55 404.74 386.09 406.15 383.62C407.05 382.04 406.91 380.02 407.89 378.49C408.469 377.761 409.097 377.073 409.77 376.43C410.829 375.073 411.617 373.525 412.09 371.87C414.688 364.439 416.77 356.838 418.32 349.12C418.712 346.509 419.383 343.948 420.32 341.48C421.409 339.29 422.68 337.196 424.12 335.22C426.66 331.39 426.51 329.12 428.26 324.87C424.4 323.98 423.14 320.37 419.85 318.2C416.75 316.15 412.17 311.79 408.85 310.2C407.82 312.94 408.73 316.42 406.95 318.8Z" fill="black"/>
<path opacity="0.75" d="M408.26 319.85C407.26 321.25 406 322.52 404.97 323.92C403.248 326.538 401.727 329.282 400.42 332.13C398.502 335.779 396.184 339.203 393.51 342.34C390.81 345.51 387.6 348.74 387.3 352.88C387.329 353.473 387.201 354.062 386.93 354.59C386.555 354.965 386.143 355.3 385.7 355.59C385.31 355.95 385.08 356.59 385.47 356.99C383.93 357.15 383.29 358.99 383 360.53L382.32 364.03C382.106 364.941 381.995 365.874 381.99 366.81C382.085 368.081 382.389 369.328 382.89 370.5C384.523 374.792 386.644 378.882 389.21 382.69C390.44 384.52 391.87 386.35 393.89 387.22C395.819 387.874 397.874 388.066 399.89 387.78C402.73 387.6 406.05 387.14 407.46 384.67C408.36 383.09 408.22 381.06 409.2 379.54C409.779 378.808 410.407 378.116 411.08 377.47C412.137 376.116 412.925 374.571 413.4 372.92C415.999 365.486 418.081 357.881 419.63 350.16C420.022 347.553 420.693 344.995 421.63 342.53C422.719 340.34 423.99 338.246 425.43 336.27C427.966 332.434 430.126 328.361 431.88 324.11C428.045 323.138 424.415 321.488 421.16 319.24C418.06 317.24 413.48 312.83 410.16 311.24C409.13 313.98 410.03 317.5 408.26 319.85Z" fill="#F86D70"/>
<path opacity="0.75" d="M418.19 325.02C419.344 325.02 420.28 324.084 420.28 322.93C420.28 321.776 419.344 320.84 418.19 320.84C417.036 320.84 416.1 321.776 416.1 322.93C416.1 324.084 417.036 325.02 418.19 325.02Z" fill="#3F3D56"/>
<path opacity="0.75" d="M411.65 335.23C412.804 335.23 413.74 334.294 413.74 333.14C413.74 331.986 412.804 331.05 411.65 331.05C410.496 331.05 409.56 331.986 409.56 333.14C409.56 334.294 410.496 335.23 411.65 335.23Z" fill="#3F3D56"/>
<path opacity="0.75" d="M404.85 345.7C406.004 345.7 406.94 344.764 406.94 343.61C406.94 342.456 406.004 341.52 404.85 341.52C403.696 341.52 402.76 342.456 402.76 343.61C402.76 344.764 403.696 345.7 404.85 345.7Z" fill="#3F3D56"/>
<path opacity="0.75" d="M511.37 391.38H492.23C492 390.08 492.15 388.61 491.3 387.61C491.183 388.625 491.207 389.651 491.37 390.66C491.42 390.9 491.48 391.14 491.54 391.38H467.2C467.128 388.313 467.42 385.248 468.07 382.25C468.883 377.867 469.347 373.426 469.46 368.97C469.58 363.46 469.17 357.97 469.14 352.46C469.119 347.009 469.47 341.563 470.19 336.16C470.85 331.16 471.83 326.16 471.02 321.16C470.11 315.63 469.33 310.03 468.63 304.47C468.518 303.24 468.283 302.024 467.93 300.84C467.642 300.012 467.308 299.201 466.93 298.41C465.108 294.391 464.011 290.081 463.69 285.68C463.55 284.02 461.2 282.52 461.23 280.84C464.43 280.19 470.14 279.39 473.23 280.5C476.32 281.61 478.6 284.34 481.7 285.37C484.8 286.4 488.08 285.65 491.09 286.66C491.731 286.808 492.288 287.204 492.64 287.76C492.806 288.249 492.778 288.782 492.56 289.25C492.342 289.718 491.951 290.083 491.47 290.27C490.507 290.607 489.473 290.686 488.47 290.5C491.803 292.933 495.037 295.5 498.17 298.2C499.279 299.041 500.204 300.099 500.89 301.31C501.478 302.779 501.73 304.361 501.63 305.94C501.63 307.78 501.63 309.61 501.68 311.45C501.68 314.99 503.46 318.25 504.08 321.73C504.86 326.13 505.25 330.58 505.61 335.03C505.82 337.62 506.02 340.21 506.13 342.81C506.33 347.81 507.2 352.81 507.28 357.76C507.28 359.3 507.28 360.85 507.42 362.38C507.565 363.88 507.785 365.372 508.08 366.85C508.66 370.06 509.24 373.28 509.83 376.49C510.007 377.329 510.101 378.183 510.11 379.04C509.921 380.264 509.89 381.508 510.02 382.74C510.178 383.257 510.376 383.762 510.61 384.25C511.375 386.544 511.634 388.976 511.37 391.38Z" fill="#F86D70"/>
<path opacity="0.75" d="M443.45 219.16C459.063 219.16 471.72 214.24 471.72 208.17C471.72 202.1 459.063 197.18 443.45 197.18C427.837 197.18 415.18 202.1 415.18 208.17C415.18 214.24 427.837 219.16 443.45 219.16Z" fill="#3F3D56"/>
<path opacity="0.75" d="M458.65 219.27C449.77 215.78 446.29 223.39 446.29 223.39C442.87 232.51 449.29 237.85 453.15 240.14C454.618 241.011 456.293 241.47 458 241.47C459.239 241.476 460.466 241.235 461.61 240.76C464.137 239.781 466.364 238.159 468.071 236.054C469.777 233.949 470.904 231.435 471.34 228.76C472.92 216.42 458.65 219.27 458.65 219.27ZM467.91 228.97C467.561 231.176 466.651 233.255 465.265 235.006C463.88 236.758 462.066 238.123 460 238.97C458.896 239.434 457.697 239.629 456.502 239.538C455.308 239.448 454.152 239.075 453.13 238.45C449.98 236.55 444.77 232.09 447.55 224.5C447.55 224.5 450.38 218.16 457.55 221.07C457.6 221.05 469.2 218.67 467.91 228.97Z" fill="#F86D70"/>
<path opacity="0.75" d="M457.6 221.05C457.6 221.05 469.2 218.67 467.91 228.97C467.562 231.176 466.651 233.255 465.265 235.006C463.88 236.758 462.066 238.123 460 238.97C459.072 239.36 458.076 239.561 457.07 239.56C455.679 239.561 454.315 239.177 453.13 238.45C449.98 236.55 444.77 232.09 447.55 224.5C447.55 224.5 450.38 218.14 457.6 221.05Z" fill="#3F3D56"/>
<path opacity="0.1" d="M457.6 221.05C457.6 221.05 469.2 218.67 467.91 228.97C467.562 231.176 466.651 233.255 465.265 235.006C463.88 236.758 462.066 238.123 460 238.97C459.072 239.36 458.076 239.561 457.07 239.56C455.679 239.561 454.315 239.177 453.13 238.45C449.98 236.55 444.77 232.09 447.55 224.5C447.55 224.5 450.38 218.14 457.6 221.05Z" fill="url(#paint1_radial)"/>
<path opacity="0.75" d="M412.58 228.78C413.016 231.455 414.143 233.969 415.849 236.074C417.556 238.179 419.783 239.801 422.31 240.78C423.454 241.255 424.681 241.496 425.92 241.49C427.627 241.49 429.302 241.031 430.77 240.16C434.65 237.87 441.05 232.53 437.63 223.41C437.63 223.41 434.15 215.8 425.27 219.29C425.27 219.27 411 216.42 412.58 228.78ZM426.32 221.05C433.54 218.14 436.32 224.48 436.32 224.48C439.1 232.07 433.89 236.48 430.74 238.43C429.718 239.055 428.562 239.428 427.368 239.518C426.173 239.609 424.974 239.414 423.87 238.95C421.804 238.103 419.99 236.738 418.605 234.986C417.219 233.235 416.309 231.156 415.96 228.95C414.72 218.67 426.32 221.05 426.32 221.05Z" fill="#F86D70"/>
<path opacity="0.75" d="M426.32 221.05C426.32 221.05 414.72 218.67 416.01 228.97C416.358 231.176 417.269 233.255 418.655 235.006C420.04 236.758 421.854 238.123 423.92 238.97C424.848 239.36 425.844 239.561 426.85 239.56C428.241 239.561 429.605 239.177 430.79 238.45C433.94 236.55 439.15 232.09 436.37 224.5C436.37 224.5 433.54 218.14 426.32 221.05Z" fill="#3F3D56"/>
<path opacity="0.1" d="M426.32 221.05C426.32 221.05 414.72 218.67 416.01 228.97C416.358 231.176 417.269 233.255 418.655 235.006C420.04 236.758 421.854 238.123 423.92 238.97C424.848 239.36 425.844 239.561 426.85 239.56C428.241 239.561 429.605 239.177 430.79 238.45C433.94 236.55 439.15 232.09 436.37 224.5C436.37 224.5 433.54 218.14 426.32 221.05Z" fill="url(#paint2_radial)"/>
</g>
</g>
<defs>
<linearGradient id="paint0_linear" x1="84312.8" y1="89557.5" x2="84312.8" y2="47528.4" gradientUnits="userSpaceOnUse">
<stop stop-color="#808080" stop-opacity="0.25"/>
<stop offset="0.54" stop-color="#808080" stop-opacity="0.12"/>
<stop offset="1" stop-color="#808080" stop-opacity="0.1"/>
</linearGradient>
<radialGradient id="paint1_radial" cx="0" cy="0" r="1" gradientUnits="userSpaceOnUse" gradientTransform="translate(457.38 229.91) scale(10.14)">
<stop stop-color="white"/>
<stop offset="1"/>
</radialGradient>
<radialGradient id="paint2_radial" cx="0" cy="0" r="1" gradientUnits="userSpaceOnUse" gradientTransform="translate(-39300.1 5508.79) rotate(180) scale(215.472 195.421)">
<stop stop-color="white"/>
<stop offset="1"/>
</radialGradient>
<clipPath id="clip0">
<rect width="861" height="811" fill="white"/>
</clipPath>
</defs>
</svg>
